solid OpenSCAD_Model
  facet normal -0.994522 -0.104532 0
    outer loop
      vertex -150 0 0.1
      vertex -146.722 -31.187 0.1
      vertex -150 0 0.7
    endloop
  endfacet
  facet normal -0.994522 -0.104532 0
    outer loop
      vertex -150 0 0.7
      vertex -146.722 -31.187 0.1
      vertex -146.722 -31.187 0.7
    endloop
  endfacet
  facet normal 0 0 -1
    outer loop
      vertex -150 0 0.1
      vertex -146.722 31.187 0.1
      vertex -146.722 -31.187 0.1
    endloop
  endfacet
  facet normal 0 0 -1
    outer loop
      vertex -146.722 -31.187 0.1
      vertex -146.722 31.187 0.1
      vertex -137.032 61.01 0.1
    endloop
  endfacet
  facet normal 0 0 -1
    outer loop
      vertex -146.722 -31.187 0.1
      vertex -137.032 61.01 0.1
      vertex -121.353 88.168 0.1
    endloop
  endfacet
  facet normal 0 0 -1
    outer loop
      vertex -146.722 -31.187 0.1
      vertex -121.353 88.168 0.1
      vertex -100.37 111.472 0.1
    endloop
  endfacet
  facet normal 0 0 -1
    outer loop
      vertex -146.722 -31.187 0.1
      vertex -100.37 111.472 0.1
      vertex -96.418 114.343 0.1
    endloop
  endfacet
  facet normal 0 0 -1
    outer loop
      vertex -146.722 -31.187 0.1
      vertex -96.418 114.343 0.1
      vertex -96.418 -114.343 0.1
    endloop
  endfacet
  facet normal 0 0 -1
    outer loop
      vertex -146.722 -31.187 0.1
      vertex -96.418 -114.343 0.1
      vertex -100.37 -111.472 0.1
    endloop
  endfacet
  facet normal 0 0 -1
    outer loop
      vertex -146.722 -31.187 0.1
      vertex -100.37 -111.472 0.1
      vertex -121.353 -88.168 0.1
    endloop
  endfacet
  facet normal 0 0 -1
    outer loop
      vertex -146.722 -31.187 0.1
      vertex -121.353 -88.168 0.1
      vertex -137.032 -61.01 0.1
    endloop
  endfacet
  facet normal -0.994522 0.104532 0
    outer loop
      vertex -150 0 0.1
      vertex -150 0 0.7
      vertex -146.722 31.187 0.1
    endloop
  endfacet
  facet normal -0.994522 0.104532 0
    outer loop
      vertex -146.722 31.187 0.1
      vertex -150 0 0.7
      vertex -146.722 31.187 0.7
    endloop
  endfacet
  facet normal 0 0 1
    outer loop
      vertex -146.722 31.187 0.7
      vertex -150 0 0.7
      vertex -146.722 -31.187 0.7
    endloop
  endfacet
  facet normal 0 0 1
    outer loop
      vertex -121.353 -88.168 0.7
      vertex -146.722 31.187 0.7
      vertex -137.032 -61.01 0.7
    endloop
  endfacet
  facet normal 0 0 1
    outer loop
      vertex -137.032 -61.01 0.7
      vertex -146.722 31.187 0.7
      vertex -146.722 -31.187 0.7
    endloop
  endfacet
  facet normal 0 0 1
    outer loop
      vertex -100.37 -111.472 0.7
      vertex -146.722 31.187 0.7
      vertex -121.353 -88.168 0.7
    endloop
  endfacet
  facet normal 0 0 1
    outer loop
      vertex -96.418 -114.343 0.7
      vertex -146.722 31.187 0.7
      vertex -100.37 -111.472 0.7
    endloop
  endfacet
  facet normal 0 0 1
    outer loop
      vertex -96.418 114.343 0.7
      vertex -146.722 31.187 0.7
      vertex -96.418 -114.343 0.7
    endloop
  endfacet
  facet normal 0 0 1
    outer loop
      vertex -100.37 111.472 0.7
      vertex -146.722 31.187 0.7
      vertex -96.418 114.343 0.7
    endloop
  endfacet
  facet normal 0 0 1
    outer loop
      vertex -121.353 88.168 0.7
      vertex -146.722 31.187 0.7
      vertex -100.37 111.472 0.7
    endloop
  endfacet
  facet normal 0 0 1
    outer loop
      vertex -137.032 61.01 0.7
      vertex -146.722 31.187 0.7
      vertex -121.353 88.168 0.7
    endloop
  endfacet
  facet normal -0.951057 -0.309015 0
    outer loop
      vertex -146.722 -31.187 0.1
      vertex -137.032 -61.01 0.1
      vertex -146.722 -31.187 0.7
    endloop
  endfacet
  facet normal -0.951057 -0.309015 0
    outer loop
      vertex -146.722 -31.187 0.7
      vertex -137.032 -61.01 0.1
      vertex -137.032 -61.01 0.7
    endloop
  endfacet
  facet normal -0.866035 -0.499984 0
    outer loop
      vertex -137.032 -61.01 0.1
      vertex -121.353 -88.168 0.1
      vertex -137.032 -61.01 0.7
    endloop
  endfacet
  facet normal -0.866035 -0.499984 0
    outer loop
      vertex -137.032 -61.01 0.7
      vertex -121.353 -88.168 0.1
      vertex -121.353 -88.168 0.7
    endloop
  endfacet
  facet normal -0.743145 -0.66913 0
    outer loop
      vertex -121.353 -88.168 0.1
      vertex -100.37 -111.472 0.1
      vertex -121.353 -88.168 0.7
    endloop
  endfacet
  facet normal -0.743145 -0.66913 0
    outer loop
      vertex -121.353 -88.168 0.7
      vertex -100.37 -111.472 0.1
      vertex -100.37 -111.472 0.7
    endloop
  endfacet
  facet normal -0.587777 -0.809023 0
    outer loop
      vertex -100.37 -111.472 0.7
      vertex -100.37 -111.472 0.1
      vertex -96.418 -114.343 0.1
    endloop
  endfacet
  facet normal -0.587777 -0.809023 0
    outer loop
      vertex -96.418 -114.343 0.7
      vertex -100.37 -111.472 0.7
      vertex -96.418 -114.343 0.1
    endloop
  endfacet
  facet normal -1 0 0
    outer loop
      vertex -96.418 114.343 0.1
      vertex -96.418 114.907 0
      vertex -96.418 -114.343 0.1
    endloop
  endfacet
  facet normal -1 0 0
    outer loop
      vertex -96.418 114.343 0.7
      vertex -96.418 -114.907 6
      vertex -96.418 114.907 6
    endloop
  endfacet
  facet normal -1 0 0
    outer loop
      vertex -96.418 -114.907 0
      vertex -96.418 -114.907 6
      vertex -96.418 -114.343 0.7
    endloop
  endfacet
  facet normal -1 0 0
    outer loop
      vertex -96.418 -114.907 0
      vertex -96.418 -114.343 0.7
      vertex -96.418 -114.343 0.1
    endloop
  endfacet
  facet normal -1 0 0
    outer loop
      vertex -96.418 -114.907 0
      vertex -96.418 -114.343 0.1
      vertex -96.418 114.907 0
    endloop
  endfacet
  facet normal -1 0 0
    outer loop
      vertex -96.418 114.907 0
      vertex -96.418 114.343 0.1
      vertex -96.418 114.907 6
    endloop
  endfacet
  facet normal -1 0 0
    outer loop
      vertex -96.418 114.343 0.1
      vertex -96.418 114.343 0.7
      vertex -96.418 114.907 6
    endloop
  endfacet
  facet normal -1 0 0
    outer loop
      vertex -96.418 -114.343 0.7
      vertex -96.418 -114.907 6
      vertex -96.418 114.343 0.7
    endloop
  endfacet
  facet normal -0.587777 0.809023 0
    outer loop
      vertex -100.37 111.472 0.1
      vertex -100.37 111.472 0.7
      vertex -96.418 114.343 0.1
    endloop
  endfacet
  facet normal -0.587777 0.809023 0
    outer loop
      vertex -96.418 114.343 0.1
      vertex -100.37 111.472 0.7
      vertex -96.418 114.343 0.7
    endloop
  endfacet
  facet normal -0.743145 0.66913 0
    outer loop
      vertex -121.353 88.168 0.1
      vertex -121.353 88.168 0.7
      vertex -100.37 111.472 0.1
    endloop
  endfacet
  facet normal -0.743145 0.66913 0
    outer loop
      vertex -100.37 111.472 0.1
      vertex -121.353 88.168 0.7
      vertex -100.37 111.472 0.7
    endloop
  endfacet
  facet normal -0.866035 0.499984 0
    outer loop
      vertex -137.032 61.01 0.1
      vertex -137.032 61.01 0.7
      vertex -121.353 88.168 0.1
    endloop
  endfacet
  facet normal -0.866035 0.499984 0
    outer loop
      vertex -121.353 88.168 0.1
      vertex -137.032 61.01 0.7
      vertex -121.353 88.168 0.7
    endloop
  endfacet
  facet normal -0.951057 0.309015 0
    outer loop
      vertex -146.722 31.187 0.1
      vertex -146.722 31.187 0.7
      vertex -137.032 61.01 0.1
    endloop
  endfacet
  facet normal -0.951057 0.309015 0
    outer loop
      vertex -137.032 61.01 0.1
      vertex -146.722 31.187 0.7
      vertex -137.032 61.01 0.7
    endloop
  endfacet
  facet normal -0.499998 0.866027 0
    outer loop
      vertex -55.0855 138.77 0.7
      vertex -96.418 114.907 6
      vertex -51.303 140.954 6
    endloop
  endfacet
  facet normal -0.499998 0.866027 0
    outer loop
      vertex -96.418 114.907 0
      vertex -96.418 114.907 6
      vertex -92.6389 117.089 0.7
    endloop
  endfacet
  facet normal -0.499998 0.866027 0
    outer loop
      vertex -96.418 114.907 0
      vertex -92.6389 117.089 0.7
      vertex -92.6389 117.089 0.1
    endloop
  endfacet
  facet normal -0.499998 0.866027 0
    outer loop
      vertex -96.418 114.907 0
      vertex -92.6389 117.089 0.1
      vertex -51.303 140.954 0
    endloop
  endfacet
  facet normal -0.499998 0.866027 0
    outer loop
      vertex -55.0855 138.77 0.1
      vertex -51.303 140.954 0
      vertex -92.6389 117.089 0.1
    endloop
  endfacet
  facet normal -0.499998 0.866027 0
    outer loop
      vertex -51.303 140.954 0
      vertex -55.0855 138.77 0.7
      vertex -51.303 140.954 6
    endloop
  endfacet
  facet normal -0.499998 0.866027 0
    outer loop
      vertex -92.6389 117.089 0.7
      vertex -96.418 114.907 6
      vertex -55.0855 138.77 0.7
    endloop
  endfacet
  facet normal -0.499998 0.866027 0
    outer loop
      vertex -55.0855 138.77 0.7
      vertex -51.303 140.954 0
      vertex -55.0855 138.77 0.1
    endloop
  endfacet
  facet normal 0 0 -1
    outer loop
      vertex -96.418 -114.907 0
      vertex -96.418 114.907 0
      vertex -51.303 -140.954 0
    endloop
  endfacet
  facet normal 0 0 -1
    outer loop
      vertex -51.303 -140.954 0
      vertex -96.418 114.907 0
      vertex -51.303 140.954 0
    endloop
  endfacet
  facet normal 0 0 -1
    outer loop
      vertex -51.303 -140.954 0
      vertex -51.303 140.954 0
      vertex 147.721 26.047 0
    endloop
  endfacet
  facet normal 0 0 -1
    outer loop
      vertex -51.303 -140.954 0
      vertex 147.721 26.047 0
      vertex 147.721 -26.047 0
    endloop
  endfacet
  facet normal 0 0 1
    outer loop
      vertex -96.418 114.907 6
      vertex -96.418 -114.907 6
      vertex -51.303 -140.954 6
    endloop
  endfacet
  facet normal 0 0 1
    outer loop
      vertex 147.721 26.047 6
      vertex -96.418 114.907 6
      vertex 147.721 -26.047 6
    endloop
  endfacet
  facet normal 0 0 1
    outer loop
      vertex 147.721 -26.047 6
      vertex -96.418 114.907 6
      vertex -51.303 -140.954 6
    endloop
  endfacet
  facet normal 0 0 1
    outer loop
      vertex -51.303 140.954 6
      vertex -96.418 114.907 6
      vertex 147.721 26.047 6
    endloop
  endfacet
  facet normal -0.499998 -0.866027 0
    outer loop
      vertex -92.6389 -117.089 0.1
      vertex -96.418 -114.907 0
      vertex -51.303 -140.954 0
    endloop
  endfacet
  facet normal -0.499998 -0.866027 0
    outer loop
      vertex -55.0855 -138.77 0.7
      vertex -55.0855 -138.77 0.1
      vertex -51.303 -140.954 0
    endloop
  endfacet
  facet normal -0.499998 -0.866027 0
    outer loop
      vertex -96.418 -114.907 6
      vertex -96.418 -114.907 0
      vertex -92.6389 -117.089 0.1
    endloop
  endfacet
  facet normal -0.499998 -0.866027 0
    outer loop
      vertex -96.418 -114.907 6
      vertex -92.6389 -117.089 0.1
      vertex -92.6389 -117.089 0.7
    endloop
  endfacet
  facet normal -0.499998 -0.866027 0
    outer loop
      vertex -51.303 -140.954 6
      vertex -55.0855 -138.77 0.7
      vertex -51.303 -140.954 0
    endloop
  endfacet
  facet normal -0.499998 -0.866027 0
    outer loop
      vertex -51.303 -140.954 6
      vertex -96.418 -114.907 6
      vertex -55.0855 -138.77 0.7
    endloop
  endfacet
  facet normal -0.499998 -0.866027 0
    outer loop
      vertex -55.0855 -138.77 0.1
      vertex -92.6389 -117.089 0.1
      vertex -51.303 -140.954 0
    endloop
  endfacet
  facet normal -0.499998 -0.866027 0
    outer loop
      vertex -92.6389 -117.089 0.7
      vertex -55.0855 -138.77 0.7
      vertex -96.418 -114.907 6
    endloop
  endfacet
  facet normal 0.500001 0.866025 0
    outer loop
      vertex 147.233 26.329 0.1
      vertex 147.721 26.047 0
      vertex -50.8142 140.672 0.1
    endloop
  endfacet
  facet normal 0.500001 0.866025 0
    outer loop
      vertex 147.233 26.329 0.7
      vertex -51.303 140.954 6
      vertex 147.721 26.047 6
    endloop
  endfacet
  facet normal 0.500001 0.866025 0
    outer loop
      vertex -51.303 140.954 0
      vertex -51.303 140.954 6
      vertex -50.8142 140.672 0.7
    endloop
  endfacet
  facet normal 0.500001 0.866025 0
    outer loop
      vertex -51.303 140.954 0
      vertex -50.8142 140.672 0.7
      vertex -50.8142 140.672 0.1
    endloop
  endfacet
  facet normal 0.500001 0.866025 0
    outer loop
      vertex -51.303 140.954 0
      vertex -50.8142 140.672 0.1
      vertex 147.721 26.047 0
    endloop
  endfacet
  facet normal 0.500001 0.866025 0
    outer loop
      vertex 147.721 26.047 0
      vertex 147.233 26.329 0.1
      vertex 147.721 26.047 6
    endloop
  endfacet
  facet normal 0.500001 0.866025 0
    outer loop
      vertex 147.233 26.329 0.1
      vertex 147.233 26.329 0.7
      vertex 147.721 26.047 6
    endloop
  endfacet
  facet normal 0.500001 0.866025 0
    outer loop
      vertex -50.8142 140.672 0.7
      vertex -51.303 140.954 6
      vertex 147.233 26.329 0.7
    endloop
  endfacet
  facet normal -0.587777 0.809023 0
    outer loop
      vertex -92.6389 117.089 0.1
      vertex -92.6389 117.089 0.7
      vertex -75 129.904 0.1
    endloop
  endfacet
  facet normal -0.587777 0.809023 0
    outer loop
      vertex -75 129.904 0.1
      vertex -92.6389 117.089 0.7
      vertex -75 129.904 0.7
    endloop
  endfacet
  facet normal 0 0 1
    outer loop
      vertex -75 129.904 0.7
      vertex -92.6389 117.089 0.7
      vertex -55.0855 138.77 0.7
    endloop
  endfacet
  facet normal -0.406724 0.913551 0
    outer loop
      vertex -75 129.904 0.1
      vertex -75 129.904 0.7
      vertex -55.0855 138.77 0.1
    endloop
  endfacet
  facet normal -0.406724 0.913551 0
    outer loop
      vertex -55.0855 138.77 0.1
      vertex -75 129.904 0.7
      vertex -55.0855 138.77 0.7
    endloop
  endfacet
  facet normal 0 0 -1
    outer loop
      vertex -55.0855 138.77 0.1
      vertex -92.6389 117.089 0.1
      vertex -75 129.904 0.1
    endloop
  endfacet
  facet normal 0.500001 -0.866025 0
    outer loop
      vertex -50.8142 -140.672 0.1
      vertex -51.303 -140.954 0
      vertex 147.721 -26.047 0
    endloop
  endfacet
  facet normal 0.500001 -0.866025 0
    outer loop
      vertex -51.303 -140.954 6
      vertex -51.303 -140.954 0
      vertex -50.8142 -140.672 0.1
    endloop
  endfacet
  facet normal 0.500001 -0.866025 0
    outer loop
      vertex -50.8142 -140.672 0.7
      vertex 147.233 -26.329 0.7
      vertex -51.303 -140.954 6
    endloop
  endfacet
  facet normal 0.500001 -0.866025 0
    outer loop
      vertex -51.303 -140.954 6
      vertex -50.8142 -140.672 0.1
      vertex -50.8142 -140.672 0.7
    endloop
  endfacet
  facet normal 0.500001 -0.866025 0
    outer loop
      vertex 147.721 -26.047 6
      vertex 147.233 -26.329 0.7
      vertex 147.721 -26.047 0
    endloop
  endfacet
  facet normal 0.500001 -0.866025 0
    outer loop
      vertex 147.721 -26.047 6
      vertex -51.303 -140.954 6
      vertex 147.233 -26.329 0.7
    endloop
  endfacet
  facet normal 0.500001 -0.866025 0
    outer loop
      vertex 147.233 -26.329 0.7
      vertex 147.233 -26.329 0.1
      vertex 147.721 -26.047 0
    endloop
  endfacet
  facet normal 0.500001 -0.866025 0
    outer loop
      vertex 147.233 -26.329 0.1
      vertex -50.8142 -140.672 0.1
      vertex 147.721 -26.047 0
    endloop
  endfacet
  facet normal 1 0 0
    outer loop
      vertex 147.721 -21.6825 0.1
      vertex 147.721 -26.047 0
      vertex 147.721 26.047 0
    endloop
  endfacet
  facet normal 1 0 0
    outer loop
      vertex 147.721 21.6825 0.7
      vertex 147.721 21.6825 0.1
      vertex 147.721 26.047 0
    endloop
  endfacet
  facet normal 1 0 0
    outer loop
      vertex 147.721 -26.047 6
      vertex 147.721 -26.047 0
      vertex 147.721 -21.6825 0.1
    endloop
  endfacet
  facet normal 1 0 0
    outer loop
      vertex 147.721 -26.047 6
      vertex 147.721 -21.6825 0.1
      vertex 147.721 -21.6825 0.7
    endloop
  endfacet
  facet normal 1 0 0
    outer loop
      vertex 147.721 26.047 6
      vertex 147.721 21.6825 0.7
      vertex 147.721 26.047 0
    endloop
  endfacet
  facet normal 1 0 0
    outer loop
      vertex 147.721 26.047 6
      vertex 147.721 -26.047 6
      vertex 147.721 21.6825 0.7
    endloop
  endfacet
  facet normal 1 0 0
    outer loop
      vertex 147.721 21.6825 0.1
      vertex 147.721 -21.6825 0.1
      vertex 147.721 26.047 0
    endloop
  endfacet
  facet normal 1 0 0
    outer loop
      vertex 147.721 -21.6825 0.7
      vertex 147.721 21.6825 0.7
      vertex 147.721 -26.047 6
    endloop
  endfacet
  facet normal 0 0 -1
    outer loop
      vertex -75 -129.904 0.1
      vertex -92.6389 -117.089 0.1
      vertex -55.0855 -138.77 0.1
    endloop
  endfacet
  facet normal -0.587777 -0.809023 0
    outer loop
      vertex -92.6389 -117.089 0.7
      vertex -92.6389 -117.089 0.1
      vertex -75 -129.904 0.1
    endloop
  endfacet
  facet normal -0.587777 -0.809023 0
    outer loop
      vertex -75 -129.904 0.7
      vertex -92.6389 -117.089 0.7
      vertex -75 -129.904 0.1
    endloop
  endfacet
  facet normal -0.406724 -0.913551 0
    outer loop
      vertex -75 -129.904 0.7
      vertex -75 -129.904 0.1
      vertex -55.0855 -138.77 0.1
    endloop
  endfacet
  facet normal -0.406724 -0.913551 0
    outer loop
      vertex -55.0855 -138.77 0.7
      vertex -75 -129.904 0.7
      vertex -55.0855 -138.77 0.1
    endloop
  endfacet
  facet normal 0 0 1
    outer loop
      vertex -55.0855 -138.77 0.7
      vertex -92.6389 -117.089 0.7
      vertex -75 -129.904 0.7
    endloop
  endfacet
  facet normal 0 0 1
    outer loop
      vertex -46.353 142.658 0.7
      vertex -50.8142 140.672 0.7
      vertex 147.233 26.329 0.7
    endloop
  endfacet
  facet normal 0 0 1
    outer loop
      vertex 137.032 61.01 0.7
      vertex -46.353 142.658 0.7
      vertex 146.722 31.187 0.7
    endloop
  endfacet
  facet normal 0 0 1
    outer loop
      vertex 146.722 31.187 0.7
      vertex -46.353 142.658 0.7
      vertex 147.233 26.329 0.7
    endloop
  endfacet
  facet normal 0 0 1
    outer loop
      vertex 121.353 88.168 0.7
      vertex -46.353 142.658 0.7
      vertex 137.032 61.01 0.7
    endloop
  endfacet
  facet normal 0 0 1
    outer loop
      vertex 100.37 111.472 0.7
      vertex -46.353 142.658 0.7
      vertex 121.353 88.168 0.7
    endloop
  endfacet
  facet normal 0 0 1
    outer loop
      vertex 75 129.904 0.7
      vertex -46.353 142.658 0.7
      vertex 100.37 111.472 0.7
    endloop
  endfacet
  facet normal 0 0 1
    outer loop
      vertex 46.353 142.658 0.7
      vertex -46.353 142.658 0.7
      vertex 75 129.904 0.7
    endloop
  endfacet
  facet normal 0 0 1
    outer loop
      vertex 15.679 149.178 0.7
      vertex -46.353 142.658 0.7
      vertex 46.353 142.658 0.7
    endloop
  endfacet
  facet normal 0 0 1
    outer loop
      vertex -15.679 149.178 0.7
      vertex -46.353 142.658 0.7
      vertex 15.679 149.178 0.7
    endloop
  endfacet
  facet normal -0.406724 0.913551 0
    outer loop
      vertex -50.8142 140.672 0.1
      vertex -50.8142 140.672 0.7
      vertex -46.353 142.658 0.1
    endloop
  endfacet
  facet normal -0.406724 0.913551 0
    outer loop
      vertex -46.353 142.658 0.1
      vertex -50.8142 140.672 0.7
      vertex -46.353 142.658 0.7
    endloop
  endfacet
  facet normal 0.994522 0.104532 0
    outer loop
      vertex 147.233 26.329 0.1
      vertex 146.722 31.187 0.1
      vertex 146.722 31.187 0.7
    endloop
  endfacet
  facet normal 0.994522 0.104532 0
    outer loop
      vertex 147.233 26.329 0.7
      vertex 147.233 26.329 0.1
      vertex 146.722 31.187 0.7
    endloop
  endfacet
  facet normal 0 0 -1
    outer loop
      vertex -50.8142 140.672 0.1
      vertex -46.353 142.658 0.1
      vertex 147.233 26.329 0.1
    endloop
  endfacet
  facet normal 0 0 -1
    outer loop
      vertex 147.233 26.329 0.1
      vertex -46.353 142.658 0.1
      vertex -15.679 149.178 0.1
    endloop
  endfacet
  facet normal 0 0 -1
    outer loop
      vertex 147.233 26.329 0.1
      vertex -15.679 149.178 0.1
      vertex 15.679 149.178 0.1
    endloop
  endfacet
  facet normal 0 0 -1
    outer loop
      vertex 147.233 26.329 0.1
      vertex 15.679 149.178 0.1
      vertex 46.353 142.658 0.1
    endloop
  endfacet
  facet normal 0 0 -1
    outer loop
      vertex 147.233 26.329 0.1
      vertex 46.353 142.658 0.1
      vertex 75 129.904 0.1
    endloop
  endfacet
  facet normal 0 0 -1
    outer loop
      vertex 147.233 26.329 0.1
      vertex 75 129.904 0.1
      vertex 100.37 111.472 0.1
    endloop
  endfacet
  facet normal 0 0 -1
    outer loop
      vertex 147.233 26.329 0.1
      vertex 100.37 111.472 0.1
      vertex 121.353 88.168 0.1
    endloop
  endfacet
  facet normal 0 0 -1
    outer loop
      vertex 147.233 26.329 0.1
      vertex 121.353 88.168 0.1
      vertex 137.032 61.01 0.1
    endloop
  endfacet
  facet normal 0 0 -1
    outer loop
      vertex 147.233 26.329 0.1
      vertex 137.032 61.01 0.1
      vertex 146.722 31.187 0.1
    endloop
  endfacet
  facet normal 0 0 -1
    outer loop
      vertex -50.8142 -140.672 0.1
      vertex 147.233 -26.329 0.1
      vertex -46.353 -142.658 0.1
    endloop
  endfacet
  facet normal 0 0 -1
    outer loop
      vertex -46.353 -142.658 0.1
      vertex 147.233 -26.329 0.1
      vertex 146.722 -31.187 0.1
    endloop
  endfacet
  facet normal 0 0 -1
    outer loop
      vertex -46.353 -142.658 0.1
      vertex 146.722 -31.187 0.1
      vertex 137.032 -61.01 0.1
    endloop
  endfacet
  facet normal 0 0 -1
    outer loop
      vertex -46.353 -142.658 0.1
      vertex 137.032 -61.01 0.1
      vertex 121.353 -88.168 0.1
    endloop
  endfacet
  facet normal 0 0 -1
    outer loop
      vertex -46.353 -142.658 0.1
      vertex 121.353 -88.168 0.1
      vertex 100.37 -111.472 0.1
    endloop
  endfacet
  facet normal 0 0 -1
    outer loop
      vertex -46.353 -142.658 0.1
      vertex 100.37 -111.472 0.1
      vertex 75 -129.904 0.1
    endloop
  endfacet
  facet normal 0 0 -1
    outer loop
      vertex -46.353 -142.658 0.1
      vertex 75 -129.904 0.1
      vertex 46.353 -142.658 0.1
    endloop
  endfacet
  facet normal 0 0 -1
    outer loop
      vertex -46.353 -142.658 0.1
      vertex 46.353 -142.658 0.1
      vertex 15.679 -149.178 0.1
    endloop
  endfacet
  facet normal 0 0 -1
    outer loop
      vertex -46.353 -142.658 0.1
      vertex 15.679 -149.178 0.1
      vertex -15.679 -149.178 0.1
    endloop
  endfacet
  facet normal -0.406724 -0.913551 0
    outer loop
      vertex -50.8142 -140.672 0.7
      vertex -50.8142 -140.672 0.1
      vertex -46.353 -142.658 0.1
    endloop
  endfacet
  facet normal -0.406724 -0.913551 0
    outer loop
      vertex -46.353 -142.658 0.7
      vertex -50.8142 -140.672 0.7
      vertex -46.353 -142.658 0.1
    endloop
  endfacet
  facet normal 0.994522 -0.104532 0
    outer loop
      vertex 146.722 -31.187 0.7
      vertex 146.722 -31.187 0.1
      vertex 147.233 -26.329 0.1
    endloop
  endfacet
  facet normal 0.994522 -0.104532 0
    outer loop
      vertex 147.233 -26.329 0.7
      vertex 146.722 -31.187 0.7
      vertex 147.233 -26.329 0.1
    endloop
  endfacet
  facet normal 0 0 1
    outer loop
      vertex 147.233 -26.329 0.7
      vertex -50.8142 -140.672 0.7
      vertex -46.353 -142.658 0.7
    endloop
  endfacet
  facet normal 0 0 1
    outer loop
      vertex 15.679 -149.178 0.7
      vertex 147.233 -26.329 0.7
      vertex -15.679 -149.178 0.7
    endloop
  endfacet
  facet normal 0 0 1
    outer loop
      vertex -15.679 -149.178 0.7
      vertex 147.233 -26.329 0.7
      vertex -46.353 -142.658 0.7
    endloop
  endfacet
  facet normal 0 0 1
    outer loop
      vertex 46.353 -142.658 0.7
      vertex 147.233 -26.329 0.7
      vertex 15.679 -149.178 0.7
    endloop
  endfacet
  facet normal 0 0 1
    outer loop
      vertex 75 -129.904 0.7
      vertex 147.233 -26.329 0.7
      vertex 46.353 -142.658 0.7
    endloop
  endfacet
  facet normal 0 0 1
    outer loop
      vertex 100.37 -111.472 0.7
      vertex 147.233 -26.329 0.7
      vertex 75 -129.904 0.7
    endloop
  endfacet
  facet normal 0 0 1
    outer loop
      vertex 121.353 -88.168 0.7
      vertex 147.233 -26.329 0.7
      vertex 100.37 -111.472 0.7
    endloop
  endfacet
  facet normal 0 0 1
    outer loop
      vertex 137.032 -61.01 0.7
      vertex 147.233 -26.329 0.7
      vertex 121.353 -88.168 0.7
    endloop
  endfacet
  facet normal 0 0 1
    outer loop
      vertex 146.722 -31.187 0.7
      vertex 147.233 -26.329 0.7
      vertex 137.032 -61.01 0.7
    endloop
  endfacet
  facet normal 0 0 -1
    outer loop
      vertex 150 0 0.1
      vertex 147.721 -21.6825 0.1
      vertex 147.721 21.6825 0.1
    endloop
  endfacet
  facet normal 0.994522 -0.104532 0
    outer loop
      vertex 147.721 -21.6825 0.7
      vertex 147.721 -21.6825 0.1
      vertex 150 0 0.1
    endloop
  endfacet
  facet normal 0.994522 -0.104532 0
    outer loop
      vertex 150 0 0.7
      vertex 147.721 -21.6825 0.7
      vertex 150 0 0.1
    endloop
  endfacet
  facet normal 0.994522 0.104532 0
    outer loop
      vertex 150 0 0.1
      vertex 147.721 21.6825 0.1
      vertex 147.721 21.6825 0.7
    endloop
  endfacet
  facet normal 0.994522 0.104532 0
    outer loop
      vertex 150 0 0.7
      vertex 150 0 0.1
      vertex 147.721 21.6825 0.7
    endloop
  endfacet
  facet normal 0 0 1
    outer loop
      vertex 147.721 21.6825 0.7
      vertex 147.721 -21.6825 0.7
      vertex 150 0 0.7
    endloop
  endfacet
  facet normal -0.207913 0.978147 0
    outer loop
      vertex -46.353 142.658 0.1
      vertex -46.353 142.658 0.7
      vertex -15.679 149.178 0.1
    endloop
  endfacet
  facet normal -0.207913 0.978147 0
    outer loop
      vertex -15.679 149.178 0.1
      vertex -46.353 142.658 0.7
      vertex -15.679 149.178 0.7
    endloop
  endfacet
  facet normal 0 1 0
    outer loop
      vertex -15.679 149.178 0.1
      vertex -15.679 149.178 0.7
      vertex 15.679 149.178 0.1
    endloop
  endfacet
  facet normal 0 1 0
    outer loop
      vertex 15.679 149.178 0.1
      vertex -15.679 149.178 0.7
      vertex 15.679 149.178 0.7
    endloop
  endfacet
  facet normal 0.207913 0.978147 0
    outer loop
      vertex 15.679 149.178 0.1
      vertex 15.679 149.178 0.7
      vertex 46.353 142.658 0.1
    endloop
  endfacet
  facet normal 0.207913 0.978147 0
    outer loop
      vertex 46.353 142.658 0.1
      vertex 15.679 149.178 0.7
      vertex 46.353 142.658 0.7
    endloop
  endfacet
  facet normal 0.406724 0.913551 0
    outer loop
      vertex 46.353 142.658 0.1
      vertex 46.353 142.658 0.7
      vertex 75 129.904 0.1
    endloop
  endfacet
  facet normal 0.406724 0.913551 0
    outer loop
      vertex 75 129.904 0.1
      vertex 46.353 142.658 0.7
      vertex 75 129.904 0.7
    endloop
  endfacet
  facet normal 0.587777 0.809023 0
    outer loop
      vertex 75 129.904 0.1
      vertex 75 129.904 0.7
      vertex 100.37 111.472 0.1
    endloop
  endfacet
  facet normal 0.587777 0.809023 0
    outer loop
      vertex 100.37 111.472 0.1
      vertex 75 129.904 0.7
      vertex 100.37 111.472 0.7
    endloop
  endfacet
  facet normal 0.743145 0.66913 0
    outer loop
      vertex 121.353 88.168 0.1
      vertex 100.37 111.472 0.1
      vertex 100.37 111.472 0.7
    endloop
  endfacet
  facet normal 0.743145 0.66913 0
    outer loop
      vertex 121.353 88.168 0.7
      vertex 121.353 88.168 0.1
      vertex 100.37 111.472 0.7
    endloop
  endfacet
  facet normal 0.866035 0.499984 0
    outer loop
      vertex 137.032 61.01 0.1
      vertex 121.353 88.168 0.1
      vertex 121.353 88.168 0.7
    endloop
  endfacet
  facet normal 0.866035 0.499984 0
    outer loop
      vertex 137.032 61.01 0.7
      vertex 137.032 61.01 0.1
      vertex 121.353 88.168 0.7
    endloop
  endfacet
  facet normal 0.951057 0.309015 0
    outer loop
      vertex 146.722 31.187 0.1
      vertex 137.032 61.01 0.1
      vertex 137.032 61.01 0.7
    endloop
  endfacet
  facet normal 0.951057 0.309015 0
    outer loop
      vertex 146.722 31.187 0.7
      vertex 146.722 31.187 0.1
      vertex 137.032 61.01 0.7
    endloop
  endfacet
  facet normal -0.207913 -0.978147 0
    outer loop
      vertex -46.353 -142.658 0.7
      vertex -46.353 -142.658 0.1
      vertex -15.679 -149.178 0.1
    endloop
  endfacet
  facet normal -0.207913 -0.978147 0
    outer loop
      vertex -15.679 -149.178 0.7
      vertex -46.353 -142.658 0.7
      vertex -15.679 -149.178 0.1
    endloop
  endfacet
  facet normal 0 -1 0
    outer loop
      vertex -15.679 -149.178 0.7
      vertex -15.679 -149.178 0.1
      vertex 15.679 -149.178 0.1
    endloop
  endfacet
  facet normal 0 -1 0
    outer loop
      vertex 15.679 -149.178 0.7
      vertex -15.679 -149.178 0.7
      vertex 15.679 -149.178 0.1
    endloop
  endfacet
  facet normal 0.207913 -0.978147 0
    outer loop
      vertex 15.679 -149.178 0.7
      vertex 15.679 -149.178 0.1
      vertex 46.353 -142.658 0.1
    endloop
  endfacet
  facet normal 0.207913 -0.978147 0
    outer loop
      vertex 46.353 -142.658 0.7
      vertex 15.679 -149.178 0.7
      vertex 46.353 -142.658 0.1
    endloop
  endfacet
  facet normal 0.406724 -0.913551 0
    outer loop
      vertex 46.353 -142.658 0.7
      vertex 46.353 -142.658 0.1
      vertex 75 -129.904 0.1
    endloop
  endfacet
  facet normal 0.406724 -0.913551 0
    outer loop
      vertex 75 -129.904 0.7
      vertex 46.353 -142.658 0.7
      vertex 75 -129.904 0.1
    endloop
  endfacet
  facet normal 0.587777 -0.809023 0
    outer loop
      vertex 75 -129.904 0.7
      vertex 75 -129.904 0.1
      vertex 100.37 -111.472 0.1
    endloop
  endfacet
  facet normal 0.587777 -0.809023 0
    outer loop
      vertex 100.37 -111.472 0.7
      vertex 75 -129.904 0.7
      vertex 100.37 -111.472 0.1
    endloop
  endfacet
  facet normal 0.743145 -0.66913 0
    outer loop
      vertex 100.37 -111.472 0.7
      vertex 100.37 -111.472 0.1
      vertex 121.353 -88.168 0.1
    endloop
  endfacet
  facet normal 0.743145 -0.66913 0
    outer loop
      vertex 121.353 -88.168 0.7
      vertex 100.37 -111.472 0.7
      vertex 121.353 -88.168 0.1
    endloop
  endfacet
  facet normal 0.866035 -0.499984 0
    outer loop
      vertex 121.353 -88.168 0.7
      vertex 121.353 -88.168 0.1
      vertex 137.032 -61.01 0.1
    endloop
  endfacet
  facet normal 0.866035 -0.499984 0
    outer loop
      vertex 137.032 -61.01 0.7
      vertex 121.353 -88.168 0.7
      vertex 137.032 -61.01 0.1
    endloop
  endfacet
  facet normal 0.951057 -0.309015 0
    outer loop
      vertex 137.032 -61.01 0.7
      vertex 137.032 -61.01 0.1
      vertex 146.722 -31.187 0.1
    endloop
  endfacet
  facet normal 0.951057 -0.309015 0
    outer loop
      vertex 146.722 -31.187 0.7
      vertex 137.032 -61.01 0.7
      vertex 146.722 -31.187 0.1
    endloop
  endfacet
endsolid OpenSCAD_Model
