solid OpenSCAD_Model
  facet normal 0 0 -1
    outer loop
      vertex -7.5 0 0
      vertex -7.24444 1.94114 0
      vertex -7.24444 -1.94114 0
    endloop
  endfacet
  facet normal 0 0 -1
    outer loop
      vertex -7.24444 -1.94114 0
      vertex -7.24444 1.94114 0
      vertex -6.49519 3.75 0
    endloop
  endfacet
  facet normal 0 0 -1
    outer loop
      vertex -7.24444 -1.94114 0
      vertex -6.49519 3.75 0
      vertex -5.3033 5.3033 0
    endloop
  endfacet
  facet normal 0 0 -1
    outer loop
      vertex -7.24444 -1.94114 0
      vertex -5.3033 5.3033 0
      vertex -3.75 6.49519 0
    endloop
  endfacet
  facet normal 0 0 -1
    outer loop
      vertex -7.24444 -1.94114 0
      vertex -3.75 6.49519 0
      vertex -1.94114 7.24444 0
    endloop
  endfacet
  facet normal 0 0 -1
    outer loop
      vertex -7.24444 -1.94114 0
      vertex -1.94114 7.24444 0
      vertex 0 7.5 0
    endloop
  endfacet
  facet normal 0 0 -1
    outer loop
      vertex -2.99404 2.65249 0
      vertex 0 7.5 0
      vertex 1.94114 7.24444 0
    endloop
  endfacet
  facet normal 0 0 -1
    outer loop
      vertex 0.482147 3.97083 0
      vertex 3.75 6.49519 0
      vertex 5.3033 5.3033 0
    endloop
  endfacet
  facet normal 0 0 -1
    outer loop
      vertex 2.27226 3.29194 0
      vertex 5.3033 5.3033 0
      vertex 6.49519 3.75 0
    endloop
  endfacet
  facet normal 0 0 -1
    outer loop
      vertex 3.54182 1.85889 0
      vertex 6.49519 3.75 0
      vertex 7.24444 1.94114 0
    endloop
  endfacet
  facet normal 0 0 -1
    outer loop
      vertex 4 0 0
      vertex 7.24444 1.94114 0
      vertex 7.5 0 0
    endloop
  endfacet
  facet normal 0 0 -1
    outer loop
      vertex 3.54182 -1.85889 0
      vertex 7.5 0 0
      vertex 7.24444 -1.94114 0
    endloop
  endfacet
  facet normal 0 0 -1
    outer loop
      vertex 0.482147 -3.97083 0
      vertex 5.3033 -5.3033 0
      vertex -1.41842 -3.74006 0
    endloop
  endfacet
  facet normal 0 0 -1
    outer loop
      vertex 2.27226 -3.29194 0
      vertex 6.49519 -3.75 0
      vertex 5.3033 -5.3033 0
    endloop
  endfacet
  facet normal 0 0 -1
    outer loop
      vertex -1.41842 -3.74006 0
      vertex 5.3033 -5.3033 0
      vertex 3.75 -6.49519 0
    endloop
  endfacet
  facet normal 0 0 -1
    outer loop
      vertex -7.24444 -1.94114 0
      vertex 3.75 -6.49519 0
      vertex 1.94114 -7.24444 0
    endloop
  endfacet
  facet normal 0 0 -1
    outer loop
      vertex -7.24444 -1.94114 0
      vertex 1.94114 -7.24444 0
      vertex 0 -7.5 0
    endloop
  endfacet
  facet normal 0 0 -1
    outer loop
      vertex -7.24444 -1.94114 0
      vertex 0 -7.5 0
      vertex -1.94114 -7.24444 0
    endloop
  endfacet
  facet normal 0 0 -1
    outer loop
      vertex -7.24444 -1.94114 0
      vertex -1.94114 -7.24444 0
      vertex -3.75 -6.49519 0
    endloop
  endfacet
  facet normal 0 0 -1
    outer loop
      vertex -7.24444 -1.94114 0
      vertex -3.75 -6.49519 0
      vertex -5.3033 -5.3033 0
    endloop
  endfacet
  facet normal 0 0 -1
    outer loop
      vertex -7.24444 -1.94114 0
      vertex -5.3033 -5.3033 0
      vertex -6.49519 -3.75 0
    endloop
  endfacet
  facet normal 0 0 -1
    outer loop
      vertex 4 0 0
      vertex 7.5 0 0
      vertex 3.54182 -1.85889 0
    endloop
  endfacet
  facet normal 0 0 -1
    outer loop
      vertex -2.99404 -2.65249 0
      vertex -7.24444 -1.94114 0
      vertex -3.88377 -0.957263 0
    endloop
  endfacet
  facet normal 0 0 -1
    outer loop
      vertex -1.41842 -3.74006 0
      vertex -7.24444 -1.94114 0
      vertex -2.99404 -2.65249 0
    endloop
  endfacet
  facet normal 0 0 -1
    outer loop
      vertex 2.27226 -3.29194 0
      vertex 5.3033 -5.3033 0
      vertex 0.482147 -3.97083 0
    endloop
  endfacet
  facet normal 0 0 -1
    outer loop
      vertex -7.24444 -1.94114 0
      vertex -1.41842 -3.74006 0
      vertex 3.75 -6.49519 0
    endloop
  endfacet
  facet normal 0 0 -1
    outer loop
      vertex 3.54182 -1.85889 0
      vertex 6.49519 -3.75 0
      vertex 2.27226 -3.29194 0
    endloop
  endfacet
  facet normal 0 0 -1
    outer loop
      vertex 2.27226 3.29194 0
      vertex 6.49519 3.75 0
      vertex 3.54182 1.85889 0
    endloop
  endfacet
  facet normal 0 0 -1
    outer loop
      vertex 3.54182 1.85889 0
      vertex 7.24444 1.94114 0
      vertex 4 0 0
    endloop
  endfacet
  facet normal 0 0 -1
    outer loop
      vertex 3.54182 -1.85889 0
      vertex 7.24444 -1.94114 0
      vertex 6.49519 -3.75 0
    endloop
  endfacet
  facet normal 0 0 -1
    outer loop
      vertex -3.88377 -0.957263 0
      vertex -7.24444 -1.94114 0
      vertex -3.88377 0.957263 0
    endloop
  endfacet
  facet normal 0 0 -1
    outer loop
      vertex -7.24444 -1.94114 0
      vertex 0 7.5 0
      vertex -2.99404 2.65249 0
    endloop
  endfacet
  facet normal 0 0 -1
    outer loop
      vertex -1.41842 3.74006 0
      vertex 1.94114 7.24444 0
      vertex 3.75 6.49519 0
    endloop
  endfacet
  facet normal 0 0 -1
    outer loop
      vertex -3.88377 0.957263 0
      vertex -7.24444 -1.94114 0
      vertex -2.99404 2.65249 0
    endloop
  endfacet
  facet normal 0 0 -1
    outer loop
      vertex -2.99404 2.65249 0
      vertex 1.94114 7.24444 0
      vertex -1.41842 3.74006 0
    endloop
  endfacet
  facet normal 0 0 -1
    outer loop
      vertex -1.41842 3.74006 0
      vertex 3.75 6.49519 0
      vertex 0.482147 3.97083 0
    endloop
  endfacet
  facet normal 0 0 -1
    outer loop
      vertex 0.482147 3.97083 0
      vertex 5.3033 5.3033 0
      vertex 2.27226 3.29194 0
    endloop
  endfacet
  facet normal -0.991445 0.130526 0
    outer loop
      vertex -7.5 0 0
      vertex -7.5 0 2.15
      vertex -7.24444 1.94114 0
    endloop
  endfacet
  facet normal -0.991445 0.130526 0
    outer loop
      vertex -7.24444 1.94114 0
      vertex -7.5 0 2.15
      vertex -7.24444 1.94114 2.15
    endloop
  endfacet
  facet normal -0.991445 -0.130526 0
    outer loop
      vertex -7.5 0 0
      vertex -7.24444 -1.94114 0
      vertex -7.5 0 2.15
    endloop
  endfacet
  facet normal -0.991445 -0.130526 0
    outer loop
      vertex -7.5 0 2.15
      vertex -7.24444 -1.94114 0
      vertex -7.24444 -1.94114 2.15
    endloop
  endfacet
  facet normal -0.92388 -0.382683 0
    outer loop
      vertex -7.24444 -1.94114 0
      vertex -6.49519 -3.75 0
      vertex -7.24444 -1.94114 2.15
    endloop
  endfacet
  facet normal -0.92388 -0.382683 0
    outer loop
      vertex -7.24444 -1.94114 2.15
      vertex -6.49519 -3.75 0
      vertex -6.49519 -3.75 2.15
    endloop
  endfacet
  facet normal -0.793353 -0.608762 0
    outer loop
      vertex -6.49519 -3.75 0
      vertex -5.3033 -5.3033 0
      vertex -6.49519 -3.75 2.15
    endloop
  endfacet
  facet normal -0.793353 -0.608762 0
    outer loop
      vertex -6.49519 -3.75 2.15
      vertex -5.3033 -5.3033 0
      vertex -5.3033 -5.3033 2.15
    endloop
  endfacet
  facet normal -0.608762 -0.793353 0
    outer loop
      vertex -5.3033 -5.3033 2.15
      vertex -5.3033 -5.3033 0
      vertex -3.75 -6.49519 0
    endloop
  endfacet
  facet normal -0.608762 -0.793353 0
    outer loop
      vertex -3.75 -6.49519 2.15
      vertex -5.3033 -5.3033 2.15
      vertex -3.75 -6.49519 0
    endloop
  endfacet
  facet normal -0.382683 -0.92388 0
    outer loop
      vertex -3.75 -6.49519 2.15
      vertex -3.75 -6.49519 0
      vertex -1.94114 -7.24444 0
    endloop
  endfacet
  facet normal -0.382683 -0.92388 0
    outer loop
      vertex -1.94114 -7.24444 2.15
      vertex -3.75 -6.49519 2.15
      vertex -1.94114 -7.24444 0
    endloop
  endfacet
  facet normal -0.130526 -0.991445 0
    outer loop
      vertex -1.94114 -7.24444 2.15
      vertex -1.94114 -7.24444 0
      vertex 0 -7.5 0
    endloop
  endfacet
  facet normal -0.130526 -0.991445 0
    outer loop
      vertex 0 -7.5 2.15
      vertex -1.94114 -7.24444 2.15
      vertex 0 -7.5 0
    endloop
  endfacet
  facet normal 0.130526 -0.991445 0
    outer loop
      vertex 0 -7.5 2.15
      vertex 0 -7.5 0
      vertex 1.94114 -7.24444 0
    endloop
  endfacet
  facet normal 0.130526 -0.991445 0
    outer loop
      vertex 1.94114 -7.24444 2.15
      vertex 0 -7.5 2.15
      vertex 1.94114 -7.24444 0
    endloop
  endfacet
  facet normal 0.382683 -0.92388 0
    outer loop
      vertex 1.94114 -7.24444 2.15
      vertex 1.94114 -7.24444 0
      vertex 3.75 -6.49519 0
    endloop
  endfacet
  facet normal 0.382683 -0.92388 0
    outer loop
      vertex 3.75 -6.49519 2.15
      vertex 1.94114 -7.24444 2.15
      vertex 3.75 -6.49519 0
    endloop
  endfacet
  facet normal 0.608762 -0.793353 0
    outer loop
      vertex 3.75 -6.49519 2.15
      vertex 3.75 -6.49519 0
      vertex 5.3033 -5.3033 0
    endloop
  endfacet
  facet normal 0.608762 -0.793353 0
    outer loop
      vertex 5.3033 -5.3033 2.15
      vertex 3.75 -6.49519 2.15
      vertex 5.3033 -5.3033 0
    endloop
  endfacet
  facet normal 0.793353 -0.608762 0
    outer loop
      vertex 5.3033 -5.3033 2.15
      vertex 5.3033 -5.3033 0
      vertex 6.49519 -3.75 0
    endloop
  endfacet
  facet normal 0.793353 -0.608762 0
    outer loop
      vertex 6.49519 -3.75 2.15
      vertex 5.3033 -5.3033 2.15
      vertex 6.49519 -3.75 0
    endloop
  endfacet
  facet normal 0.92388 -0.382683 0
    outer loop
      vertex 6.49519 -3.75 2.15
      vertex 6.49519 -3.75 0
      vertex 7.24444 -1.94114 0
    endloop
  endfacet
  facet normal 0.92388 -0.382683 0
    outer loop
      vertex 7.24444 -1.94114 2.15
      vertex 6.49519 -3.75 2.15
      vertex 7.24444 -1.94114 0
    endloop
  endfacet
  facet normal 0.991445 -0.130526 0
    outer loop
      vertex 7.24444 -1.94114 2.15
      vertex 7.24444 -1.94114 0
      vertex 7.5 0 0
    endloop
  endfacet
  facet normal 0.991445 -0.130526 0
    outer loop
      vertex 7.5 0 2.15
      vertex 7.24444 -1.94114 2.15
      vertex 7.5 0 0
    endloop
  endfacet
  facet normal 0.991445 0.130526 0
    outer loop
      vertex 7.5 0 0
      vertex 7.24444 1.94114 0
      vertex 7.24444 1.94114 2.15
    endloop
  endfacet
  facet normal 0.991445 0.130526 0
    outer loop
      vertex 7.5 0 2.15
      vertex 7.5 0 0
      vertex 7.24444 1.94114 2.15
    endloop
  endfacet
  facet normal 0.92388 0.382683 0
    outer loop
      vertex 7.24444 1.94114 0
      vertex 6.49519 3.75 0
      vertex 6.49519 3.75 2.15
    endloop
  endfacet
  facet normal 0.92388 0.382683 0
    outer loop
      vertex 7.24444 1.94114 2.15
      vertex 7.24444 1.94114 0
      vertex 6.49519 3.75 2.15
    endloop
  endfacet
  facet normal 0.793353 0.608762 0
    outer loop
      vertex 6.49519 3.75 0
      vertex 5.3033 5.3033 0
      vertex 5.3033 5.3033 2.15
    endloop
  endfacet
  facet normal 0.793353 0.608762 0
    outer loop
      vertex 6.49519 3.75 2.15
      vertex 6.49519 3.75 0
      vertex 5.3033 5.3033 2.15
    endloop
  endfacet
  facet normal 0.608762 0.793353 0
    outer loop
      vertex 3.75 6.49519 0
      vertex 3.75 6.49519 2.15
      vertex 5.3033 5.3033 0
    endloop
  endfacet
  facet normal 0.608762 0.793353 0
    outer loop
      vertex 5.3033 5.3033 0
      vertex 3.75 6.49519 2.15
      vertex 5.3033 5.3033 2.15
    endloop
  endfacet
  facet normal 0.382683 0.92388 0
    outer loop
      vertex 1.94114 7.24444 0
      vertex 1.94114 7.24444 2.15
      vertex 3.75 6.49519 0
    endloop
  endfacet
  facet normal 0.382683 0.92388 0
    outer loop
      vertex 3.75 6.49519 0
      vertex 1.94114 7.24444 2.15
      vertex 3.75 6.49519 2.15
    endloop
  endfacet
  facet normal 0.130526 0.991445 0
    outer loop
      vertex 0 7.5 0
      vertex 0 7.5 2.15
      vertex 1.94114 7.24444 0
    endloop
  endfacet
  facet normal 0.130526 0.991445 0
    outer loop
      vertex 1.94114 7.24444 0
      vertex 0 7.5 2.15
      vertex 1.94114 7.24444 2.15
    endloop
  endfacet
  facet normal -0.130526 0.991445 0
    outer loop
      vertex -1.94114 7.24444 0
      vertex -1.94114 7.24444 2.15
      vertex 0 7.5 0
    endloop
  endfacet
  facet normal -0.130526 0.991445 0
    outer loop
      vertex 0 7.5 0
      vertex -1.94114 7.24444 2.15
      vertex 0 7.5 2.15
    endloop
  endfacet
  facet normal -0.382683 0.92388 0
    outer loop
      vertex -3.75 6.49519 0
      vertex -3.75 6.49519 2.15
      vertex -1.94114 7.24444 0
    endloop
  endfacet
  facet normal -0.382683 0.92388 0
    outer loop
      vertex -1.94114 7.24444 0
      vertex -3.75 6.49519 2.15
      vertex -1.94114 7.24444 2.15
    endloop
  endfacet
  facet normal -0.608762 0.793353 0
    outer loop
      vertex -5.3033 5.3033 0
      vertex -5.3033 5.3033 2.15
      vertex -3.75 6.49519 0
    endloop
  endfacet
  facet normal -0.608762 0.793353 0
    outer loop
      vertex -3.75 6.49519 0
      vertex -5.3033 5.3033 2.15
      vertex -3.75 6.49519 2.15
    endloop
  endfacet
  facet normal -0.793353 0.608762 0
    outer loop
      vertex -6.49519 3.75 0
      vertex -6.49519 3.75 2.15
      vertex -5.3033 5.3033 0
    endloop
  endfacet
  facet normal -0.793353 0.608762 0
    outer loop
      vertex -5.3033 5.3033 0
      vertex -6.49519 3.75 2.15
      vertex -5.3033 5.3033 2.15
    endloop
  endfacet
  facet normal -0.92388 0.382683 0
    outer loop
      vertex -7.24444 1.94114 0
      vertex -7.24444 1.94114 2.15
      vertex -6.49519 3.75 0
    endloop
  endfacet
  facet normal -0.92388 0.382683 0
    outer loop
      vertex -6.49519 3.75 0
      vertex -7.24444 1.94114 2.15
      vertex -6.49519 3.75 2.15
    endloop
  endfacet
  facet normal 1 0 0
    outer loop
      vertex -3.88377 0.957263 0
      vertex -3.88377 0.957263 24
      vertex -3.88377 -0.957263 24
    endloop
  endfacet
  facet normal 1 0 0
    outer loop
      vertex -3.88377 -0.957263 0
      vertex -3.88377 0.957263 0
      vertex -3.88377 -0.957263 24
    endloop
  endfacet
  facet normal 0.885456 -0.464723 0
    outer loop
      vertex -2.99404 2.65249 0
      vertex -2.99404 2.65249 24
      vertex -3.88377 0.957263 24
    endloop
  endfacet
  facet normal 0.885456 -0.464723 0
    outer loop
      vertex -3.88377 0.957263 0
      vertex -2.99404 2.65249 0
      vertex -3.88377 0.957263 24
    endloop
  endfacet
  facet normal 0.568065 -0.822984 0
    outer loop
      vertex -1.41842 3.74006 0
      vertex -1.41842 3.74006 24
      vertex -2.99404 2.65249 24
    endloop
  endfacet
  facet normal 0.568065 -0.822984 0
    outer loop
      vertex -2.99404 2.65249 0
      vertex -1.41842 3.74006 0
      vertex -2.99404 2.65249 24
    endloop
  endfacet
  facet normal 0.120536 -0.992709 0
    outer loop
      vertex 0.482147 3.97083 0
      vertex 0.482147 3.97083 24
      vertex -1.41842 3.74006 24
    endloop
  endfacet
  facet normal 0.120536 -0.992709 0
    outer loop
      vertex -1.41842 3.74006 0
      vertex 0.482147 3.97083 0
      vertex -1.41842 3.74006 24
    endloop
  endfacet
  facet normal -0.354605 -0.935016 0
    outer loop
      vertex 2.27226 3.29194 0
      vertex 2.27226 3.29194 24
      vertex 0.482147 3.97083 24
    endloop
  endfacet
  facet normal -0.354605 -0.935016 0
    outer loop
      vertex 0.482147 3.97083 0
      vertex 2.27226 3.29194 0
      vertex 0.482147 3.97083 24
    endloop
  endfacet
  facet normal -0.748511 -0.663123 0
    outer loop
      vertex 3.54182 1.85889 24
      vertex 2.27226 3.29194 24
      vertex 3.54182 1.85889 0
    endloop
  endfacet
  facet normal -0.748511 -0.663123 0
    outer loop
      vertex 3.54182 1.85889 0
      vertex 2.27226 3.29194 24
      vertex 2.27226 3.29194 0
    endloop
  endfacet
  facet normal -0.970942 -0.239316 0
    outer loop
      vertex 4 0 24
      vertex 3.54182 1.85889 24
      vertex 4 0 0
    endloop
  endfacet
  facet normal -0.970942 -0.239316 0
    outer loop
      vertex 4 0 0
      vertex 3.54182 1.85889 24
      vertex 3.54182 1.85889 0
    endloop
  endfacet
  facet normal -0.970942 0.239316 0
    outer loop
      vertex 4 0 24
      vertex 4 0 0
      vertex 3.54182 -1.85889 24
    endloop
  endfacet
  facet normal -0.970942 0.239316 0
    outer loop
      vertex 3.54182 -1.85889 24
      vertex 4 0 0
      vertex 3.54182 -1.85889 0
    endloop
  endfacet
  facet normal -0.748511 0.663123 0
    outer loop
      vertex 3.54182 -1.85889 24
      vertex 3.54182 -1.85889 0
      vertex 2.27226 -3.29194 24
    endloop
  endfacet
  facet normal -0.748511 0.663123 0
    outer loop
      vertex 2.27226 -3.29194 24
      vertex 3.54182 -1.85889 0
      vertex 2.27226 -3.29194 0
    endloop
  endfacet
  facet normal -0.354605 0.935016 0
    outer loop
      vertex 2.27226 -3.29194 24
      vertex 2.27226 -3.29194 0
      vertex 0.482147 -3.97083 24
    endloop
  endfacet
  facet normal -0.354605 0.935016 0
    outer loop
      vertex 0.482147 -3.97083 24
      vertex 2.27226 -3.29194 0
      vertex 0.482147 -3.97083 0
    endloop
  endfacet
  facet normal 0.120536 0.992709 0
    outer loop
      vertex 0.482147 -3.97083 24
      vertex 0.482147 -3.97083 0
      vertex -1.41842 -3.74006 24
    endloop
  endfacet
  facet normal 0.120536 0.992709 0
    outer loop
      vertex -1.41842 -3.74006 24
      vertex 0.482147 -3.97083 0
      vertex -1.41842 -3.74006 0
    endloop
  endfacet
  facet normal 0.568065 0.822984 0
    outer loop
      vertex -1.41842 -3.74006 24
      vertex -1.41842 -3.74006 0
      vertex -2.99404 -2.65249 24
    endloop
  endfacet
  facet normal 0.568065 0.822984 0
    outer loop
      vertex -2.99404 -2.65249 24
      vertex -1.41842 -3.74006 0
      vertex -2.99404 -2.65249 0
    endloop
  endfacet
  facet normal 0.885456 0.464723 0
    outer loop
      vertex -3.88377 -0.957263 24
      vertex -2.99404 -2.65249 24
      vertex -2.99404 -2.65249 0
    endloop
  endfacet
  facet normal 0.885456 0.464723 0
    outer loop
      vertex -3.88377 -0.957263 0
      vertex -3.88377 -0.957263 24
      vertex -2.99404 -2.65249 0
    endloop
  endfacet
  facet normal 0 0 1
    outer loop
      vertex -7.24444 -1.94114 2.15
      vertex -6.49519 -3.75 2.15
      vertex -5.3033 -5.3033 2.15
    endloop
  endfacet
  facet normal 0 0 1
    outer loop
      vertex -5.54634 -4.51228 2.15
      vertex -7.24444 -1.94114 2.15
      vertex -5.3033 -5.3033 2.15
    endloop
  endfacet
  facet normal 0 0 1
    outer loop
      vertex -2.39439 -6.73717 2.15
      vertex -4.12326 -5.84133 2.15
      vertex -1.94114 -7.24444 2.15
    endloop
  endfacet
  facet normal 0 0 1
    outer loop
      vertex 1.45471 -7.00045 2.15
      vertex -0.487933 -7.13333 2.15
      vertex 0 -7.5 2.15
    endloop
  endfacet
  facet normal 0 0 1
    outer loop
      vertex 3.28946 -6.34838 2.15
      vertex 1.45471 -7.00045 2.15
      vertex 1.94114 -7.24444 2.15
    endloop
  endfacet
  facet normal 0 0 1
    outer loop
      vertex 4.88026 -5.22548 2.15
      vertex 3.28946 -6.34838 2.15
      vertex 3.75 -6.49519 2.15
    endloop
  endfacet
  facet normal 0 0 1
    outer loop
      vertex 6.1091 -3.71502 2.15
      vertex 4.88026 -5.22548 2.15
      vertex 5.3033 -5.3033 2.15
    endloop
  endfacet
  facet normal 0 0 1
    outer loop
      vertex -4.12326 -5.84133 2.15
      vertex -5.54634 -4.51228 2.15
      vertex -3.75 -6.49519 2.15
    endloop
  endfacet
  facet normal 0 0 1
    outer loop
      vertex 6.88486 -1.92905 2.15
      vertex 6.49519 -3.75 2.15
      vertex 7.24444 -1.94114 2.15
    endloop
  endfacet
  facet normal 0 0 1
    outer loop
      vertex 7.15 0 2.15
      vertex 6.88486 -1.92905 2.15
      vertex 7.5 0 2.15
    endloop
  endfacet
  facet normal 0 0 1
    outer loop
      vertex 6.88486 1.92905 2.15
      vertex 7.15 0 2.15
      vertex 7.24444 1.94114 2.15
    endloop
  endfacet
  facet normal 0 0 1
    outer loop
      vertex 6.1091 3.71502 2.15
      vertex 6.88486 1.92905 2.15
      vertex 6.49519 3.75 2.15
    endloop
  endfacet
  facet normal 0 0 1
    outer loop
      vertex 4.88026 5.22548 2.15
      vertex 6.1091 3.71502 2.15
      vertex 5.3033 5.3033 2.15
    endloop
  endfacet
  facet normal 0 0 1
    outer loop
      vertex 3.28946 6.34838 2.15
      vertex 4.88026 5.22548 2.15
      vertex 3.75 6.49519 2.15
    endloop
  endfacet
  facet normal 0 0 1
    outer loop
      vertex 1.45471 7.00045 2.15
      vertex 3.28946 6.34838 2.15
      vertex 1.94114 7.24444 2.15
    endloop
  endfacet
  facet normal 0 0 1
    outer loop
      vertex -0.487933 7.13333 2.15
      vertex 1.45471 7.00045 2.15
      vertex 0 7.5 2.15
    endloop
  endfacet
  facet normal 0 0 1
    outer loop
      vertex -2.39439 6.73717 2.15
      vertex -0.487933 7.13333 2.15
      vertex -1.94114 7.24444 2.15
    endloop
  endfacet
  facet normal 0 0 1
    outer loop
      vertex -4.12326 5.84133 2.15
      vertex -2.39439 6.73717 2.15
      vertex -3.75 6.49519 2.15
    endloop
  endfacet
  facet normal 0 0 1
    outer loop
      vertex -7.5 0 2.15
      vertex -7.24444 -1.94114 2.15
      vertex -7.24444 1.94114 2.15
    endloop
  endfacet
  facet normal 0 0 1
    outer loop
      vertex -7.24444 1.94114 2.15
      vertex -7.0834 0.973592 2.15
      vertex -6.49519 3.75 2.15
    endloop
  endfacet
  facet normal 0 0 1
    outer loop
      vertex -7.24444 1.94114 2.15
      vertex -7.24444 -1.94114 2.15
      vertex -7.0834 0.973592 2.15
    endloop
  endfacet
  facet normal 0 0 1
    outer loop
      vertex -6.49519 3.75 2.15
      vertex -6.55806 2.84857 2.15
      vertex -5.3033 5.3033 2.15
    endloop
  endfacet
  facet normal 0 0 1
    outer loop
      vertex -5.54634 4.51228 2.15
      vertex -4.12326 5.84133 2.15
      vertex -5.3033 5.3033 2.15
    endloop
  endfacet
  facet normal 0 0 1
    outer loop
      vertex -6.55806 2.84857 2.15
      vertex -5.54634 4.51228 2.15
      vertex -5.3033 5.3033 2.15
    endloop
  endfacet
  facet normal 0 0 1
    outer loop
      vertex -5.3033 5.3033 2.15
      vertex -4.12326 5.84133 2.15
      vertex -3.75 6.49519 2.15
    endloop
  endfacet
  facet normal 0 0 1
    outer loop
      vertex -3.75 6.49519 2.15
      vertex -2.39439 6.73717 2.15
      vertex -1.94114 7.24444 2.15
    endloop
  endfacet
  facet normal 0 0 1
    outer loop
      vertex -1.94114 7.24444 2.15
      vertex -0.487933 7.13333 2.15
      vertex 0 7.5 2.15
    endloop
  endfacet
  facet normal 0 0 1
    outer loop
      vertex 0 7.5 2.15
      vertex 1.45471 7.00045 2.15
      vertex 1.94114 7.24444 2.15
    endloop
  endfacet
  facet normal 0 0 1
    outer loop
      vertex 1.94114 7.24444 2.15
      vertex 3.28946 6.34838 2.15
      vertex 3.75 6.49519 2.15
    endloop
  endfacet
  facet normal 0 0 1
    outer loop
      vertex 3.75 6.49519 2.15
      vertex 4.88026 5.22548 2.15
      vertex 5.3033 5.3033 2.15
    endloop
  endfacet
  facet normal 0 0 1
    outer loop
      vertex 5.3033 5.3033 2.15
      vertex 6.1091 3.71502 2.15
      vertex 6.49519 3.75 2.15
    endloop
  endfacet
  facet normal 0 0 1
    outer loop
      vertex 6.49519 3.75 2.15
      vertex 6.88486 1.92905 2.15
      vertex 7.24444 1.94114 2.15
    endloop
  endfacet
  facet normal 0 0 1
    outer loop
      vertex 7.24444 1.94114 2.15
      vertex 7.15 0 2.15
      vertex 7.5 0 2.15
    endloop
  endfacet
  facet normal 0 0 1
    outer loop
      vertex 7.5 0 2.15
      vertex 6.88486 -1.92905 2.15
      vertex 7.24444 -1.94114 2.15
    endloop
  endfacet
  facet normal 0 0 1
    outer loop
      vertex 6.49519 -3.75 2.15
      vertex 6.1091 -3.71502 2.15
      vertex 5.3033 -5.3033 2.15
    endloop
  endfacet
  facet normal 0 0 1
    outer loop
      vertex 5.3033 -5.3033 2.15
      vertex 4.88026 -5.22548 2.15
      vertex 3.75 -6.49519 2.15
    endloop
  endfacet
  facet normal 0 0 1
    outer loop
      vertex 3.75 -6.49519 2.15
      vertex 3.28946 -6.34838 2.15
      vertex 1.94114 -7.24444 2.15
    endloop
  endfacet
  facet normal 0 0 1
    outer loop
      vertex 1.94114 -7.24444 2.15
      vertex 1.45471 -7.00045 2.15
      vertex 0 -7.5 2.15
    endloop
  endfacet
  facet normal 0 0 1
    outer loop
      vertex 0 -7.5 2.15
      vertex -0.487933 -7.13333 2.15
      vertex -1.94114 -7.24444 2.15
    endloop
  endfacet
  facet normal 0 0 1
    outer loop
      vertex -0.487933 -7.13333 2.15
      vertex -2.39439 -6.73717 2.15
      vertex -1.94114 -7.24444 2.15
    endloop
  endfacet
  facet normal 0 0 1
    outer loop
      vertex -1.94114 -7.24444 2.15
      vertex -4.12326 -5.84133 2.15
      vertex -3.75 -6.49519 2.15
    endloop
  endfacet
  facet normal 0 0 1
    outer loop
      vertex -3.75 -6.49519 2.15
      vertex -5.54634 -4.51228 2.15
      vertex -5.3033 -5.3033 2.15
    endloop
  endfacet
  facet normal 0 0 1
    outer loop
      vertex -6.55806 -2.84857 2.15
      vertex -7.24444 -1.94114 2.15
      vertex -5.54634 -4.51228 2.15
    endloop
  endfacet
  facet normal 0 0 1
    outer loop
      vertex 6.88486 -1.92905 2.15
      vertex 6.1091 -3.71502 2.15
      vertex 6.49519 -3.75 2.15
    endloop
  endfacet
  facet normal 0 0 1
    outer loop
      vertex -7.0834 0.973592 2.15
      vertex -6.55806 2.84857 2.15
      vertex -6.49519 3.75 2.15
    endloop
  endfacet
  facet normal 0 0 1
    outer loop
      vertex -7.0834 -0.973592 2.15
      vertex -7.0834 0.973592 2.15
      vertex -7.24444 -1.94114 2.15
    endloop
  endfacet
  facet normal 0 0 1
    outer loop
      vertex -6.55806 -2.84857 2.15
      vertex -7.0834 -0.973592 2.15
      vertex -7.24444 -1.94114 2.15
    endloop
  endfacet
  facet normal 0 0 1
    outer loop
      vertex -7.24444 1.94114 24
      vertex -7.5 0 24
      vertex -7.24444 -1.94114 24
    endloop
  endfacet
  facet normal 0 0 1
    outer loop
      vertex -5.3033 -5.3033 24
      vertex -7.24444 1.94114 24
      vertex -6.49519 -3.75 24
    endloop
  endfacet
  facet normal 0 0 1
    outer loop
      vertex -6.49519 -3.75 24
      vertex -7.24444 1.94114 24
      vertex -7.24444 -1.94114 24
    endloop
  endfacet
  facet normal 0 0 1
    outer loop
      vertex -3.75 -6.49519 24
      vertex -7.24444 1.94114 24
      vertex -5.3033 -5.3033 24
    endloop
  endfacet
  facet normal 0 0 1
    outer loop
      vertex -1.94114 -7.24444 24
      vertex -7.24444 1.94114 24
      vertex -3.75 -6.49519 24
    endloop
  endfacet
  facet normal 0 0 1
    outer loop
      vertex 0 -7.5 24
      vertex -7.24444 1.94114 24
      vertex -1.94114 -7.24444 24
    endloop
  endfacet
  facet normal 0 0 1
    outer loop
      vertex -2.99404 -2.65249 24
      vertex -7.24444 1.94114 24
      vertex 0 -7.5 24
    endloop
  endfacet
  facet normal 0 0 1
    outer loop
      vertex 2.27226 -3.29194 24
      vertex 0.482147 -3.97083 24
      vertex 5.3033 -5.3033 24
    endloop
  endfacet
  facet normal 0 0 1
    outer loop
      vertex 0.482147 -3.97083 24
      vertex -1.41842 -3.74006 24
      vertex 1.94114 -7.24444 24
    endloop
  endfacet
  facet normal 0 0 1
    outer loop
      vertex 3.54182 1.85889 24
      vertex 4 0 24
      vertex 7.5 0 24
    endloop
  endfacet
  facet normal 0 0 1
    outer loop
      vertex -1.41842 3.74006 24
      vertex 0.482147 3.97083 24
      vertex 5.3033 5.3033 24
    endloop
  endfacet
  facet normal 0 0 1
    outer loop
      vertex 1.94114 7.24444 24
      vertex -7.24444 1.94114 24
      vertex 3.75 6.49519 24
    endloop
  endfacet
  facet normal 0 0 1
    outer loop
      vertex 0 7.5 24
      vertex -7.24444 1.94114 24
      vertex 1.94114 7.24444 24
    endloop
  endfacet
  facet normal 0 0 1
    outer loop
      vertex -1.94114 7.24444 24
      vertex -7.24444 1.94114 24
      vertex 0 7.5 24
    endloop
  endfacet
  facet normal 0 0 1
    outer loop
      vertex -3.75 6.49519 24
      vertex -7.24444 1.94114 24
      vertex -1.94114 7.24444 24
    endloop
  endfacet
  facet normal 0 0 1
    outer loop
      vertex -5.3033 5.3033 24
      vertex -7.24444 1.94114 24
      vertex -3.75 6.49519 24
    endloop
  endfacet
  facet normal 0 0 1
    outer loop
      vertex -6.49519 3.75 24
      vertex -7.24444 1.94114 24
      vertex -5.3033 5.3033 24
    endloop
  endfacet
  facet normal 0 0 1
    outer loop
      vertex 3.54182 -1.85889 24
      vertex 2.27226 -3.29194 24
      vertex 6.49519 -3.75 24
    endloop
  endfacet
  facet normal 0 0 1
    outer loop
      vertex 0.482147 -3.97083 24
      vertex 1.94114 -7.24444 24
      vertex 3.75 -6.49519 24
    endloop
  endfacet
  facet normal 0 0 1
    outer loop
      vertex 4 0 24
      vertex 3.54182 -1.85889 24
      vertex 7.24444 -1.94114 24
    endloop
  endfacet
  facet normal 0 0 1
    outer loop
      vertex 2.27226 3.29194 24
      vertex 3.54182 1.85889 24
      vertex 7.24444 1.94114 24
    endloop
  endfacet
  facet normal 0 0 1
    outer loop
      vertex 3.75 6.49519 24
      vertex -1.41842 3.74006 24
      vertex 5.3033 5.3033 24
    endloop
  endfacet
  facet normal 0 0 1
    outer loop
      vertex 3.75 6.49519 24
      vertex -7.24444 1.94114 24
      vertex -1.41842 3.74006 24
    endloop
  endfacet
  facet normal 0 0 1
    outer loop
      vertex 2.27226 3.29194 24
      vertex 7.24444 1.94114 24
      vertex 6.49519 3.75 24
    endloop
  endfacet
  facet normal 0 0 1
    outer loop
      vertex 0.482147 3.97083 24
      vertex 2.27226 3.29194 24
      vertex 5.3033 5.3033 24
    endloop
  endfacet
  facet normal 0 0 1
    outer loop
      vertex 5.3033 5.3033 24
      vertex 2.27226 3.29194 24
      vertex 6.49519 3.75 24
    endloop
  endfacet
  facet normal 0 0 1
    outer loop
      vertex 7.24444 1.94114 24
      vertex 3.54182 1.85889 24
      vertex 7.5 0 24
    endloop
  endfacet
  facet normal 0 0 1
    outer loop
      vertex -2.99404 2.65249 24
      vertex -1.41842 3.74006 24
      vertex -7.24444 1.94114 24
    endloop
  endfacet
  facet normal 0 0 1
    outer loop
      vertex 7.5 0 24
      vertex 4 0 24
      vertex 7.24444 -1.94114 24
    endloop
  endfacet
  facet normal 0 0 1
    outer loop
      vertex 7.24444 -1.94114 24
      vertex 3.54182 -1.85889 24
      vertex 6.49519 -3.75 24
    endloop
  endfacet
  facet normal 0 0 1
    outer loop
      vertex 6.49519 -3.75 24
      vertex 2.27226 -3.29194 24
      vertex 5.3033 -5.3033 24
    endloop
  endfacet
  facet normal 0 0 1
    outer loop
      vertex 5.3033 -5.3033 24
      vertex 0.482147 -3.97083 24
      vertex 3.75 -6.49519 24
    endloop
  endfacet
  facet normal 0 0 1
    outer loop
      vertex 1.94114 -7.24444 24
      vertex -2.99404 -2.65249 24
      vertex 0 -7.5 24
    endloop
  endfacet
  facet normal 0 0 1
    outer loop
      vertex -1.41842 -3.74006 24
      vertex -2.99404 -2.65249 24
      vertex 1.94114 -7.24444 24
    endloop
  endfacet
  facet normal 0 0 1
    outer loop
      vertex -2.99404 -2.65249 24
      vertex -3.88377 -0.957263 24
      vertex -7.24444 1.94114 24
    endloop
  endfacet
  facet normal 0 0 1
    outer loop
      vertex -3.88377 -0.957263 24
      vertex -3.88377 0.957263 24
      vertex -7.24444 1.94114 24
    endloop
  endfacet
  facet normal 0 0 1
    outer loop
      vertex -3.88377 0.957263 24
      vertex -2.99404 2.65249 24
      vertex -7.24444 1.94114 24
    endloop
  endfacet
  facet normal -1 0 0
    outer loop
      vertex -7.0834 -0.973592 2.15
      vertex -7.0834 -0.973592 3.25
      vertex -7.0834 0.973592 2.15
    endloop
  endfacet
  facet normal -1 0 0
    outer loop
      vertex -7.0834 0.973592 2.15
      vertex -7.0834 -0.973592 3.25
      vertex -7.0834 0.973592 3.25
    endloop
  endfacet
  facet normal -0.962917 0.269797 0
    outer loop
      vertex -7.0834 0.973592 2.15
      vertex -7.0834 0.973592 3.25
      vertex -6.55806 2.84857 2.15
    endloop
  endfacet
  facet normal -0.962917 0.269797 0
    outer loop
      vertex -6.55806 2.84857 2.15
      vertex -7.0834 0.973592 3.25
      vertex -6.55806 2.84857 3.25
    endloop
  endfacet
  facet normal -0.962917 -0.269797 0
    outer loop
      vertex -7.0834 -0.973592 2.15
      vertex -6.55806 -2.84857 2.15
      vertex -7.0834 -0.973592 3.25
    endloop
  endfacet
  facet normal -0.962917 -0.269797 0
    outer loop
      vertex -7.0834 -0.973592 3.25
      vertex -6.55806 -2.84857 2.15
      vertex -6.55806 -2.84857 3.25
    endloop
  endfacet
  facet normal -0.854419 -0.519584 0
    outer loop
      vertex -6.55806 -2.84857 2.15
      vertex -5.54634 -4.51228 2.15
      vertex -6.55806 -2.84857 3.25
    endloop
  endfacet
  facet normal -0.854419 -0.519584 0
    outer loop
      vertex -6.55806 -2.84857 3.25
      vertex -5.54634 -4.51228 2.15
      vertex -5.54634 -4.51228 3.25
    endloop
  endfacet
  facet normal -0.682553 -0.730836 0
    outer loop
      vertex -5.54634 -4.51228 3.25
      vertex -5.54634 -4.51228 2.15
      vertex -4.12326 -5.84133 2.15
    endloop
  endfacet
  facet normal -0.682553 -0.730836 0
    outer loop
      vertex -4.12326 -5.84133 3.25
      vertex -5.54634 -4.51228 3.25
      vertex -4.12326 -5.84133 2.15
    endloop
  endfacet
  facet normal -0.460065 -0.887885 0
    outer loop
      vertex -4.12326 -5.84133 3.25
      vertex -4.12326 -5.84133 2.15
      vertex -2.39439 -6.73717 2.15
    endloop
  endfacet
  facet normal -0.460065 -0.887885 0
    outer loop
      vertex -2.39439 -6.73717 3.25
      vertex -4.12326 -5.84133 3.25
      vertex -2.39439 -6.73717 2.15
    endloop
  endfacet
  facet normal -0.203456 -0.979084 0
    outer loop
      vertex -2.39439 -6.73717 3.25
      vertex -2.39439 -6.73717 2.15
      vertex -0.487933 -7.13333 2.15
    endloop
  endfacet
  facet normal -0.203456 -0.979084 0
    outer loop
      vertex -0.487933 -7.13333 3.25
      vertex -2.39439 -6.73717 3.25
      vertex -0.487933 -7.13333 2.15
    endloop
  endfacet
  facet normal 0.0682427 -0.997669 0
    outer loop
      vertex -0.487933 -7.13333 3.25
      vertex -0.487933 -7.13333 2.15
      vertex 1.45471 -7.00045 2.15
    endloop
  endfacet
  facet normal 0.0682427 -0.997669 0
    outer loop
      vertex 1.45471 -7.00045 3.25
      vertex -0.487933 -7.13333 3.25
      vertex 1.45471 -7.00045 2.15
    endloop
  endfacet
  facet normal 0.33488 -0.942261 0
    outer loop
      vertex 1.45471 -7.00045 3.25
      vertex 1.45471 -7.00045 2.15
      vertex 3.28946 -6.34838 2.15
    endloop
  endfacet
  facet normal 0.33488 -0.942261 0
    outer loop
      vertex 3.28946 -6.34838 3.25
      vertex 1.45471 -7.00045 3.25
      vertex 3.28946 -6.34838 2.15
    endloop
  endfacet
  facet normal 0.57668 -0.81697 0
    outer loop
      vertex 3.28946 -6.34838 3.25
      vertex 3.28946 -6.34838 2.15
      vertex 4.88026 -5.22548 2.15
    endloop
  endfacet
  facet normal 0.57668 -0.81697 0
    outer loop
      vertex 4.88026 -5.22548 3.25
      vertex 3.28946 -6.34838 3.25
      vertex 4.88026 -5.22548 2.15
    endloop
  endfacet
  facet normal 0.775711 -0.631088 0
    outer loop
      vertex 4.88026 -5.22548 3.25
      vertex 4.88026 -5.22548 2.15
      vertex 6.1091 -3.71502 2.15
    endloop
  endfacet
  facet normal 0.775711 -0.631088 0
    outer loop
      vertex 6.1091 -3.71502 3.25
      vertex 4.88026 -5.22548 3.25
      vertex 6.1091 -3.71502 2.15
    endloop
  endfacet
  facet normal 0.917211 -0.398401 0
    outer loop
      vertex 6.1091 -3.71502 3.25
      vertex 6.1091 -3.71502 2.15
      vertex 6.88486 -1.92905 2.15
    endloop
  endfacet
  facet normal 0.917211 -0.398401 0
    outer loop
      vertex 6.88486 -1.92905 3.25
      vertex 6.1091 -3.71502 3.25
      vertex 6.88486 -1.92905 2.15
    endloop
  endfacet
  facet normal 0.990686 -0.136166 0
    outer loop
      vertex 6.88486 -1.92905 3.25
      vertex 6.88486 -1.92905 2.15
      vertex 7.15 0 2.15
    endloop
  endfacet
  facet normal 0.990686 -0.136166 0
    outer loop
      vertex 7.15 0 3.25
      vertex 6.88486 -1.92905 3.25
      vertex 7.15 0 2.15
    endloop
  endfacet
  facet normal 0.990686 0.136166 0
    outer loop
      vertex 7.15 0 2.15
      vertex 6.88486 1.92905 2.15
      vertex 6.88486 1.92905 3.25
    endloop
  endfacet
  facet normal 0.990686 0.136166 0
    outer loop
      vertex 7.15 0 3.25
      vertex 7.15 0 2.15
      vertex 6.88486 1.92905 3.25
    endloop
  endfacet
  facet normal 0.917211 0.398401 0
    outer loop
      vertex 6.88486 1.92905 2.15
      vertex 6.1091 3.71502 2.15
      vertex 6.1091 3.71502 3.25
    endloop
  endfacet
  facet normal 0.917211 0.398401 0
    outer loop
      vertex 6.88486 1.92905 3.25
      vertex 6.88486 1.92905 2.15
      vertex 6.1091 3.71502 3.25
    endloop
  endfacet
  facet normal 0.775711 0.631088 0
    outer loop
      vertex 6.1091 3.71502 2.15
      vertex 4.88026 5.22548 2.15
      vertex 4.88026 5.22548 3.25
    endloop
  endfacet
  facet normal 0.775711 0.631088 0
    outer loop
      vertex 6.1091 3.71502 3.25
      vertex 6.1091 3.71502 2.15
      vertex 4.88026 5.22548 3.25
    endloop
  endfacet
  facet normal 0.57668 0.81697 0
    outer loop
      vertex 3.28946 6.34838 2.15
      vertex 3.28946 6.34838 3.25
      vertex 4.88026 5.22548 2.15
    endloop
  endfacet
  facet normal 0.57668 0.81697 0
    outer loop
      vertex 4.88026 5.22548 2.15
      vertex 3.28946 6.34838 3.25
      vertex 4.88026 5.22548 3.25
    endloop
  endfacet
  facet normal 0.33488 0.942261 0
    outer loop
      vertex 1.45471 7.00045 2.15
      vertex 1.45471 7.00045 3.25
      vertex 3.28946 6.34838 2.15
    endloop
  endfacet
  facet normal 0.33488 0.942261 0
    outer loop
      vertex 3.28946 6.34838 2.15
      vertex 1.45471 7.00045 3.25
      vertex 3.28946 6.34838 3.25
    endloop
  endfacet
  facet normal 0.0682427 0.997669 0
    outer loop
      vertex -0.487933 7.13333 2.15
      vertex -0.487933 7.13333 3.25
      vertex 1.45471 7.00045 2.15
    endloop
  endfacet
  facet normal 0.0682427 0.997669 0
    outer loop
      vertex 1.45471 7.00045 2.15
      vertex -0.487933 7.13333 3.25
      vertex 1.45471 7.00045 3.25
    endloop
  endfacet
  facet normal -0.203456 0.979084 0
    outer loop
      vertex -2.39439 6.73717 2.15
      vertex -2.39439 6.73717 3.25
      vertex -0.487933 7.13333 2.15
    endloop
  endfacet
  facet normal -0.203456 0.979084 0
    outer loop
      vertex -0.487933 7.13333 2.15
      vertex -2.39439 6.73717 3.25
      vertex -0.487933 7.13333 3.25
    endloop
  endfacet
  facet normal -0.460065 0.887885 0
    outer loop
      vertex -4.12326 5.84133 2.15
      vertex -4.12326 5.84133 3.25
      vertex -2.39439 6.73717 2.15
    endloop
  endfacet
  facet normal -0.460065 0.887885 0
    outer loop
      vertex -2.39439 6.73717 2.15
      vertex -4.12326 5.84133 3.25
      vertex -2.39439 6.73717 3.25
    endloop
  endfacet
  facet normal -0.682553 0.730836 0
    outer loop
      vertex -5.54634 4.51228 2.15
      vertex -5.54634 4.51228 3.25
      vertex -4.12326 5.84133 2.15
    endloop
  endfacet
  facet normal -0.682553 0.730836 0
    outer loop
      vertex -4.12326 5.84133 2.15
      vertex -5.54634 4.51228 3.25
      vertex -4.12326 5.84133 3.25
    endloop
  endfacet
  facet normal -0.854419 0.519584 0
    outer loop
      vertex -6.55806 2.84857 2.15
      vertex -6.55806 2.84857 3.25
      vertex -5.54634 4.51228 2.15
    endloop
  endfacet
  facet normal -0.854419 0.519584 0
    outer loop
      vertex -5.54634 4.51228 2.15
      vertex -6.55806 2.84857 3.25
      vertex -5.54634 4.51228 3.25
    endloop
  endfacet
  facet normal -0.991445 0.130526 0
    outer loop
      vertex -7.5 0 21.85
      vertex -7.5 0 24
      vertex -7.24444 1.94114 21.85
    endloop
  endfacet
  facet normal -0.991445 0.130526 0
    outer loop
      vertex -7.24444 1.94114 21.85
      vertex -7.5 0 24
      vertex -7.24444 1.94114 24
    endloop
  endfacet
  facet normal -0.92388 0.382683 0
    outer loop
      vertex -7.24444 1.94114 21.85
      vertex -7.24444 1.94114 24
      vertex -6.49519 3.75 21.85
    endloop
  endfacet
  facet normal -0.92388 0.382683 0
    outer loop
      vertex -6.49519 3.75 21.85
      vertex -7.24444 1.94114 24
      vertex -6.49519 3.75 24
    endloop
  endfacet
  facet normal -0.793353 0.608762 0
    outer loop
      vertex -6.49519 3.75 21.85
      vertex -6.49519 3.75 24
      vertex -5.3033 5.3033 21.85
    endloop
  endfacet
  facet normal -0.793353 0.608762 0
    outer loop
      vertex -5.3033 5.3033 21.85
      vertex -6.49519 3.75 24
      vertex -5.3033 5.3033 24
    endloop
  endfacet
  facet normal -0.608762 0.793353 0
    outer loop
      vertex -5.3033 5.3033 21.85
      vertex -5.3033 5.3033 24
      vertex -3.75 6.49519 21.85
    endloop
  endfacet
  facet normal -0.608762 0.793353 0
    outer loop
      vertex -3.75 6.49519 21.85
      vertex -5.3033 5.3033 24
      vertex -3.75 6.49519 24
    endloop
  endfacet
  facet normal -0.382683 0.92388 0
    outer loop
      vertex -3.75 6.49519 21.85
      vertex -3.75 6.49519 24
      vertex -1.94114 7.24444 21.85
    endloop
  endfacet
  facet normal -0.382683 0.92388 0
    outer loop
      vertex -1.94114 7.24444 21.85
      vertex -3.75 6.49519 24
      vertex -1.94114 7.24444 24
    endloop
  endfacet
  facet normal -0.130526 0.991445 0
    outer loop
      vertex -1.94114 7.24444 21.85
      vertex -1.94114 7.24444 24
      vertex 0 7.5 21.85
    endloop
  endfacet
  facet normal -0.130526 0.991445 0
    outer loop
      vertex 0 7.5 21.85
      vertex -1.94114 7.24444 24
      vertex 0 7.5 24
    endloop
  endfacet
  facet normal 0.130526 0.991445 0
    outer loop
      vertex 0 7.5 21.85
      vertex 0 7.5 24
      vertex 1.94114 7.24444 21.85
    endloop
  endfacet
  facet normal 0.130526 0.991445 0
    outer loop
      vertex 1.94114 7.24444 21.85
      vertex 0 7.5 24
      vertex 1.94114 7.24444 24
    endloop
  endfacet
  facet normal 0.382683 0.92388 0
    outer loop
      vertex 1.94114 7.24444 21.85
      vertex 1.94114 7.24444 24
      vertex 3.75 6.49519 21.85
    endloop
  endfacet
  facet normal 0.382683 0.92388 0
    outer loop
      vertex 3.75 6.49519 21.85
      vertex 1.94114 7.24444 24
      vertex 3.75 6.49519 24
    endloop
  endfacet
  facet normal 0.608762 0.793353 0
    outer loop
      vertex 3.75 6.49519 21.85
      vertex 3.75 6.49519 24
      vertex 5.3033 5.3033 21.85
    endloop
  endfacet
  facet normal 0.608762 0.793353 0
    outer loop
      vertex 5.3033 5.3033 21.85
      vertex 3.75 6.49519 24
      vertex 5.3033 5.3033 24
    endloop
  endfacet
  facet normal 0.793353 0.608762 0
    outer loop
      vertex 6.49519 3.75 21.85
      vertex 5.3033 5.3033 21.85
      vertex 5.3033 5.3033 24
    endloop
  endfacet
  facet normal 0.793353 0.608762 0
    outer loop
      vertex 6.49519 3.75 24
      vertex 6.49519 3.75 21.85
      vertex 5.3033 5.3033 24
    endloop
  endfacet
  facet normal 0.92388 0.382683 0
    outer loop
      vertex 7.24444 1.94114 21.85
      vertex 6.49519 3.75 21.85
      vertex 6.49519 3.75 24
    endloop
  endfacet
  facet normal 0.92388 0.382683 0
    outer loop
      vertex 7.24444 1.94114 24
      vertex 7.24444 1.94114 21.85
      vertex 6.49519 3.75 24
    endloop
  endfacet
  facet normal 0.991445 0.130526 0
    outer loop
      vertex 7.5 0 21.85
      vertex 7.24444 1.94114 21.85
      vertex 7.24444 1.94114 24
    endloop
  endfacet
  facet normal 0.991445 0.130526 0
    outer loop
      vertex 7.5 0 24
      vertex 7.5 0 21.85
      vertex 7.24444 1.94114 24
    endloop
  endfacet
  facet normal 0.991445 -0.130526 0
    outer loop
      vertex 7.24444 -1.94114 24
      vertex 7.24444 -1.94114 21.85
      vertex 7.5 0 21.85
    endloop
  endfacet
  facet normal 0.991445 -0.130526 0
    outer loop
      vertex 7.5 0 24
      vertex 7.24444 -1.94114 24
      vertex 7.5 0 21.85
    endloop
  endfacet
  facet normal 0.92388 -0.382683 0
    outer loop
      vertex 6.49519 -3.75 24
      vertex 6.49519 -3.75 21.85
      vertex 7.24444 -1.94114 21.85
    endloop
  endfacet
  facet normal 0.92388 -0.382683 0
    outer loop
      vertex 7.24444 -1.94114 24
      vertex 6.49519 -3.75 24
      vertex 7.24444 -1.94114 21.85
    endloop
  endfacet
  facet normal 0.793353 -0.608762 0
    outer loop
      vertex 5.3033 -5.3033 24
      vertex 5.3033 -5.3033 21.85
      vertex 6.49519 -3.75 21.85
    endloop
  endfacet
  facet normal 0.793353 -0.608762 0
    outer loop
      vertex 6.49519 -3.75 24
      vertex 5.3033 -5.3033 24
      vertex 6.49519 -3.75 21.85
    endloop
  endfacet
  facet normal 0.608762 -0.793353 0
    outer loop
      vertex 3.75 -6.49519 24
      vertex 3.75 -6.49519 21.85
      vertex 5.3033 -5.3033 21.85
    endloop
  endfacet
  facet normal 0.608762 -0.793353 0
    outer loop
      vertex 5.3033 -5.3033 24
      vertex 3.75 -6.49519 24
      vertex 5.3033 -5.3033 21.85
    endloop
  endfacet
  facet normal 0.382683 -0.92388 0
    outer loop
      vertex 1.94114 -7.24444 24
      vertex 1.94114 -7.24444 21.85
      vertex 3.75 -6.49519 21.85
    endloop
  endfacet
  facet normal 0.382683 -0.92388 0
    outer loop
      vertex 3.75 -6.49519 24
      vertex 1.94114 -7.24444 24
      vertex 3.75 -6.49519 21.85
    endloop
  endfacet
  facet normal 0.130526 -0.991445 0
    outer loop
      vertex 0 -7.5 24
      vertex 0 -7.5 21.85
      vertex 1.94114 -7.24444 21.85
    endloop
  endfacet
  facet normal 0.130526 -0.991445 0
    outer loop
      vertex 1.94114 -7.24444 24
      vertex 0 -7.5 24
      vertex 1.94114 -7.24444 21.85
    endloop
  endfacet
  facet normal -0.130526 -0.991445 0
    outer loop
      vertex -1.94114 -7.24444 24
      vertex -1.94114 -7.24444 21.85
      vertex 0 -7.5 21.85
    endloop
  endfacet
  facet normal -0.130526 -0.991445 0
    outer loop
      vertex 0 -7.5 24
      vertex -1.94114 -7.24444 24
      vertex 0 -7.5 21.85
    endloop
  endfacet
  facet normal -0.382683 -0.92388 0
    outer loop
      vertex -3.75 -6.49519 24
      vertex -3.75 -6.49519 21.85
      vertex -1.94114 -7.24444 21.85
    endloop
  endfacet
  facet normal -0.382683 -0.92388 0
    outer loop
      vertex -1.94114 -7.24444 24
      vertex -3.75 -6.49519 24
      vertex -1.94114 -7.24444 21.85
    endloop
  endfacet
  facet normal -0.608762 -0.793353 0
    outer loop
      vertex -5.3033 -5.3033 24
      vertex -5.3033 -5.3033 21.85
      vertex -3.75 -6.49519 21.85
    endloop
  endfacet
  facet normal -0.608762 -0.793353 0
    outer loop
      vertex -3.75 -6.49519 24
      vertex -5.3033 -5.3033 24
      vertex -3.75 -6.49519 21.85
    endloop
  endfacet
  facet normal -0.793353 -0.608762 0
    outer loop
      vertex -6.49519 -3.75 21.85
      vertex -5.3033 -5.3033 21.85
      vertex -6.49519 -3.75 24
    endloop
  endfacet
  facet normal -0.793353 -0.608762 0
    outer loop
      vertex -6.49519 -3.75 24
      vertex -5.3033 -5.3033 21.85
      vertex -5.3033 -5.3033 24
    endloop
  endfacet
  facet normal -0.92388 -0.382683 0
    outer loop
      vertex -7.24444 -1.94114 21.85
      vertex -6.49519 -3.75 21.85
      vertex -7.24444 -1.94114 24
    endloop
  endfacet
  facet normal -0.92388 -0.382683 0
    outer loop
      vertex -7.24444 -1.94114 24
      vertex -6.49519 -3.75 21.85
      vertex -6.49519 -3.75 24
    endloop
  endfacet
  facet normal -0.991445 -0.130526 0
    outer loop
      vertex -7.5 0 21.85
      vertex -7.24444 -1.94114 21.85
      vertex -7.5 0 24
    endloop
  endfacet
  facet normal -0.991445 -0.130526 0
    outer loop
      vertex -7.5 0 24
      vertex -7.24444 -1.94114 21.85
      vertex -7.24444 -1.94114 24
    endloop
  endfacet
  facet normal 0 0 -1
    outer loop
      vertex -6.49519 3.75 3.25
      vertex -5.3033 5.3033 3.25
      vertex -7.24444 1.94114 3.25
    endloop
  endfacet
  facet normal 0 0 -1
    outer loop
      vertex -5.54634 4.51228 3.25
      vertex -5.3033 5.3033 3.25
      vertex -3.75 6.49519 3.25
    endloop
  endfacet
  facet normal 0 0 -1
    outer loop
      vertex -4.12326 5.84133 3.25
      vertex -3.75 6.49519 3.25
      vertex -1.94114 7.24444 3.25
    endloop
  endfacet
  facet normal 0 0 -1
    outer loop
      vertex -0.487933 7.13333 3.25
      vertex -1.94114 7.24444 3.25
      vertex 0 7.5 3.25
    endloop
  endfacet
  facet normal 0 0 -1
    outer loop
      vertex 1.45471 7.00045 3.25
      vertex 0 7.5 3.25
      vertex 1.94114 7.24444 3.25
    endloop
  endfacet
  facet normal 0 0 -1
    outer loop
      vertex 3.28946 6.34838 3.25
      vertex 1.94114 7.24444 3.25
      vertex 3.75 6.49519 3.25
    endloop
  endfacet
  facet normal 0 0 -1
    outer loop
      vertex 4.88026 5.22548 3.25
      vertex 3.75 6.49519 3.25
      vertex 5.3033 5.3033 3.25
    endloop
  endfacet
  facet normal 0 0 -1
    outer loop
      vertex 6.1091 3.71502 3.25
      vertex 5.3033 5.3033 3.25
      vertex 6.49519 3.75 3.25
    endloop
  endfacet
  facet normal 0 0 -1
    outer loop
      vertex 6.88486 1.92905 3.25
      vertex 7.24444 1.94114 3.25
      vertex 7.5 0 3.25
    endloop
  endfacet
  facet normal 0 0 -1
    outer loop
      vertex 7.15 0 3.25
      vertex 7.5 0 3.25
      vertex 7.24444 -1.94114 3.25
    endloop
  endfacet
  facet normal 0 0 -1
    outer loop
      vertex 6.88486 -1.92905 3.25
      vertex 7.24444 -1.94114 3.25
      vertex 6.49519 -3.75 3.25
    endloop
  endfacet
  facet normal 0 0 -1
    outer loop
      vertex 6.1091 -3.71502 3.25
      vertex 6.49519 -3.75 3.25
      vertex 5.3033 -5.3033 3.25
    endloop
  endfacet
  facet normal 0 0 -1
    outer loop
      vertex 4.88026 -5.22548 3.25
      vertex 5.3033 -5.3033 3.25
      vertex 3.75 -6.49519 3.25
    endloop
  endfacet
  facet normal 0 0 -1
    outer loop
      vertex 3.28946 -6.34838 3.25
      vertex 3.75 -6.49519 3.25
      vertex 1.94114 -7.24444 3.25
    endloop
  endfacet
  facet normal 0 0 -1
    outer loop
      vertex 1.45471 -7.00045 3.25
      vertex 1.94114 -7.24444 3.25
      vertex 0 -7.5 3.25
    endloop
  endfacet
  facet normal 0 0 -1
    outer loop
      vertex -0.487933 -7.13333 3.25
      vertex 0 -7.5 3.25
      vertex -1.94114 -7.24444 3.25
    endloop
  endfacet
  facet normal 0 0 -1
    outer loop
      vertex -2.39439 -6.73717 3.25
      vertex -1.94114 -7.24444 3.25
      vertex -3.75 -6.49519 3.25
    endloop
  endfacet
  facet normal 0 0 -1
    outer loop
      vertex -4.12326 -5.84133 3.25
      vertex -3.75 -6.49519 3.25
      vertex -5.3033 -5.3033 3.25
    endloop
  endfacet
  facet normal 0 0 -1
    outer loop
      vertex -6.55806 -2.84857 3.25
      vertex -5.3033 -5.3033 3.25
      vertex -6.49519 -3.75 3.25
    endloop
  endfacet
  facet normal 0 0 -1
    outer loop
      vertex -7.0834 -0.973592 3.25
      vertex -6.49519 -3.75 3.25
      vertex -7.24444 -1.94114 3.25
    endloop
  endfacet
  facet normal 0 0 -1
    outer loop
      vertex -7.24444 1.94114 3.25
      vertex -7.24444 -1.94114 3.25
      vertex -7.5 0 3.25
    endloop
  endfacet
  facet normal 0 0 -1
    outer loop
      vertex -6.55806 -2.84857 3.25
      vertex -6.49519 -3.75 3.25
      vertex -7.0834 -0.973592 3.25
    endloop
  endfacet
  facet normal 0 0 -1
    outer loop
      vertex -7.24444 1.94114 3.25
      vertex -7.0834 -0.973592 3.25
      vertex -7.24444 -1.94114 3.25
    endloop
  endfacet
  facet normal 0 0 -1
    outer loop
      vertex -5.54634 -4.51228 3.25
      vertex -5.3033 -5.3033 3.25
      vertex -6.55806 -2.84857 3.25
    endloop
  endfacet
  facet normal 0 0 -1
    outer loop
      vertex -2.39439 -6.73717 3.25
      vertex -3.75 -6.49519 3.25
      vertex -4.12326 -5.84133 3.25
    endloop
  endfacet
  facet normal 0 0 -1
    outer loop
      vertex -0.487933 -7.13333 3.25
      vertex -1.94114 -7.24444 3.25
      vertex -2.39439 -6.73717 3.25
    endloop
  endfacet
  facet normal 0 0 -1
    outer loop
      vertex 1.45471 -7.00045 3.25
      vertex 0 -7.5 3.25
      vertex -0.487933 -7.13333 3.25
    endloop
  endfacet
  facet normal 0 0 -1
    outer loop
      vertex 3.28946 -6.34838 3.25
      vertex 1.94114 -7.24444 3.25
      vertex 1.45471 -7.00045 3.25
    endloop
  endfacet
  facet normal 0 0 -1
    outer loop
      vertex 4.88026 -5.22548 3.25
      vertex 3.75 -6.49519 3.25
      vertex 3.28946 -6.34838 3.25
    endloop
  endfacet
  facet normal 0 0 -1
    outer loop
      vertex 6.1091 -3.71502 3.25
      vertex 5.3033 -5.3033 3.25
      vertex 4.88026 -5.22548 3.25
    endloop
  endfacet
  facet normal 0 0 -1
    outer loop
      vertex 6.88486 -1.92905 3.25
      vertex 6.49519 -3.75 3.25
      vertex 6.1091 -3.71502 3.25
    endloop
  endfacet
  facet normal 0 0 -1
    outer loop
      vertex 7.15 0 3.25
      vertex 7.24444 -1.94114 3.25
      vertex 6.88486 -1.92905 3.25
    endloop
  endfacet
  facet normal 0 0 -1
    outer loop
      vertex 6.1091 3.71502 3.25
      vertex 7.24444 1.94114 3.25
      vertex 6.88486 1.92905 3.25
    endloop
  endfacet
  facet normal 0 0 -1
    outer loop
      vertex 6.88486 1.92905 3.25
      vertex 7.5 0 3.25
      vertex 7.15 0 3.25
    endloop
  endfacet
  facet normal 0 0 -1
    outer loop
      vertex 6.1091 3.71502 3.25
      vertex 6.49519 3.75 3.25
      vertex 7.24444 1.94114 3.25
    endloop
  endfacet
  facet normal 0 0 -1
    outer loop
      vertex 4.88026 5.22548 3.25
      vertex 5.3033 5.3033 3.25
      vertex 6.1091 3.71502 3.25
    endloop
  endfacet
  facet normal 0 0 -1
    outer loop
      vertex 3.28946 6.34838 3.25
      vertex 3.75 6.49519 3.25
      vertex 4.88026 5.22548 3.25
    endloop
  endfacet
  facet normal 0 0 -1
    outer loop
      vertex 1.45471 7.00045 3.25
      vertex 1.94114 7.24444 3.25
      vertex 3.28946 6.34838 3.25
    endloop
  endfacet
  facet normal 0 0 -1
    outer loop
      vertex -0.487933 7.13333 3.25
      vertex 0 7.5 3.25
      vertex 1.45471 7.00045 3.25
    endloop
  endfacet
  facet normal 0 0 -1
    outer loop
      vertex -2.39439 6.73717 3.25
      vertex -1.94114 7.24444 3.25
      vertex -0.487933 7.13333 3.25
    endloop
  endfacet
  facet normal 0 0 -1
    outer loop
      vertex -4.12326 5.84133 3.25
      vertex -1.94114 7.24444 3.25
      vertex -2.39439 6.73717 3.25
    endloop
  endfacet
  facet normal 0 0 -1
    outer loop
      vertex -5.54634 4.51228 3.25
      vertex -3.75 6.49519 3.25
      vertex -4.12326 5.84133 3.25
    endloop
  endfacet
  facet normal 0 0 -1
    outer loop
      vertex -7.24444 1.94114 3.25
      vertex -5.3033 5.3033 3.25
      vertex -5.54634 4.51228 3.25
    endloop
  endfacet
  facet normal 0 0 -1
    outer loop
      vertex -7.0834 0.973592 3.25
      vertex -7.24444 1.94114 3.25
      vertex -6.55806 2.84857 3.25
    endloop
  endfacet
  facet normal 0 0 -1
    outer loop
      vertex -7.24444 1.94114 3.25
      vertex -5.54634 4.51228 3.25
      vertex -6.55806 2.84857 3.25
    endloop
  endfacet
  facet normal 0 0 -1
    outer loop
      vertex -7.0834 -0.973592 3.25
      vertex -7.24444 1.94114 3.25
      vertex -7.0834 0.973592 3.25
    endloop
  endfacet
  facet normal 0 0 -1
    outer loop
      vertex -4.12326 -5.84133 3.25
      vertex -5.3033 -5.3033 3.25
      vertex -5.54634 -4.51228 3.25
    endloop
  endfacet
  facet normal 0 0 -1
    outer loop
      vertex -6.49519 3.75 21.85
      vertex -5.3033 5.3033 21.85
      vertex -7.24444 1.94114 21.85
    endloop
  endfacet
  facet normal 0 0 -1
    outer loop
      vertex -5.54634 4.51228 21.85
      vertex -5.3033 5.3033 21.85
      vertex -3.75 6.49519 21.85
    endloop
  endfacet
  facet normal 0 0 -1
    outer loop
      vertex -4.12326 5.84133 21.85
      vertex -3.75 6.49519 21.85
      vertex -1.94114 7.24444 21.85
    endloop
  endfacet
  facet normal 0 0 -1
    outer loop
      vertex -0.487933 7.13333 21.85
      vertex -1.94114 7.24444 21.85
      vertex 0 7.5 21.85
    endloop
  endfacet
  facet normal 0 0 -1
    outer loop
      vertex 1.45471 7.00045 21.85
      vertex 0 7.5 21.85
      vertex 1.94114 7.24444 21.85
    endloop
  endfacet
  facet normal 0 0 -1
    outer loop
      vertex 3.28946 6.34838 21.85
      vertex 1.94114 7.24444 21.85
      vertex 3.75 6.49519 21.85
    endloop
  endfacet
  facet normal 0 0 -1
    outer loop
      vertex 4.88026 5.22548 21.85
      vertex 3.75 6.49519 21.85
      vertex 5.3033 5.3033 21.85
    endloop
  endfacet
  facet normal 0 0 -1
    outer loop
      vertex 6.1091 3.71502 21.85
      vertex 5.3033 5.3033 21.85
      vertex 6.49519 3.75 21.85
    endloop
  endfacet
  facet normal 0 0 -1
    outer loop
      vertex 6.88486 1.92905 21.85
      vertex 7.24444 1.94114 21.85
      vertex 7.5 0 21.85
    endloop
  endfacet
  facet normal 0 0 -1
    outer loop
      vertex 7.15 0 21.85
      vertex 7.5 0 21.85
      vertex 7.24444 -1.94114 21.85
    endloop
  endfacet
  facet normal 0 0 -1
    outer loop
      vertex 6.88486 -1.92905 21.85
      vertex 7.24444 -1.94114 21.85
      vertex 6.49519 -3.75 21.85
    endloop
  endfacet
  facet normal 0 0 -1
    outer loop
      vertex 6.1091 -3.71502 21.85
      vertex 6.49519 -3.75 21.85
      vertex 5.3033 -5.3033 21.85
    endloop
  endfacet
  facet normal 0 0 -1
    outer loop
      vertex 4.88026 -5.22548 21.85
      vertex 5.3033 -5.3033 21.85
      vertex 3.75 -6.49519 21.85
    endloop
  endfacet
  facet normal 0 0 -1
    outer loop
      vertex 3.28946 -6.34838 21.85
      vertex 3.75 -6.49519 21.85
      vertex 1.94114 -7.24444 21.85
    endloop
  endfacet
  facet normal 0 0 -1
    outer loop
      vertex 1.45471 -7.00045 21.85
      vertex 1.94114 -7.24444 21.85
      vertex 0 -7.5 21.85
    endloop
  endfacet
  facet normal 0 0 -1
    outer loop
      vertex -0.487933 -7.13333 21.85
      vertex 0 -7.5 21.85
      vertex -1.94114 -7.24444 21.85
    endloop
  endfacet
  facet normal 0 0 -1
    outer loop
      vertex -2.39439 -6.73717 21.85
      vertex -1.94114 -7.24444 21.85
      vertex -3.75 -6.49519 21.85
    endloop
  endfacet
  facet normal 0 0 -1
    outer loop
      vertex -4.12326 -5.84133 21.85
      vertex -3.75 -6.49519 21.85
      vertex -5.3033 -5.3033 21.85
    endloop
  endfacet
  facet normal 0 0 -1
    outer loop
      vertex -6.55806 -2.84857 21.85
      vertex -5.3033 -5.3033 21.85
      vertex -6.49519 -3.75 21.85
    endloop
  endfacet
  facet normal 0 0 -1
    outer loop
      vertex -7.0834 -0.973592 21.85
      vertex -6.49519 -3.75 21.85
      vertex -7.24444 -1.94114 21.85
    endloop
  endfacet
  facet normal 0 0 -1
    outer loop
      vertex -7.24444 1.94114 21.85
      vertex -7.24444 -1.94114 21.85
      vertex -7.5 0 21.85
    endloop
  endfacet
  facet normal 0 0 -1
    outer loop
      vertex -6.55806 -2.84857 21.85
      vertex -6.49519 -3.75 21.85
      vertex -7.0834 -0.973592 21.85
    endloop
  endfacet
  facet normal 0 0 -1
    outer loop
      vertex -7.24444 1.94114 21.85
      vertex -7.0834 -0.973592 21.85
      vertex -7.24444 -1.94114 21.85
    endloop
  endfacet
  facet normal 0 0 -1
    outer loop
      vertex -5.54634 -4.51228 21.85
      vertex -5.3033 -5.3033 21.85
      vertex -6.55806 -2.84857 21.85
    endloop
  endfacet
  facet normal 0 0 -1
    outer loop
      vertex -2.39439 -6.73717 21.85
      vertex -3.75 -6.49519 21.85
      vertex -4.12326 -5.84133 21.85
    endloop
  endfacet
  facet normal 0 0 -1
    outer loop
      vertex -0.487933 -7.13333 21.85
      vertex -1.94114 -7.24444 21.85
      vertex -2.39439 -6.73717 21.85
    endloop
  endfacet
  facet normal 0 0 -1
    outer loop
      vertex 1.45471 -7.00045 21.85
      vertex 0 -7.5 21.85
      vertex -0.487933 -7.13333 21.85
    endloop
  endfacet
  facet normal 0 0 -1
    outer loop
      vertex 3.28946 -6.34838 21.85
      vertex 1.94114 -7.24444 21.85
      vertex 1.45471 -7.00045 21.85
    endloop
  endfacet
  facet normal 0 0 -1
    outer loop
      vertex 4.88026 -5.22548 21.85
      vertex 3.75 -6.49519 21.85
      vertex 3.28946 -6.34838 21.85
    endloop
  endfacet
  facet normal 0 0 -1
    outer loop
      vertex 6.1091 -3.71502 21.85
      vertex 5.3033 -5.3033 21.85
      vertex 4.88026 -5.22548 21.85
    endloop
  endfacet
  facet normal 0 0 -1
    outer loop
      vertex 6.88486 -1.92905 21.85
      vertex 6.49519 -3.75 21.85
      vertex 6.1091 -3.71502 21.85
    endloop
  endfacet
  facet normal 0 0 -1
    outer loop
      vertex 7.15 0 21.85
      vertex 7.24444 -1.94114 21.85
      vertex 6.88486 -1.92905 21.85
    endloop
  endfacet
  facet normal 0 0 -1
    outer loop
      vertex 6.1091 3.71502 21.85
      vertex 7.24444 1.94114 21.85
      vertex 6.88486 1.92905 21.85
    endloop
  endfacet
  facet normal 0 0 -1
    outer loop
      vertex 6.88486 1.92905 21.85
      vertex 7.5 0 21.85
      vertex 7.15 0 21.85
    endloop
  endfacet
  facet normal 0 0 -1
    outer loop
      vertex 6.1091 3.71502 21.85
      vertex 6.49519 3.75 21.85
      vertex 7.24444 1.94114 21.85
    endloop
  endfacet
  facet normal 0 0 -1
    outer loop
      vertex 4.88026 5.22548 21.85
      vertex 5.3033 5.3033 21.85
      vertex 6.1091 3.71502 21.85
    endloop
  endfacet
  facet normal 0 0 -1
    outer loop
      vertex 3.28946 6.34838 21.85
      vertex 3.75 6.49519 21.85
      vertex 4.88026 5.22548 21.85
    endloop
  endfacet
  facet normal 0 0 -1
    outer loop
      vertex 1.45471 7.00045 21.85
      vertex 1.94114 7.24444 21.85
      vertex 3.28946 6.34838 21.85
    endloop
  endfacet
  facet normal 0 0 -1
    outer loop
      vertex -0.487933 7.13333 21.85
      vertex 0 7.5 21.85
      vertex 1.45471 7.00045 21.85
    endloop
  endfacet
  facet normal 0 0 -1
    outer loop
      vertex -2.39439 6.73717 21.85
      vertex -1.94114 7.24444 21.85
      vertex -0.487933 7.13333 21.85
    endloop
  endfacet
  facet normal 0 0 -1
    outer loop
      vertex -4.12326 5.84133 21.85
      vertex -1.94114 7.24444 21.85
      vertex -2.39439 6.73717 21.85
    endloop
  endfacet
  facet normal 0 0 -1
    outer loop
      vertex -5.54634 4.51228 21.85
      vertex -3.75 6.49519 21.85
      vertex -4.12326 5.84133 21.85
    endloop
  endfacet
  facet normal 0 0 -1
    outer loop
      vertex -7.24444 1.94114 21.85
      vertex -5.3033 5.3033 21.85
      vertex -5.54634 4.51228 21.85
    endloop
  endfacet
  facet normal 0 0 -1
    outer loop
      vertex -7.0834 0.973592 21.85
      vertex -7.24444 1.94114 21.85
      vertex -6.55806 2.84857 21.85
    endloop
  endfacet
  facet normal 0 0 -1
    outer loop
      vertex -7.24444 1.94114 21.85
      vertex -5.54634 4.51228 21.85
      vertex -6.55806 2.84857 21.85
    endloop
  endfacet
  facet normal 0 0 -1
    outer loop
      vertex -7.0834 -0.973592 21.85
      vertex -7.24444 1.94114 21.85
      vertex -7.0834 0.973592 21.85
    endloop
  endfacet
  facet normal 0 0 -1
    outer loop
      vertex -4.12326 -5.84133 21.85
      vertex -5.3033 -5.3033 21.85
      vertex -5.54634 -4.51228 21.85
    endloop
  endfacet
  facet normal -0.92388 0.382683 0
    outer loop
      vertex -7.24444 1.94114 3.25
      vertex -7.24444 1.94114 20.75
      vertex -6.49519 3.75 3.25
    endloop
  endfacet
  facet normal -0.92388 0.382683 0
    outer loop
      vertex -6.49519 3.75 3.25
      vertex -7.24444 1.94114 20.75
      vertex -6.49519 3.75 20.75
    endloop
  endfacet
  facet normal -0.991445 0.130526 0
    outer loop
      vertex -7.5 0 3.25
      vertex -7.5 0 20.75
      vertex -7.24444 1.94114 3.25
    endloop
  endfacet
  facet normal -0.991445 0.130526 0
    outer loop
      vertex -7.24444 1.94114 3.25
      vertex -7.5 0 20.75
      vertex -7.24444 1.94114 20.75
    endloop
  endfacet
  facet normal -0.991445 -0.130526 0
    outer loop
      vertex -7.5 0 3.25
      vertex -7.24444 -1.94114 3.25
      vertex -7.5 0 20.75
    endloop
  endfacet
  facet normal -0.991445 -0.130526 0
    outer loop
      vertex -7.5 0 20.75
      vertex -7.24444 -1.94114 3.25
      vertex -7.24444 -1.94114 20.75
    endloop
  endfacet
  facet normal -0.92388 -0.382683 0
    outer loop
      vertex -7.24444 -1.94114 3.25
      vertex -6.49519 -3.75 3.25
      vertex -7.24444 -1.94114 20.75
    endloop
  endfacet
  facet normal -0.92388 -0.382683 0
    outer loop
      vertex -7.24444 -1.94114 20.75
      vertex -6.49519 -3.75 3.25
      vertex -6.49519 -3.75 20.75
    endloop
  endfacet
  facet normal -0.793353 -0.608762 0
    outer loop
      vertex -6.49519 -3.75 3.25
      vertex -5.3033 -5.3033 3.25
      vertex -6.49519 -3.75 20.75
    endloop
  endfacet
  facet normal -0.793353 -0.608762 0
    outer loop
      vertex -6.49519 -3.75 20.75
      vertex -5.3033 -5.3033 3.25
      vertex -5.3033 -5.3033 20.75
    endloop
  endfacet
  facet normal -0.608762 -0.793353 0
    outer loop
      vertex -5.3033 -5.3033 20.75
      vertex -5.3033 -5.3033 3.25
      vertex -3.75 -6.49519 3.25
    endloop
  endfacet
  facet normal -0.608762 -0.793353 0
    outer loop
      vertex -3.75 -6.49519 20.75
      vertex -5.3033 -5.3033 20.75
      vertex -3.75 -6.49519 3.25
    endloop
  endfacet
  facet normal -0.382683 -0.92388 0
    outer loop
      vertex -3.75 -6.49519 20.75
      vertex -3.75 -6.49519 3.25
      vertex -1.94114 -7.24444 3.25
    endloop
  endfacet
  facet normal -0.382683 -0.92388 0
    outer loop
      vertex -1.94114 -7.24444 20.75
      vertex -3.75 -6.49519 20.75
      vertex -1.94114 -7.24444 3.25
    endloop
  endfacet
  facet normal -0.130526 -0.991445 0
    outer loop
      vertex -1.94114 -7.24444 20.75
      vertex -1.94114 -7.24444 3.25
      vertex 0 -7.5 3.25
    endloop
  endfacet
  facet normal -0.130526 -0.991445 0
    outer loop
      vertex 0 -7.5 20.75
      vertex -1.94114 -7.24444 20.75
      vertex 0 -7.5 3.25
    endloop
  endfacet
  facet normal 0.130526 -0.991445 0
    outer loop
      vertex 0 -7.5 20.75
      vertex 0 -7.5 3.25
      vertex 1.94114 -7.24444 3.25
    endloop
  endfacet
  facet normal 0.130526 -0.991445 0
    outer loop
      vertex 1.94114 -7.24444 20.75
      vertex 0 -7.5 20.75
      vertex 1.94114 -7.24444 3.25
    endloop
  endfacet
  facet normal 0.382683 -0.92388 0
    outer loop
      vertex 1.94114 -7.24444 20.75
      vertex 1.94114 -7.24444 3.25
      vertex 3.75 -6.49519 3.25
    endloop
  endfacet
  facet normal 0.382683 -0.92388 0
    outer loop
      vertex 3.75 -6.49519 20.75
      vertex 1.94114 -7.24444 20.75
      vertex 3.75 -6.49519 3.25
    endloop
  endfacet
  facet normal 0.608762 -0.793353 0
    outer loop
      vertex 3.75 -6.49519 20.75
      vertex 3.75 -6.49519 3.25
      vertex 5.3033 -5.3033 3.25
    endloop
  endfacet
  facet normal 0.608762 -0.793353 0
    outer loop
      vertex 5.3033 -5.3033 20.75
      vertex 3.75 -6.49519 20.75
      vertex 5.3033 -5.3033 3.25
    endloop
  endfacet
  facet normal 0.793353 -0.608762 0
    outer loop
      vertex 5.3033 -5.3033 20.75
      vertex 5.3033 -5.3033 3.25
      vertex 6.49519 -3.75 3.25
    endloop
  endfacet
  facet normal 0.793353 -0.608762 0
    outer loop
      vertex 6.49519 -3.75 20.75
      vertex 5.3033 -5.3033 20.75
      vertex 6.49519 -3.75 3.25
    endloop
  endfacet
  facet normal 0.92388 -0.382683 0
    outer loop
      vertex 6.49519 -3.75 20.75
      vertex 6.49519 -3.75 3.25
      vertex 7.24444 -1.94114 3.25
    endloop
  endfacet
  facet normal 0.92388 -0.382683 0
    outer loop
      vertex 7.24444 -1.94114 20.75
      vertex 6.49519 -3.75 20.75
      vertex 7.24444 -1.94114 3.25
    endloop
  endfacet
  facet normal 0.991445 -0.130526 0
    outer loop
      vertex 7.24444 -1.94114 20.75
      vertex 7.24444 -1.94114 3.25
      vertex 7.5 0 3.25
    endloop
  endfacet
  facet normal 0.991445 -0.130526 0
    outer loop
      vertex 7.5 0 20.75
      vertex 7.24444 -1.94114 20.75
      vertex 7.5 0 3.25
    endloop
  endfacet
  facet normal 0.991445 0.130526 0
    outer loop
      vertex 7.5 0 3.25
      vertex 7.24444 1.94114 3.25
      vertex 7.24444 1.94114 20.75
    endloop
  endfacet
  facet normal 0.991445 0.130526 0
    outer loop
      vertex 7.5 0 20.75
      vertex 7.5 0 3.25
      vertex 7.24444 1.94114 20.75
    endloop
  endfacet
  facet normal 0.92388 0.382683 0
    outer loop
      vertex 7.24444 1.94114 3.25
      vertex 6.49519 3.75 3.25
      vertex 6.49519 3.75 20.75
    endloop
  endfacet
  facet normal 0.92388 0.382683 0
    outer loop
      vertex 7.24444 1.94114 20.75
      vertex 7.24444 1.94114 3.25
      vertex 6.49519 3.75 20.75
    endloop
  endfacet
  facet normal 0.793353 0.608762 0
    outer loop
      vertex 6.49519 3.75 3.25
      vertex 5.3033 5.3033 3.25
      vertex 5.3033 5.3033 20.75
    endloop
  endfacet
  facet normal 0.793353 0.608762 0
    outer loop
      vertex 6.49519 3.75 20.75
      vertex 6.49519 3.75 3.25
      vertex 5.3033 5.3033 20.75
    endloop
  endfacet
  facet normal 0.608762 0.793353 0
    outer loop
      vertex 3.75 6.49519 3.25
      vertex 3.75 6.49519 20.75
      vertex 5.3033 5.3033 3.25
    endloop
  endfacet
  facet normal 0.608762 0.793353 0
    outer loop
      vertex 5.3033 5.3033 3.25
      vertex 3.75 6.49519 20.75
      vertex 5.3033 5.3033 20.75
    endloop
  endfacet
  facet normal 0.382683 0.92388 0
    outer loop
      vertex 1.94114 7.24444 3.25
      vertex 1.94114 7.24444 20.75
      vertex 3.75 6.49519 3.25
    endloop
  endfacet
  facet normal 0.382683 0.92388 0
    outer loop
      vertex 3.75 6.49519 3.25
      vertex 1.94114 7.24444 20.75
      vertex 3.75 6.49519 20.75
    endloop
  endfacet
  facet normal 0.130526 0.991445 0
    outer loop
      vertex 0 7.5 3.25
      vertex 0 7.5 20.75
      vertex 1.94114 7.24444 3.25
    endloop
  endfacet
  facet normal 0.130526 0.991445 0
    outer loop
      vertex 1.94114 7.24444 3.25
      vertex 0 7.5 20.75
      vertex 1.94114 7.24444 20.75
    endloop
  endfacet
  facet normal -0.130526 0.991445 0
    outer loop
      vertex -1.94114 7.24444 3.25
      vertex -1.94114 7.24444 20.75
      vertex 0 7.5 3.25
    endloop
  endfacet
  facet normal -0.130526 0.991445 0
    outer loop
      vertex 0 7.5 3.25
      vertex -1.94114 7.24444 20.75
      vertex 0 7.5 20.75
    endloop
  endfacet
  facet normal -0.382683 0.92388 0
    outer loop
      vertex -3.75 6.49519 3.25
      vertex -3.75 6.49519 20.75
      vertex -1.94114 7.24444 3.25
    endloop
  endfacet
  facet normal -0.382683 0.92388 0
    outer loop
      vertex -1.94114 7.24444 3.25
      vertex -3.75 6.49519 20.75
      vertex -1.94114 7.24444 20.75
    endloop
  endfacet
  facet normal -0.608762 0.793353 0
    outer loop
      vertex -5.3033 5.3033 3.25
      vertex -5.3033 5.3033 20.75
      vertex -3.75 6.49519 3.25
    endloop
  endfacet
  facet normal -0.608762 0.793353 0
    outer loop
      vertex -3.75 6.49519 3.25
      vertex -5.3033 5.3033 20.75
      vertex -3.75 6.49519 20.75
    endloop
  endfacet
  facet normal -0.793353 0.608762 0
    outer loop
      vertex -6.49519 3.75 3.25
      vertex -6.49519 3.75 20.75
      vertex -5.3033 5.3033 3.25
    endloop
  endfacet
  facet normal -0.793353 0.608762 0
    outer loop
      vertex -5.3033 5.3033 3.25
      vertex -6.49519 3.75 20.75
      vertex -5.3033 5.3033 20.75
    endloop
  endfacet
  facet normal -1 0 0
    outer loop
      vertex -7.0834 -0.973592 20.75
      vertex -7.0834 -0.973592 21.85
      vertex -7.0834 0.973592 20.75
    endloop
  endfacet
  facet normal -1 0 0
    outer loop
      vertex -7.0834 0.973592 20.75
      vertex -7.0834 -0.973592 21.85
      vertex -7.0834 0.973592 21.85
    endloop
  endfacet
  facet normal -0.962917 -0.269797 0
    outer loop
      vertex -7.0834 -0.973592 20.75
      vertex -6.55806 -2.84857 20.75
      vertex -7.0834 -0.973592 21.85
    endloop
  endfacet
  facet normal -0.962917 -0.269797 0
    outer loop
      vertex -7.0834 -0.973592 21.85
      vertex -6.55806 -2.84857 20.75
      vertex -6.55806 -2.84857 21.85
    endloop
  endfacet
  facet normal -0.962917 0.269797 0
    outer loop
      vertex -7.0834 0.973592 20.75
      vertex -7.0834 0.973592 21.85
      vertex -6.55806 2.84857 20.75
    endloop
  endfacet
  facet normal -0.962917 0.269797 0
    outer loop
      vertex -6.55806 2.84857 20.75
      vertex -7.0834 0.973592 21.85
      vertex -6.55806 2.84857 21.85
    endloop
  endfacet
  facet normal -0.854419 0.519584 0
    outer loop
      vertex -6.55806 2.84857 20.75
      vertex -6.55806 2.84857 21.85
      vertex -5.54634 4.51228 20.75
    endloop
  endfacet
  facet normal -0.854419 0.519584 0
    outer loop
      vertex -5.54634 4.51228 20.75
      vertex -6.55806 2.84857 21.85
      vertex -5.54634 4.51228 21.85
    endloop
  endfacet
  facet normal -0.682553 0.730836 0
    outer loop
      vertex -5.54634 4.51228 20.75
      vertex -5.54634 4.51228 21.85
      vertex -4.12326 5.84133 20.75
    endloop
  endfacet
  facet normal -0.682553 0.730836 0
    outer loop
      vertex -4.12326 5.84133 20.75
      vertex -5.54634 4.51228 21.85
      vertex -4.12326 5.84133 21.85
    endloop
  endfacet
  facet normal -0.460065 0.887885 0
    outer loop
      vertex -4.12326 5.84133 20.75
      vertex -4.12326 5.84133 21.85
      vertex -2.39439 6.73717 20.75
    endloop
  endfacet
  facet normal -0.460065 0.887885 0
    outer loop
      vertex -2.39439 6.73717 20.75
      vertex -4.12326 5.84133 21.85
      vertex -2.39439 6.73717 21.85
    endloop
  endfacet
  facet normal -0.203456 0.979084 0
    outer loop
      vertex -2.39439 6.73717 20.75
      vertex -2.39439 6.73717 21.85
      vertex -0.487933 7.13333 20.75
    endloop
  endfacet
  facet normal -0.203456 0.979084 0
    outer loop
      vertex -0.487933 7.13333 20.75
      vertex -2.39439 6.73717 21.85
      vertex -0.487933 7.13333 21.85
    endloop
  endfacet
  facet normal 0.0682427 0.997669 0
    outer loop
      vertex -0.487933 7.13333 20.75
      vertex -0.487933 7.13333 21.85
      vertex 1.45471 7.00045 20.75
    endloop
  endfacet
  facet normal 0.0682427 0.997669 0
    outer loop
      vertex 1.45471 7.00045 20.75
      vertex -0.487933 7.13333 21.85
      vertex 1.45471 7.00045 21.85
    endloop
  endfacet
  facet normal 0.33488 0.942261 0
    outer loop
      vertex 1.45471 7.00045 20.75
      vertex 1.45471 7.00045 21.85
      vertex 3.28946 6.34838 20.75
    endloop
  endfacet
  facet normal 0.33488 0.942261 0
    outer loop
      vertex 3.28946 6.34838 20.75
      vertex 1.45471 7.00045 21.85
      vertex 3.28946 6.34838 21.85
    endloop
  endfacet
  facet normal 0.57668 0.81697 0
    outer loop
      vertex 3.28946 6.34838 20.75
      vertex 3.28946 6.34838 21.85
      vertex 4.88026 5.22548 20.75
    endloop
  endfacet
  facet normal 0.57668 0.81697 0
    outer loop
      vertex 4.88026 5.22548 20.75
      vertex 3.28946 6.34838 21.85
      vertex 4.88026 5.22548 21.85
    endloop
  endfacet
  facet normal 0.775711 0.631088 0
    outer loop
      vertex 6.1091 3.71502 20.75
      vertex 4.88026 5.22548 20.75
      vertex 4.88026 5.22548 21.85
    endloop
  endfacet
  facet normal 0.775711 0.631088 0
    outer loop
      vertex 6.1091 3.71502 21.85
      vertex 6.1091 3.71502 20.75
      vertex 4.88026 5.22548 21.85
    endloop
  endfacet
  facet normal 0.917211 0.398401 0
    outer loop
      vertex 6.88486 1.92905 20.75
      vertex 6.1091 3.71502 20.75
      vertex 6.1091 3.71502 21.85
    endloop
  endfacet
  facet normal 0.917211 0.398401 0
    outer loop
      vertex 6.88486 1.92905 21.85
      vertex 6.88486 1.92905 20.75
      vertex 6.1091 3.71502 21.85
    endloop
  endfacet
  facet normal 0.990686 0.136166 0
    outer loop
      vertex 7.15 0 20.75
      vertex 6.88486 1.92905 20.75
      vertex 6.88486 1.92905 21.85
    endloop
  endfacet
  facet normal 0.990686 0.136166 0
    outer loop
      vertex 7.15 0 21.85
      vertex 7.15 0 20.75
      vertex 6.88486 1.92905 21.85
    endloop
  endfacet
  facet normal 0.990686 -0.136166 0
    outer loop
      vertex 6.88486 -1.92905 21.85
      vertex 6.88486 -1.92905 20.75
      vertex 7.15 0 20.75
    endloop
  endfacet
  facet normal 0.990686 -0.136166 0
    outer loop
      vertex 7.15 0 21.85
      vertex 6.88486 -1.92905 21.85
      vertex 7.15 0 20.75
    endloop
  endfacet
  facet normal 0.917211 -0.398401 0
    outer loop
      vertex 6.1091 -3.71502 21.85
      vertex 6.1091 -3.71502 20.75
      vertex 6.88486 -1.92905 20.75
    endloop
  endfacet
  facet normal 0.917211 -0.398401 0
    outer loop
      vertex 6.88486 -1.92905 21.85
      vertex 6.1091 -3.71502 21.85
      vertex 6.88486 -1.92905 20.75
    endloop
  endfacet
  facet normal 0.775711 -0.631088 0
    outer loop
      vertex 4.88026 -5.22548 21.85
      vertex 4.88026 -5.22548 20.75
      vertex 6.1091 -3.71502 20.75
    endloop
  endfacet
  facet normal 0.775711 -0.631088 0
    outer loop
      vertex 6.1091 -3.71502 21.85
      vertex 4.88026 -5.22548 21.85
      vertex 6.1091 -3.71502 20.75
    endloop
  endfacet
  facet normal 0.57668 -0.81697 0
    outer loop
      vertex 3.28946 -6.34838 21.85
      vertex 3.28946 -6.34838 20.75
      vertex 4.88026 -5.22548 20.75
    endloop
  endfacet
  facet normal 0.57668 -0.81697 0
    outer loop
      vertex 4.88026 -5.22548 21.85
      vertex 3.28946 -6.34838 21.85
      vertex 4.88026 -5.22548 20.75
    endloop
  endfacet
  facet normal 0.33488 -0.942261 0
    outer loop
      vertex 1.45471 -7.00045 21.85
      vertex 1.45471 -7.00045 20.75
      vertex 3.28946 -6.34838 20.75
    endloop
  endfacet
  facet normal 0.33488 -0.942261 0
    outer loop
      vertex 3.28946 -6.34838 21.85
      vertex 1.45471 -7.00045 21.85
      vertex 3.28946 -6.34838 20.75
    endloop
  endfacet
  facet normal 0.0682427 -0.997669 0
    outer loop
      vertex -0.487933 -7.13333 21.85
      vertex -0.487933 -7.13333 20.75
      vertex 1.45471 -7.00045 20.75
    endloop
  endfacet
  facet normal 0.0682427 -0.997669 0
    outer loop
      vertex 1.45471 -7.00045 21.85
      vertex -0.487933 -7.13333 21.85
      vertex 1.45471 -7.00045 20.75
    endloop
  endfacet
  facet normal -0.203456 -0.979084 0
    outer loop
      vertex -2.39439 -6.73717 21.85
      vertex -2.39439 -6.73717 20.75
      vertex -0.487933 -7.13333 20.75
    endloop
  endfacet
  facet normal -0.203456 -0.979084 0
    outer loop
      vertex -0.487933 -7.13333 21.85
      vertex -2.39439 -6.73717 21.85
      vertex -0.487933 -7.13333 20.75
    endloop
  endfacet
  facet normal -0.460065 -0.887885 0
    outer loop
      vertex -4.12326 -5.84133 21.85
      vertex -4.12326 -5.84133 20.75
      vertex -2.39439 -6.73717 20.75
    endloop
  endfacet
  facet normal -0.460065 -0.887885 0
    outer loop
      vertex -2.39439 -6.73717 21.85
      vertex -4.12326 -5.84133 21.85
      vertex -2.39439 -6.73717 20.75
    endloop
  endfacet
  facet normal -0.682553 -0.730836 0
    outer loop
      vertex -5.54634 -4.51228 21.85
      vertex -5.54634 -4.51228 20.75
      vertex -4.12326 -5.84133 20.75
    endloop
  endfacet
  facet normal -0.682553 -0.730836 0
    outer loop
      vertex -4.12326 -5.84133 21.85
      vertex -5.54634 -4.51228 21.85
      vertex -4.12326 -5.84133 20.75
    endloop
  endfacet
  facet normal -0.854419 -0.519584 0
    outer loop
      vertex -6.55806 -2.84857 20.75
      vertex -5.54634 -4.51228 20.75
      vertex -6.55806 -2.84857 21.85
    endloop
  endfacet
  facet normal -0.854419 -0.519584 0
    outer loop
      vertex -6.55806 -2.84857 21.85
      vertex -5.54634 -4.51228 20.75
      vertex -5.54634 -4.51228 21.85
    endloop
  endfacet
  facet normal 0 0 1
    outer loop
      vertex -7.24444 -1.94114 20.75
      vertex -6.49519 -3.75 20.75
      vertex -5.3033 -5.3033 20.75
    endloop
  endfacet
  facet normal 0 0 1
    outer loop
      vertex -5.54634 -4.51228 20.75
      vertex -7.24444 -1.94114 20.75
      vertex -5.3033 -5.3033 20.75
    endloop
  endfacet
  facet normal 0 0 1
    outer loop
      vertex -2.39439 -6.73717 20.75
      vertex -4.12326 -5.84133 20.75
      vertex -1.94114 -7.24444 20.75
    endloop
  endfacet
  facet normal 0 0 1
    outer loop
      vertex 1.45471 -7.00045 20.75
      vertex -0.487933 -7.13333 20.75
      vertex 0 -7.5 20.75
    endloop
  endfacet
  facet normal 0 0 1
    outer loop
      vertex 3.28946 -6.34838 20.75
      vertex 1.45471 -7.00045 20.75
      vertex 1.94114 -7.24444 20.75
    endloop
  endfacet
  facet normal 0 0 1
    outer loop
      vertex 4.88026 -5.22548 20.75
      vertex 3.28946 -6.34838 20.75
      vertex 3.75 -6.49519 20.75
    endloop
  endfacet
  facet normal 0 0 1
    outer loop
      vertex 6.1091 -3.71502 20.75
      vertex 4.88026 -5.22548 20.75
      vertex 5.3033 -5.3033 20.75
    endloop
  endfacet
  facet normal 0 0 1
    outer loop
      vertex -4.12326 -5.84133 20.75
      vertex -5.54634 -4.51228 20.75
      vertex -3.75 -6.49519 20.75
    endloop
  endfacet
  facet normal 0 0 1
    outer loop
      vertex 6.88486 -1.92905 20.75
      vertex 6.49519 -3.75 20.75
      vertex 7.24444 -1.94114 20.75
    endloop
  endfacet
  facet normal 0 0 1
    outer loop
      vertex 7.15 0 20.75
      vertex 6.88486 -1.92905 20.75
      vertex 7.5 0 20.75
    endloop
  endfacet
  facet normal 0 0 1
    outer loop
      vertex 6.88486 1.92905 20.75
      vertex 7.15 0 20.75
      vertex 7.24444 1.94114 20.75
    endloop
  endfacet
  facet normal 0 0 1
    outer loop
      vertex 6.1091 3.71502 20.75
      vertex 6.88486 1.92905 20.75
      vertex 6.49519 3.75 20.75
    endloop
  endfacet
  facet normal 0 0 1
    outer loop
      vertex 4.88026 5.22548 20.75
      vertex 6.1091 3.71502 20.75
      vertex 5.3033 5.3033 20.75
    endloop
  endfacet
  facet normal 0 0 1
    outer loop
      vertex 3.28946 6.34838 20.75
      vertex 4.88026 5.22548 20.75
      vertex 3.75 6.49519 20.75
    endloop
  endfacet
  facet normal 0 0 1
    outer loop
      vertex 1.45471 7.00045 20.75
      vertex 3.28946 6.34838 20.75
      vertex 1.94114 7.24444 20.75
    endloop
  endfacet
  facet normal 0 0 1
    outer loop
      vertex -0.487933 7.13333 20.75
      vertex 1.45471 7.00045 20.75
      vertex 0 7.5 20.75
    endloop
  endfacet
  facet normal 0 0 1
    outer loop
      vertex -2.39439 6.73717 20.75
      vertex -0.487933 7.13333 20.75
      vertex -1.94114 7.24444 20.75
    endloop
  endfacet
  facet normal 0 0 1
    outer loop
      vertex -4.12326 5.84133 20.75
      vertex -2.39439 6.73717 20.75
      vertex -3.75 6.49519 20.75
    endloop
  endfacet
  facet normal 0 0 1
    outer loop
      vertex -7.5 0 20.75
      vertex -7.24444 -1.94114 20.75
      vertex -7.24444 1.94114 20.75
    endloop
  endfacet
  facet normal 0 0 1
    outer loop
      vertex -7.24444 1.94114 20.75
      vertex -7.0834 0.973592 20.75
      vertex -6.49519 3.75 20.75
    endloop
  endfacet
  facet normal 0 0 1
    outer loop
      vertex -7.24444 1.94114 20.75
      vertex -7.24444 -1.94114 20.75
      vertex -7.0834 0.973592 20.75
    endloop
  endfacet
  facet normal 0 0 1
    outer loop
      vertex -6.49519 3.75 20.75
      vertex -6.55806 2.84857 20.75
      vertex -5.3033 5.3033 20.75
    endloop
  endfacet
  facet normal 0 0 1
    outer loop
      vertex -5.54634 4.51228 20.75
      vertex -4.12326 5.84133 20.75
      vertex -5.3033 5.3033 20.75
    endloop
  endfacet
  facet normal 0 0 1
    outer loop
      vertex -6.55806 2.84857 20.75
      vertex -5.54634 4.51228 20.75
      vertex -5.3033 5.3033 20.75
    endloop
  endfacet
  facet normal 0 0 1
    outer loop
      vertex -5.3033 5.3033 20.75
      vertex -4.12326 5.84133 20.75
      vertex -3.75 6.49519 20.75
    endloop
  endfacet
  facet normal 0 0 1
    outer loop
      vertex -3.75 6.49519 20.75
      vertex -2.39439 6.73717 20.75
      vertex -1.94114 7.24444 20.75
    endloop
  endfacet
  facet normal 0 0 1
    outer loop
      vertex -1.94114 7.24444 20.75
      vertex -0.487933 7.13333 20.75
      vertex 0 7.5 20.75
    endloop
  endfacet
  facet normal 0 0 1
    outer loop
      vertex 0 7.5 20.75
      vertex 1.45471 7.00045 20.75
      vertex 1.94114 7.24444 20.75
    endloop
  endfacet
  facet normal 0 0 1
    outer loop
      vertex 1.94114 7.24444 20.75
      vertex 3.28946 6.34838 20.75
      vertex 3.75 6.49519 20.75
    endloop
  endfacet
  facet normal 0 0 1
    outer loop
      vertex 3.75 6.49519 20.75
      vertex 4.88026 5.22548 20.75
      vertex 5.3033 5.3033 20.75
    endloop
  endfacet
  facet normal 0 0 1
    outer loop
      vertex 5.3033 5.3033 20.75
      vertex 6.1091 3.71502 20.75
      vertex 6.49519 3.75 20.75
    endloop
  endfacet
  facet normal 0 0 1
    outer loop
      vertex 6.49519 3.75 20.75
      vertex 6.88486 1.92905 20.75
      vertex 7.24444 1.94114 20.75
    endloop
  endfacet
  facet normal 0 0 1
    outer loop
      vertex 7.24444 1.94114 20.75
      vertex 7.15 0 20.75
      vertex 7.5 0 20.75
    endloop
  endfacet
  facet normal 0 0 1
    outer loop
      vertex 7.5 0 20.75
      vertex 6.88486 -1.92905 20.75
      vertex 7.24444 -1.94114 20.75
    endloop
  endfacet
  facet normal 0 0 1
    outer loop
      vertex 6.49519 -3.75 20.75
      vertex 6.1091 -3.71502 20.75
      vertex 5.3033 -5.3033 20.75
    endloop
  endfacet
  facet normal 0 0 1
    outer loop
      vertex 5.3033 -5.3033 20.75
      vertex 4.88026 -5.22548 20.75
      vertex 3.75 -6.49519 20.75
    endloop
  endfacet
  facet normal 0 0 1
    outer loop
      vertex 3.75 -6.49519 20.75
      vertex 3.28946 -6.34838 20.75
      vertex 1.94114 -7.24444 20.75
    endloop
  endfacet
  facet normal 0 0 1
    outer loop
      vertex 1.94114 -7.24444 20.75
      vertex 1.45471 -7.00045 20.75
      vertex 0 -7.5 20.75
    endloop
  endfacet
  facet normal 0 0 1
    outer loop
      vertex 0 -7.5 20.75
      vertex -0.487933 -7.13333 20.75
      vertex -1.94114 -7.24444 20.75
    endloop
  endfacet
  facet normal 0 0 1
    outer loop
      vertex -0.487933 -7.13333 20.75
      vertex -2.39439 -6.73717 20.75
      vertex -1.94114 -7.24444 20.75
    endloop
  endfacet
  facet normal 0 0 1
    outer loop
      vertex -1.94114 -7.24444 20.75
      vertex -4.12326 -5.84133 20.75
      vertex -3.75 -6.49519 20.75
    endloop
  endfacet
  facet normal 0 0 1
    outer loop
      vertex -3.75 -6.49519 20.75
      vertex -5.54634 -4.51228 20.75
      vertex -5.3033 -5.3033 20.75
    endloop
  endfacet
  facet normal 0 0 1
    outer loop
      vertex -6.55806 -2.84857 20.75
      vertex -7.24444 -1.94114 20.75
      vertex -5.54634 -4.51228 20.75
    endloop
  endfacet
  facet normal 0 0 1
    outer loop
      vertex 6.88486 -1.92905 20.75
      vertex 6.1091 -3.71502 20.75
      vertex 6.49519 -3.75 20.75
    endloop
  endfacet
  facet normal 0 0 1
    outer loop
      vertex -7.0834 0.973592 20.75
      vertex -6.55806 2.84857 20.75
      vertex -6.49519 3.75 20.75
    endloop
  endfacet
  facet normal 0 0 1
    outer loop
      vertex -7.0834 -0.973592 20.75
      vertex -7.0834 0.973592 20.75
      vertex -7.24444 -1.94114 20.75
    endloop
  endfacet
  facet normal 0 0 1
    outer loop
      vertex -6.55806 -2.84857 20.75
      vertex -7.0834 -0.973592 20.75
      vertex -7.24444 -1.94114 20.75
    endloop
  endfacet
endsolid OpenSCAD_Model
