solid OpenSCAD_Model
  facet normal 0 0 -1
    outer loop
      vertex -83.1425 17.6725 0
      vertex -77.6514 34.5726 0
      vertex -85 0 0
    endloop
  endfacet
  facet normal 0 0 -1
    outer loop
      vertex -85 0 0
      vertex -77.6514 34.5726 0
      vertex -68.7664 49.9617 0
    endloop
  endfacet
  facet normal 0 0 -1
    outer loop
      vertex -85 0 0
      vertex -68.7664 49.9617 0
      vertex -56.8761 63.1673 0
    endloop
  endfacet
  facet normal 0 0 -1
    outer loop
      vertex -85 0 0
      vertex -56.8761 63.1673 0
      vertex -42.5 73.6122 0
    endloop
  endfacet
  facet normal 0 0 -1
    outer loop
      vertex -85 0 0
      vertex -42.5 73.6122 0
      vertex -26.2664 80.8398 0
    endloop
  endfacet
  facet normal 0 0 -1
    outer loop
      vertex -85 0 0
      vertex -26.2664 80.8398 0
      vertex -8.88492 84.5344 0
    endloop
  endfacet
  facet normal 0 0 -1
    outer loop
      vertex -85 0 0
      vertex -8.88492 84.5344 0
      vertex 8.88492 84.5344 0
    endloop
  endfacet
  facet normal 0 0 -1
    outer loop
      vertex -85 0 0
      vertex 8.88492 84.5344 0
      vertex 26.2664 80.8398 0
    endloop
  endfacet
  facet normal 0 0 -1
    outer loop
      vertex -85 0 0
      vertex 26.2664 80.8398 0
      vertex 42.5 73.6122 0
    endloop
  endfacet
  facet normal 0 0 -1
    outer loop
      vertex -85 0 0
      vertex 42.5 73.6122 0
      vertex 56.8761 63.1673 0
    endloop
  endfacet
  facet normal 0 0 -1
    outer loop
      vertex -85 0 0
      vertex 56.8761 63.1673 0
      vertex 68.7664 49.9617 0
    endloop
  endfacet
  facet normal 0 0 -1
    outer loop
      vertex -85 0 0
      vertex 68.7664 49.9617 0
      vertex 77.6514 34.5726 0
    endloop
  endfacet
  facet normal 0 0 -1
    outer loop
      vertex -85 0 0
      vertex 77.6514 34.5726 0
      vertex 83.1425 17.6725 0
    endloop
  endfacet
  facet normal 0 0 -1
    outer loop
      vertex -85 0 0
      vertex 83.1425 17.6725 0
      vertex 85 0 0
    endloop
  endfacet
  facet normal 0 0 -1
    outer loop
      vertex -85 0 0
      vertex 85 0 0
      vertex 83.1425 -17.6725 0
    endloop
  endfacet
  facet normal 0 0 -1
    outer loop
      vertex -85 0 0
      vertex 83.1425 -17.6725 0
      vertex 77.6514 -34.5726 0
    endloop
  endfacet
  facet normal 0 0 -1
    outer loop
      vertex -85 0 0
      vertex 77.6514 -34.5726 0
      vertex 68.7664 -49.9617 0
    endloop
  endfacet
  facet normal 0 0 -1
    outer loop
      vertex -85 0 0
      vertex 68.7664 -49.9617 0
      vertex 56.8761 -63.1673 0
    endloop
  endfacet
  facet normal 0 0 -1
    outer loop
      vertex -85 0 0
      vertex 56.8761 -63.1673 0
      vertex 42.5 -73.6122 0
    endloop
  endfacet
  facet normal 0 0 -1
    outer loop
      vertex -85 0 0
      vertex 42.5 -73.6122 0
      vertex 26.2664 -80.8398 0
    endloop
  endfacet
  facet normal 0 0 -1
    outer loop
      vertex -85 0 0
      vertex 26.2664 -80.8398 0
      vertex 8.88492 -84.5344 0
    endloop
  endfacet
  facet normal 0 0 -1
    outer loop
      vertex -85 0 0
      vertex 8.88492 -84.5344 0
      vertex -8.88492 -84.5344 0
    endloop
  endfacet
  facet normal 0 0 -1
    outer loop
      vertex -85 0 0
      vertex -8.88492 -84.5344 0
      vertex -26.2664 -80.8398 0
    endloop
  endfacet
  facet normal 0 0 -1
    outer loop
      vertex -85 0 0
      vertex -26.2664 -80.8398 0
      vertex -42.5 -73.6122 0
    endloop
  endfacet
  facet normal 0 0 -1
    outer loop
      vertex -85 0 0
      vertex -42.5 -73.6122 0
      vertex -56.8761 -63.1673 0
    endloop
  endfacet
  facet normal 0 0 -1
    outer loop
      vertex -85 0 0
      vertex -56.8761 -63.1673 0
      vertex -68.7664 -49.9617 0
    endloop
  endfacet
  facet normal 0 0 -1
    outer loop
      vertex -85 0 0
      vertex -68.7664 -49.9617 0
      vertex -77.6514 -34.5726 0
    endloop
  endfacet
  facet normal 0 0 -1
    outer loop
      vertex -85 0 0
      vertex -77.6514 -34.5726 0
      vertex -83.1425 -17.6725 0
    endloop
  endfacet
  facet normal 0.994522 0.104528 0
    outer loop
      vertex 83.1425 17.6725 0
      vertex 83.1425 17.6725 3
      vertex 85 0 3
    endloop
  endfacet
  facet normal 0.994522 0.104528 0
    outer loop
      vertex 85 0 0
      vertex 83.1425 17.6725 0
      vertex 85 0 3
    endloop
  endfacet
  facet normal 0.951057 0.309017 0
    outer loop
      vertex 77.6514 34.5726 0
      vertex 77.6514 34.5726 3
      vertex 83.1425 17.6725 3
    endloop
  endfacet
  facet normal 0.951057 0.309017 0
    outer loop
      vertex 83.1425 17.6725 0
      vertex 77.6514 34.5726 0
      vertex 83.1425 17.6725 3
    endloop
  endfacet
  facet normal -0.994522 0.104528 0
    outer loop
      vertex -85 0 3
      vertex -83.1425 17.6725 3
      vertex -85 0 0
    endloop
  endfacet
  facet normal -0.994522 0.104528 0
    outer loop
      vertex -85 0 0
      vertex -83.1425 17.6725 3
      vertex -83.1425 17.6725 0
    endloop
  endfacet
  facet normal -0.994522 -0.104528 0
    outer loop
      vertex -83.1425 -17.6725 0
      vertex -83.1425 -17.6725 3
      vertex -85 0 0
    endloop
  endfacet
  facet normal -0.994522 -0.104528 0
    outer loop
      vertex -85 0 0
      vertex -83.1425 -17.6725 3
      vertex -85 0 3
    endloop
  endfacet
  facet normal -0.951057 -0.309017 0
    outer loop
      vertex -77.6514 -34.5726 0
      vertex -77.6514 -34.5726 3
      vertex -83.1425 -17.6725 0
    endloop
  endfacet
  facet normal -0.951057 -0.309017 0
    outer loop
      vertex -83.1425 -17.6725 0
      vertex -77.6514 -34.5726 3
      vertex -83.1425 -17.6725 3
    endloop
  endfacet
  facet normal -0.866025 -0.5 0
    outer loop
      vertex -68.7664 -49.9617 0
      vertex -68.7664 -49.9617 3
      vertex -77.6514 -34.5726 0
    endloop
  endfacet
  facet normal -0.866025 -0.5 0
    outer loop
      vertex -77.6514 -34.5726 0
      vertex -68.7664 -49.9617 3
      vertex -77.6514 -34.5726 3
    endloop
  endfacet
  facet normal -0.743145 -0.669131 0
    outer loop
      vertex -56.8761 -63.1673 0
      vertex -56.8761 -63.1673 3
      vertex -68.7664 -49.9617 0
    endloop
  endfacet
  facet normal -0.743145 -0.669131 0
    outer loop
      vertex -68.7664 -49.9617 0
      vertex -56.8761 -63.1673 3
      vertex -68.7664 -49.9617 3
    endloop
  endfacet
  facet normal -0.587785 -0.809017 0
    outer loop
      vertex -56.8761 -63.1673 0
      vertex -42.5 -73.6122 0
      vertex -42.5 -73.6122 3
    endloop
  endfacet
  facet normal -0.587785 -0.809017 0
    outer loop
      vertex -56.8761 -63.1673 3
      vertex -56.8761 -63.1673 0
      vertex -42.5 -73.6122 3
    endloop
  endfacet
  facet normal -0.406737 -0.913545 0
    outer loop
      vertex -42.5 -73.6122 0
      vertex -26.2664 -80.8398 0
      vertex -26.2664 -80.8398 3
    endloop
  endfacet
  facet normal -0.406737 -0.913545 0
    outer loop
      vertex -42.5 -73.6122 3
      vertex -42.5 -73.6122 0
      vertex -26.2664 -80.8398 3
    endloop
  endfacet
  facet normal -0.207912 -0.978148 0
    outer loop
      vertex -26.2664 -80.8398 0
      vertex -8.88492 -84.5344 0
      vertex -8.88492 -84.5344 3
    endloop
  endfacet
  facet normal -0.207912 -0.978148 0
    outer loop
      vertex -26.2664 -80.8398 3
      vertex -26.2664 -80.8398 0
      vertex -8.88492 -84.5344 3
    endloop
  endfacet
  facet normal 0 -1 0
    outer loop
      vertex -8.88492 -84.5344 0
      vertex 8.88492 -84.5344 0
      vertex 8.88492 -84.5344 3
    endloop
  endfacet
  facet normal 0 -1 0
    outer loop
      vertex -8.88492 -84.5344 3
      vertex -8.88492 -84.5344 0
      vertex 8.88492 -84.5344 3
    endloop
  endfacet
  facet normal 0.207912 -0.978148 0
    outer loop
      vertex 8.88492 -84.5344 0
      vertex 26.2664 -80.8398 0
      vertex 26.2664 -80.8398 3
    endloop
  endfacet
  facet normal 0.207912 -0.978148 0
    outer loop
      vertex 8.88492 -84.5344 3
      vertex 8.88492 -84.5344 0
      vertex 26.2664 -80.8398 3
    endloop
  endfacet
  facet normal 0.406737 -0.913545 0
    outer loop
      vertex 26.2664 -80.8398 0
      vertex 42.5 -73.6122 0
      vertex 42.5 -73.6122 3
    endloop
  endfacet
  facet normal 0.406737 -0.913545 0
    outer loop
      vertex 26.2664 -80.8398 3
      vertex 26.2664 -80.8398 0
      vertex 42.5 -73.6122 3
    endloop
  endfacet
  facet normal 0.587785 -0.809017 0
    outer loop
      vertex 42.5 -73.6122 0
      vertex 56.8761 -63.1673 0
      vertex 56.8761 -63.1673 3
    endloop
  endfacet
  facet normal 0.587785 -0.809017 0
    outer loop
      vertex 42.5 -73.6122 3
      vertex 42.5 -73.6122 0
      vertex 56.8761 -63.1673 3
    endloop
  endfacet
  facet normal 0.743145 -0.669131 0
    outer loop
      vertex 56.8761 -63.1673 0
      vertex 68.7664 -49.9617 0
      vertex 68.7664 -49.9617 3
    endloop
  endfacet
  facet normal 0.743145 -0.669131 0
    outer loop
      vertex 56.8761 -63.1673 3
      vertex 56.8761 -63.1673 0
      vertex 68.7664 -49.9617 3
    endloop
  endfacet
  facet normal 0.866025 -0.5 0
    outer loop
      vertex 68.7664 -49.9617 0
      vertex 77.6514 -34.5726 0
      vertex 77.6514 -34.5726 3
    endloop
  endfacet
  facet normal 0.866025 -0.5 0
    outer loop
      vertex 68.7664 -49.9617 3
      vertex 68.7664 -49.9617 0
      vertex 77.6514 -34.5726 3
    endloop
  endfacet
  facet normal 0.951057 -0.309017 0
    outer loop
      vertex 77.6514 -34.5726 0
      vertex 83.1425 -17.6725 0
      vertex 83.1425 -17.6725 3
    endloop
  endfacet
  facet normal 0.951057 -0.309017 0
    outer loop
      vertex 77.6514 -34.5726 3
      vertex 77.6514 -34.5726 0
      vertex 83.1425 -17.6725 3
    endloop
  endfacet
  facet normal 0.994522 -0.104528 0
    outer loop
      vertex 83.1425 -17.6725 0
      vertex 85 0 0
      vertex 85 0 3
    endloop
  endfacet
  facet normal 0.994522 -0.104528 0
    outer loop
      vertex 83.1425 -17.6725 3
      vertex 83.1425 -17.6725 0
      vertex 85 0 3
    endloop
  endfacet
  facet normal 0.866025 0.5 0
    outer loop
      vertex 68.7664 49.9617 0
      vertex 68.7664 49.9617 3
      vertex 77.6514 34.5726 3
    endloop
  endfacet
  facet normal 0.866025 0.5 0
    outer loop
      vertex 77.6514 34.5726 0
      vertex 68.7664 49.9617 0
      vertex 77.6514 34.5726 3
    endloop
  endfacet
  facet normal 0.743145 0.669131 0
    outer loop
      vertex 56.8761 63.1673 0
      vertex 56.8761 63.1673 3
      vertex 68.7664 49.9617 3
    endloop
  endfacet
  facet normal 0.743145 0.669131 0
    outer loop
      vertex 68.7664 49.9617 0
      vertex 56.8761 63.1673 0
      vertex 68.7664 49.9617 3
    endloop
  endfacet
  facet normal 0.587785 0.809017 0
    outer loop
      vertex 42.5 73.6122 3
      vertex 56.8761 63.1673 3
      vertex 42.5 73.6122 0
    endloop
  endfacet
  facet normal 0.587785 0.809017 0
    outer loop
      vertex 42.5 73.6122 0
      vertex 56.8761 63.1673 3
      vertex 56.8761 63.1673 0
    endloop
  endfacet
  facet normal 0.406737 0.913545 0
    outer loop
      vertex 26.2664 80.8398 3
      vertex 42.5 73.6122 3
      vertex 26.2664 80.8398 0
    endloop
  endfacet
  facet normal 0.406737 0.913545 0
    outer loop
      vertex 26.2664 80.8398 0
      vertex 42.5 73.6122 3
      vertex 42.5 73.6122 0
    endloop
  endfacet
  facet normal 0.207912 0.978148 0
    outer loop
      vertex 8.88492 84.5344 3
      vertex 26.2664 80.8398 3
      vertex 8.88492 84.5344 0
    endloop
  endfacet
  facet normal 0.207912 0.978148 0
    outer loop
      vertex 8.88492 84.5344 0
      vertex 26.2664 80.8398 3
      vertex 26.2664 80.8398 0
    endloop
  endfacet
  facet normal 0 1 0
    outer loop
      vertex -8.88492 84.5344 3
      vertex 8.88492 84.5344 3
      vertex -8.88492 84.5344 0
    endloop
  endfacet
  facet normal 0 1 0
    outer loop
      vertex -8.88492 84.5344 0
      vertex 8.88492 84.5344 3
      vertex 8.88492 84.5344 0
    endloop
  endfacet
  facet normal -0.207912 0.978148 0
    outer loop
      vertex -26.2664 80.8398 3
      vertex -8.88492 84.5344 3
      vertex -26.2664 80.8398 0
    endloop
  endfacet
  facet normal -0.207912 0.978148 0
    outer loop
      vertex -26.2664 80.8398 0
      vertex -8.88492 84.5344 3
      vertex -8.88492 84.5344 0
    endloop
  endfacet
  facet normal -0.406737 0.913545 0
    outer loop
      vertex -42.5 73.6122 3
      vertex -26.2664 80.8398 3
      vertex -42.5 73.6122 0
    endloop
  endfacet
  facet normal -0.406737 0.913545 0
    outer loop
      vertex -42.5 73.6122 0
      vertex -26.2664 80.8398 3
      vertex -26.2664 80.8398 0
    endloop
  endfacet
  facet normal -0.587785 0.809017 0
    outer loop
      vertex -56.8761 63.1673 3
      vertex -42.5 73.6122 3
      vertex -56.8761 63.1673 0
    endloop
  endfacet
  facet normal -0.587785 0.809017 0
    outer loop
      vertex -56.8761 63.1673 0
      vertex -42.5 73.6122 3
      vertex -42.5 73.6122 0
    endloop
  endfacet
  facet normal -0.743145 0.669131 0
    outer loop
      vertex -68.7664 49.9617 3
      vertex -56.8761 63.1673 3
      vertex -68.7664 49.9617 0
    endloop
  endfacet
  facet normal -0.743145 0.669131 0
    outer loop
      vertex -68.7664 49.9617 0
      vertex -56.8761 63.1673 3
      vertex -56.8761 63.1673 0
    endloop
  endfacet
  facet normal -0.866025 0.5 0
    outer loop
      vertex -77.6514 34.5726 3
      vertex -68.7664 49.9617 3
      vertex -77.6514 34.5726 0
    endloop
  endfacet
  facet normal -0.866025 0.5 0
    outer loop
      vertex -77.6514 34.5726 0
      vertex -68.7664 49.9617 3
      vertex -68.7664 49.9617 0
    endloop
  endfacet
  facet normal -0.951057 0.309017 0
    outer loop
      vertex -83.1425 17.6725 3
      vertex -77.6514 34.5726 3
      vertex -83.1425 17.6725 0
    endloop
  endfacet
  facet normal -0.951057 0.309017 0
    outer loop
      vertex -83.1425 17.6725 0
      vertex -77.6514 34.5726 3
      vertex -77.6514 34.5726 0
    endloop
  endfacet
  facet normal 0 0 1
    outer loop
      vertex -85 0 3
      vertex -83.1425 -17.6725 3
      vertex -77.6514 -34.5726 3
    endloop
  endfacet
  facet normal 0 0 1
    outer loop
      vertex -56.8761 -63.1673 3
      vertex -85 0 3
      vertex -68.7664 -49.9617 3
    endloop
  endfacet
  facet normal 0 0 1
    outer loop
      vertex -68.7664 -49.9617 3
      vertex -85 0 3
      vertex -77.6514 -34.5726 3
    endloop
  endfacet
  facet normal 0 0 1
    outer loop
      vertex -42.5 -73.6122 3
      vertex -85 0 3
      vertex -56.8761 -63.1673 3
    endloop
  endfacet
  facet normal 0 0 1
    outer loop
      vertex -26.2664 -80.8398 3
      vertex -85 0 3
      vertex -42.5 -73.6122 3
    endloop
  endfacet
  facet normal 0 0 1
    outer loop
      vertex -8.88492 -84.5344 3
      vertex -85 0 3
      vertex -26.2664 -80.8398 3
    endloop
  endfacet
  facet normal 0 0 1
    outer loop
      vertex 8.88492 -84.5344 3
      vertex -85 0 3
      vertex -8.88492 -84.5344 3
    endloop
  endfacet
  facet normal 0 0 1
    outer loop
      vertex 26.2664 -80.8398 3
      vertex -85 0 3
      vertex 8.88492 -84.5344 3
    endloop
  endfacet
  facet normal 0 0 1
    outer loop
      vertex 42.5 -73.6122 3
      vertex -85 0 3
      vertex 26.2664 -80.8398 3
    endloop
  endfacet
  facet normal 0 0 1
    outer loop
      vertex 56.8761 -63.1673 3
      vertex -85 0 3
      vertex 42.5 -73.6122 3
    endloop
  endfacet
  facet normal 0 0 1
    outer loop
      vertex 68.7664 -49.9617 3
      vertex -85 0 3
      vertex 56.8761 -63.1673 3
    endloop
  endfacet
  facet normal 0 0 1
    outer loop
      vertex 77.6514 -34.5726 3
      vertex -85 0 3
      vertex 68.7664 -49.9617 3
    endloop
  endfacet
  facet normal 0 0 1
    outer loop
      vertex 83.1425 -17.6725 3
      vertex -85 0 3
      vertex 77.6514 -34.5726 3
    endloop
  endfacet
  facet normal 0 0 1
    outer loop
      vertex 85 0 3
      vertex -85 0 3
      vertex 83.1425 -17.6725 3
    endloop
  endfacet
  facet normal 0 0 1
    outer loop
      vertex 83.1425 17.6725 3
      vertex -85 0 3
      vertex 85 0 3
    endloop
  endfacet
  facet normal 0 0 1
    outer loop
      vertex 77.6514 34.5726 3
      vertex -85 0 3
      vertex 83.1425 17.6725 3
    endloop
  endfacet
  facet normal 0 0 1
    outer loop
      vertex 68.7664 49.9617 3
      vertex -85 0 3
      vertex 77.6514 34.5726 3
    endloop
  endfacet
  facet normal 0 0 1
    outer loop
      vertex 56.8761 63.1673 3
      vertex -85 0 3
      vertex 68.7664 49.9617 3
    endloop
  endfacet
  facet normal 0 0 1
    outer loop
      vertex 42.5 73.6122 3
      vertex -85 0 3
      vertex 56.8761 63.1673 3
    endloop
  endfacet
  facet normal 0 0 1
    outer loop
      vertex 26.2664 80.8398 3
      vertex -85 0 3
      vertex 42.5 73.6122 3
    endloop
  endfacet
  facet normal 0 0 1
    outer loop
      vertex 8.88492 84.5344 3
      vertex -85 0 3
      vertex 26.2664 80.8398 3
    endloop
  endfacet
  facet normal 0 0 1
    outer loop
      vertex -8.88492 84.5344 3
      vertex -85 0 3
      vertex 8.88492 84.5344 3
    endloop
  endfacet
  facet normal 0 0 1
    outer loop
      vertex -26.2664 80.8398 3
      vertex -85 0 3
      vertex -8.88492 84.5344 3
    endloop
  endfacet
  facet normal 0 0 1
    outer loop
      vertex -42.5 73.6122 3
      vertex -85 0 3
      vertex -26.2664 80.8398 3
    endloop
  endfacet
  facet normal 0 0 1
    outer loop
      vertex -56.8761 63.1673 3
      vertex -85 0 3
      vertex -42.5 73.6122 3
    endloop
  endfacet
  facet normal 0 0 1
    outer loop
      vertex -68.7664 49.9617 3
      vertex -85 0 3
      vertex -56.8761 63.1673 3
    endloop
  endfacet
  facet normal 0 0 1
    outer loop
      vertex -77.6514 34.5726 3
      vertex -85 0 3
      vertex -68.7664 49.9617 3
    endloop
  endfacet
  facet normal 0 0 1
    outer loop
      vertex -83.1425 17.6725 3
      vertex -85 0 3
      vertex -77.6514 34.5726 3
    endloop
  endfacet
endsolid OpenSCAD_Model
