solid OpenSCAD_Model
  facet normal -1 0 0
    outer loop
      vertex 0 0 50
      vertex 0 26 50
      vertex 0 0 0
    endloop
  endfacet
  facet normal -1 0 0
    outer loop
      vertex 0 0 0
      vertex 0 26 50
      vertex 0 26 0
    endloop
  endfacet
  facet normal 0 0 1
    outer loop
      vertex 0 0 50
      vertex 80 0 50
      vertex 80 26 50
    endloop
  endfacet
  facet normal 0 0 1
    outer loop
      vertex 0 26 50
      vertex 0 0 50
      vertex 80 26 50
    endloop
  endfacet
  facet normal 0 -1 0
    outer loop
      vertex 0 0 0
      vertex 80 0 0
      vertex 80 0 50
    endloop
  endfacet
  facet normal 0 -1 0
    outer loop
      vertex 0 0 50
      vertex 0 0 0
      vertex 80 0 50
    endloop
  endfacet
  facet normal 0 0 -1
    outer loop
      vertex 0 26 0
      vertex 80 26 0
      vertex 0 0 0
    endloop
  endfacet
  facet normal 0 0 -1
    outer loop
      vertex 0 0 0
      vertex 80 26 0
      vertex 80 0 0
    endloop
  endfacet
  facet normal 0 1 0
    outer loop
      vertex 0 26 50
      vertex 80 26 50
      vertex 0 26 0
    endloop
  endfacet
  facet normal 0 1 0
    outer loop
      vertex 0 26 0
      vertex 80 26 50
      vertex 80 26 0
    endloop
  endfacet
  facet normal 1 0 0
    outer loop
      vertex 80 0 0
      vertex 80 26 0
      vertex 80 26 50
    endloop
  endfacet
  facet normal 1 0 0
    outer loop
      vertex 80 0 50
      vertex 80 0 0
      vertex 80 26 50
    endloop
  endfacet
endsolid OpenSCAD_Model
