solid OpenSCAD_Model
  facet normal 0 0 -1
    outer loop
      vertex -2.42705 1.76336 0
      vertex -0.927051 2.85317 0
      vertex -3 0 0
    endloop
  endfacet
  facet normal 0 0 -1
    outer loop
      vertex -3 0 0
      vertex -0.927051 2.85317 0
      vertex 0.927051 2.85317 0
    endloop
  endfacet
  facet normal 0 0 -1
    outer loop
      vertex -3 0 0
      vertex 0.927051 2.85317 0
      vertex 2.42705 1.76336 0
    endloop
  endfacet
  facet normal 0 0 -1
    outer loop
      vertex -3 0 0
      vertex 2.42705 1.76336 0
      vertex 3 0 0
    endloop
  endfacet
  facet normal 0 0 -1
    outer loop
      vertex -3 0 0
      vertex 3 0 0
      vertex 2.42705 -1.76336 0
    endloop
  endfacet
  facet normal 0 0 -1
    outer loop
      vertex -3 0 0
      vertex 2.42705 -1.76336 0
      vertex 0.927051 -2.85317 0
    endloop
  endfacet
  facet normal 0 0 -1
    outer loop
      vertex -3 0 0
      vertex 0.927051 -2.85317 0
      vertex -0.927051 -2.85317 0
    endloop
  endfacet
  facet normal 0 0 -1
    outer loop
      vertex -3 0 0
      vertex -0.927051 -2.85317 0
      vertex -2.42705 -1.76336 0
    endloop
  endfacet
  facet normal 0.951057 0.309017 0
    outer loop
      vertex 2.42705 1.76336 0
      vertex 2.42705 1.76336 23
      vertex 3 0 23
    endloop
  endfacet
  facet normal 0.951057 0.309017 0
    outer loop
      vertex 3 0 0
      vertex 2.42705 1.76336 0
      vertex 3 0 23
    endloop
  endfacet
  facet normal 0.587785 0.809017 0
    outer loop
      vertex 0.927051 2.85317 23
      vertex 2.42705 1.76336 23
      vertex 0.927051 2.85317 0
    endloop
  endfacet
  facet normal 0.587785 0.809017 0
    outer loop
      vertex 0.927051 2.85317 0
      vertex 2.42705 1.76336 23
      vertex 2.42705 1.76336 0
    endloop
  endfacet
  facet normal -0.951057 0.309017 0
    outer loop
      vertex -3 0 23
      vertex -2.42705 1.76336 23
      vertex -3 0 0
    endloop
  endfacet
  facet normal -0.951057 0.309017 0
    outer loop
      vertex -3 0 0
      vertex -2.42705 1.76336 23
      vertex -2.42705 1.76336 0
    endloop
  endfacet
  facet normal -0.951057 -0.309017 0
    outer loop
      vertex -2.42705 -1.76336 0
      vertex -2.42705 -1.76336 23
      vertex -3 0 0
    endloop
  endfacet
  facet normal -0.951057 -0.309017 0
    outer loop
      vertex -3 0 0
      vertex -2.42705 -1.76336 23
      vertex -3 0 23
    endloop
  endfacet
  facet normal -0.587785 -0.809017 0
    outer loop
      vertex -2.42705 -1.76336 0
      vertex -0.927051 -2.85317 0
      vertex -0.927051 -2.85317 23
    endloop
  endfacet
  facet normal -0.587785 -0.809017 0
    outer loop
      vertex -2.42705 -1.76336 23
      vertex -2.42705 -1.76336 0
      vertex -0.927051 -2.85317 23
    endloop
  endfacet
  facet normal 0 -1 0
    outer loop
      vertex -0.927051 -2.85317 0
      vertex 0.927051 -2.85317 0
      vertex 0.927051 -2.85317 23
    endloop
  endfacet
  facet normal 0 -1 0
    outer loop
      vertex -0.927051 -2.85317 23
      vertex -0.927051 -2.85317 0
      vertex 0.927051 -2.85317 23
    endloop
  endfacet
  facet normal 0.587785 -0.809017 0
    outer loop
      vertex 0.927051 -2.85317 0
      vertex 2.42705 -1.76336 0
      vertex 2.42705 -1.76336 23
    endloop
  endfacet
  facet normal 0.587785 -0.809017 0
    outer loop
      vertex 0.927051 -2.85317 23
      vertex 0.927051 -2.85317 0
      vertex 2.42705 -1.76336 23
    endloop
  endfacet
  facet normal 0.951057 -0.309017 0
    outer loop
      vertex 2.42705 -1.76336 0
      vertex 3 0 0
      vertex 3 0 23
    endloop
  endfacet
  facet normal 0.951057 -0.309017 0
    outer loop
      vertex 2.42705 -1.76336 23
      vertex 2.42705 -1.76336 0
      vertex 3 0 23
    endloop
  endfacet
  facet normal 0 1 0
    outer loop
      vertex -0.927051 2.85317 23
      vertex 0.927051 2.85317 23
      vertex -0.927051 2.85317 0
    endloop
  endfacet
  facet normal 0 1 0
    outer loop
      vertex -0.927051 2.85317 0
      vertex 0.927051 2.85317 23
      vertex 0.927051 2.85317 0
    endloop
  endfacet
  facet normal -0.587785 0.809017 0
    outer loop
      vertex -2.42705 1.76336 23
      vertex -0.927051 2.85317 23
      vertex -2.42705 1.76336 0
    endloop
  endfacet
  facet normal -0.587785 0.809017 0
    outer loop
      vertex -2.42705 1.76336 0
      vertex -0.927051 2.85317 23
      vertex -0.927051 2.85317 0
    endloop
  endfacet
  facet normal 0 0 1
    outer loop
      vertex -3 0 23
      vertex -2.42705 -1.76336 23
      vertex -0.927051 -2.85317 23
    endloop
  endfacet
  facet normal 0 0 1
    outer loop
      vertex 2.42705 -1.76336 23
      vertex -3 0 23
      vertex 0.927051 -2.85317 23
    endloop
  endfacet
  facet normal 0 0 1
    outer loop
      vertex 0.927051 -2.85317 23
      vertex -3 0 23
      vertex -0.927051 -2.85317 23
    endloop
  endfacet
  facet normal 0 0 1
    outer loop
      vertex 3 0 23
      vertex -3 0 23
      vertex 2.42705 -1.76336 23
    endloop
  endfacet
  facet normal 0 0 1
    outer loop
      vertex 2.42705 1.76336 23
      vertex -3 0 23
      vertex 3 0 23
    endloop
  endfacet
  facet normal 0 0 1
    outer loop
      vertex 0.927051 2.85317 23
      vertex -3 0 23
      vertex 2.42705 1.76336 23
    endloop
  endfacet
  facet normal 0 0 1
    outer loop
      vertex -0.927051 2.85317 23
      vertex -3 0 23
      vertex 0.927051 2.85317 23
    endloop
  endfacet
  facet normal 0 0 1
    outer loop
      vertex -2.42705 1.76336 23
      vertex -3 0 23
      vertex -0.927051 2.85317 23
    endloop
  endfacet
endsolid OpenSCAD_Model
