solid OpenSCAD_Model
  facet normal 0 0 1
    outer loop
      vertex -1.99641 -0.424349 2.501
      vertex -2.5 0 2.501
      vertex -1.76777 -1.76777 2.501
    endloop
  endfacet
  facet normal 0 0 1
    outer loop
      vertex 1.99641 -0.424349 2.501
      vertex 1.86455 -0.830152 2.501
      vertex 1.76777 -1.76777 2.501
    endloop
  endfacet
  facet normal 0 0 1
    outer loop
      vertex 1.65121 1.19967 2.501
      vertex 1.86455 0.830152 2.501
      vertex 2.5 0 2.501
    endloop
  endfacet
  facet normal 0 0 1
    outer loop
      vertex -1.86455 -0.830152 2.501
      vertex -1.99641 -0.424349 2.501
      vertex -1.76777 -1.76777 2.501
    endloop
  endfacet
  facet normal 0 0 1
    outer loop
      vertex -2.04101 0 2.501
      vertex -2.5 0 2.501
      vertex -1.99641 -0.424349 2.501
    endloop
  endfacet
  facet normal 0 0 1
    outer loop
      vertex -1.86455 0.830152 2.501
      vertex -1.65121 1.19967 2.501
      vertex -1.76777 1.76777 2.501
    endloop
  endfacet
  facet normal 0 0 1
    outer loop
      vertex -1.99641 0.424349 2.501
      vertex -2.5 0 2.501
      vertex -2.04101 0 2.501
    endloop
  endfacet
  facet normal 0 0 1
    outer loop
      vertex -1.76777 1.76777 2.501
      vertex -2.5 0 2.501
      vertex -1.99641 0.424349 2.501
    endloop
  endfacet
  facet normal 0 0 1
    outer loop
      vertex 1.0205 -1.76756 2.501
      vertex 0.630706 -1.94111 2.501
      vertex 0 -2.5 2.501
    endloop
  endfacet
  facet normal 0 0 1
    outer loop
      vertex -1.0205 1.76756 2.501
      vertex -0.630706 1.94111 2.501
      vertex -1.76777 1.76777 2.501
    endloop
  endfacet
  facet normal 0 0 1
    outer loop
      vertex 0.213343 -2.02983 2.501
      vertex -0.213343 -2.02983 2.501
      vertex 0 -2.5 2.501
    endloop
  endfacet
  facet normal 0 0 1
    outer loop
      vertex 1.99641 0.424349 2.501
      vertex 2.04101 0 2.501
      vertex 2.5 0 2.501
    endloop
  endfacet
  facet normal 0 0 1
    outer loop
      vertex 0 2.5 2.501
      vertex -1.76777 1.76777 2.501
      vertex -0.630706 1.94111 2.501
    endloop
  endfacet
  facet normal 0 0 1
    outer loop
      vertex 0 2.5 2.501
      vertex -0.630706 1.94111 2.501
      vertex -0.213343 2.02983 2.501
    endloop
  endfacet
  facet normal 0 0 1
    outer loop
      vertex 0 2.5 2.501
      vertex 0.213343 2.02983 2.501
      vertex 1.76777 1.76777 2.501
    endloop
  endfacet
  facet normal 0 0 1
    outer loop
      vertex 0 2.5 2.501
      vertex -0.213343 2.02983 2.501
      vertex 0.213343 2.02983 2.501
    endloop
  endfacet
  facet normal 0 0 1
    outer loop
      vertex 0.213343 2.02983 2.501
      vertex 0.630706 1.94111 2.501
      vertex 1.76777 1.76777 2.501
    endloop
  endfacet
  facet normal 0 0 1
    outer loop
      vertex 1.86455 0.830152 2.501
      vertex 1.99641 0.424349 2.501
      vertex 2.5 0 2.501
    endloop
  endfacet
  facet normal 0 0 1
    outer loop
      vertex 1.76777 1.76777 2.501
      vertex 1.0205 1.76756 2.501
      vertex 1.3657 1.51676 2.501
    endloop
  endfacet
  facet normal 0 0 1
    outer loop
      vertex 1.76777 1.76777 2.501
      vertex 1.65121 1.19967 2.501
      vertex 2.5 0 2.501
    endloop
  endfacet
  facet normal 0 0 1
    outer loop
      vertex 1.76777 1.76777 2.501
      vertex 1.3657 1.51676 2.501
      vertex 1.65121 1.19967 2.501
    endloop
  endfacet
  facet normal 0 0 1
    outer loop
      vertex 1.65121 -1.19967 2.501
      vertex 1.3657 -1.51676 2.501
      vertex 1.76777 -1.76777 2.501
    endloop
  endfacet
  facet normal 0 0 1
    outer loop
      vertex 2.5 0 2.501
      vertex 1.99641 -0.424349 2.501
      vertex 1.76777 -1.76777 2.501
    endloop
  endfacet
  facet normal 0 0 1
    outer loop
      vertex 2.5 0 2.501
      vertex 2.04101 0 2.501
      vertex 1.99641 -0.424349 2.501
    endloop
  endfacet
  facet normal 0 0 1
    outer loop
      vertex 1.86455 -0.830152 2.501
      vertex 1.65121 -1.19967 2.501
      vertex 1.76777 -1.76777 2.501
    endloop
  endfacet
  facet normal 0 0 1
    outer loop
      vertex -1.3657 1.51676 2.501
      vertex -1.0205 1.76756 2.501
      vertex -1.76777 1.76777 2.501
    endloop
  endfacet
  facet normal 0 0 1
    outer loop
      vertex 1.76777 -1.76777 2.501
      vertex 1.0205 -1.76756 2.501
      vertex 0 -2.5 2.501
    endloop
  endfacet
  facet normal 0 0 1
    outer loop
      vertex 1.76777 -1.76777 2.501
      vertex 1.3657 -1.51676 2.501
      vertex 1.0205 -1.76756 2.501
    endloop
  endfacet
  facet normal 0 0 1
    outer loop
      vertex 0.630706 -1.94111 2.501
      vertex 0.213343 -2.02983 2.501
      vertex 0 -2.5 2.501
    endloop
  endfacet
  facet normal 0 0 1
    outer loop
      vertex 0.630706 1.94111 2.501
      vertex 1.0205 1.76756 2.501
      vertex 1.76777 1.76777 2.501
    endloop
  endfacet
  facet normal 0 0 1
    outer loop
      vertex 0 -2.5 2.501
      vertex -0.213343 -2.02983 2.501
      vertex -1.76777 -1.76777 2.501
    endloop
  endfacet
  facet normal 0 0 1
    outer loop
      vertex -0.213343 -2.02983 2.501
      vertex -0.630706 -1.94111 2.501
      vertex -1.76777 -1.76777 2.501
    endloop
  endfacet
  facet normal 0 0 1
    outer loop
      vertex -0.630706 -1.94111 2.501
      vertex -1.0205 -1.76756 2.501
      vertex -1.76777 -1.76777 2.501
    endloop
  endfacet
  facet normal 0 0 1
    outer loop
      vertex -1.0205 -1.76756 2.501
      vertex -1.3657 -1.51676 2.501
      vertex -1.76777 -1.76777 2.501
    endloop
  endfacet
  facet normal 0 0 1
    outer loop
      vertex -1.3657 -1.51676 2.501
      vertex -1.65121 -1.19967 2.501
      vertex -1.76777 -1.76777 2.501
    endloop
  endfacet
  facet normal 0 0 1
    outer loop
      vertex -1.99641 0.424349 2.501
      vertex -1.86455 0.830152 2.501
      vertex -1.76777 1.76777 2.501
    endloop
  endfacet
  facet normal 0 0 1
    outer loop
      vertex -1.65121 -1.19967 2.501
      vertex -1.86455 -0.830152 2.501
      vertex -1.76777 -1.76777 2.501
    endloop
  endfacet
  facet normal 0 0 1
    outer loop
      vertex -1.65121 1.19967 2.501
      vertex -1.3657 1.51676 2.501
      vertex -1.76777 1.76777 2.501
    endloop
  endfacet
  facet normal -0.740847 -0.306869 -0.597476
    outer loop
      vertex -1.76777 -1.76777 2.501
      vertex -2.5 0 2.501
      vertex -0.341533 -0.341533 0
    endloop
  endfacet
  facet normal -0.740847 -0.306868 -0.597476
    outer loop
      vertex -0.341533 -0.341533 0
      vertex -2.5 0 2.501
      vertex -0.483 0 0
    endloop
  endfacet
  facet normal -0.740847 0.306869 -0.597476
    outer loop
      vertex -0.483 0 0
      vertex -2.5 0 2.501
      vertex -1.76777 1.76777 2.501
    endloop
  endfacet
  facet normal -0.740847 0.306868 -0.597476
    outer loop
      vertex -0.483 0 0
      vertex -1.76777 1.76777 2.501
      vertex -0.341533 0.341533 0
    endloop
  endfacet
  facet normal -0.306869 0.740847 -0.597476
    outer loop
      vertex -0.341533 0.341533 0
      vertex -1.76777 1.76777 2.501
      vertex 0 2.5 2.501
    endloop
  endfacet
  facet normal -0.306868 0.740847 -0.597476
    outer loop
      vertex 0 0.483 0
      vertex -0.341533 0.341533 0
      vertex 0 2.5 2.501
    endloop
  endfacet
  facet normal 0.306869 0.740847 -0.597476
    outer loop
      vertex 1.76777 1.76777 2.501
      vertex 0 0.483 0
      vertex 0 2.5 2.501
    endloop
  endfacet
  facet normal 0.306868 0.740847 -0.597476
    outer loop
      vertex 0.341533 0.341533 0
      vertex 0 0.483 0
      vertex 1.76777 1.76777 2.501
    endloop
  endfacet
  facet normal 0.740847 0.306869 -0.597476
    outer loop
      vertex 2.5 0 2.501
      vertex 0.341533 0.341533 0
      vertex 1.76777 1.76777 2.501
    endloop
  endfacet
  facet normal 0.740847 0.306868 -0.597476
    outer loop
      vertex 0.483 0 0
      vertex 0.341533 0.341533 0
      vertex 2.5 0 2.501
    endloop
  endfacet
  facet normal 0.740847 -0.306869 -0.597476
    outer loop
      vertex 1.76777 -1.76777 2.501
      vertex 0.483 0 0
      vertex 2.5 0 2.501
    endloop
  endfacet
  facet normal 0.740847 -0.306868 -0.597476
    outer loop
      vertex 1.76777 -1.76777 2.501
      vertex 0.341533 -0.341533 0
      vertex 0.483 0 0
    endloop
  endfacet
  facet normal 0.306869 -0.740847 -0.597476
    outer loop
      vertex 1.76777 -1.76777 2.501
      vertex 0 -2.5 2.501
      vertex 0.341533 -0.341533 0
    endloop
  endfacet
  facet normal 0.306868 -0.740847 -0.597476
    outer loop
      vertex 0.341533 -0.341533 0
      vertex 0 -2.5 2.501
      vertex 0 -0.483 0
    endloop
  endfacet
  facet normal -0.306869 -0.740847 -0.597476
    outer loop
      vertex 0 -2.5 2.501
      vertex -1.76777 -1.76777 2.501
      vertex 0 -0.483 0
    endloop
  endfacet
  facet normal -0.306868 -0.740847 -0.597476
    outer loop
      vertex 0 -0.483 0
      vertex -1.76777 -1.76777 2.501
      vertex -0.341533 -0.341533 0
    endloop
  endfacet
  facet normal -0.994522 -0.104529 0
    outer loop
      vertex -2.04101 0 2.501
      vertex -1.99641 -0.424349 2.501
      vertex -2.04101 0 48.5
    endloop
  endfacet
  facet normal -0.994522 -0.104529 0
    outer loop
      vertex -2.04101 0 48.5
      vertex -1.99641 -0.424349 2.501
      vertex -1.99641 -0.424349 48.5
    endloop
  endfacet
  facet normal -0.951056 -0.309018 0
    outer loop
      vertex -1.99641 -0.424349 2.501
      vertex -1.86455 -0.830152 2.501
      vertex -1.99641 -0.424349 48.5
    endloop
  endfacet
  facet normal -0.951056 -0.309018 0
    outer loop
      vertex -1.99641 -0.424349 48.5
      vertex -1.86455 -0.830152 2.501
      vertex -1.86455 -0.830152 48.5
    endloop
  endfacet
  facet normal -0.866026 -0.499999 0
    outer loop
      vertex -1.86455 -0.830152 2.501
      vertex -1.65121 -1.19967 2.501
      vertex -1.86455 -0.830152 48.5
    endloop
  endfacet
  facet normal -0.866026 -0.499999 0
    outer loop
      vertex -1.86455 -0.830152 48.5
      vertex -1.65121 -1.19967 2.501
      vertex -1.65121 -1.19967 48.5
    endloop
  endfacet
  facet normal -0.743144 -0.669132 0
    outer loop
      vertex -1.65121 -1.19967 2.501
      vertex -1.3657 -1.51676 2.501
      vertex -1.65121 -1.19967 48.5
    endloop
  endfacet
  facet normal -0.743144 -0.669132 0
    outer loop
      vertex -1.65121 -1.19967 48.5
      vertex -1.3657 -1.51676 2.501
      vertex -1.3657 -1.51676 48.5
    endloop
  endfacet
  facet normal -0.587786 -0.809016 0
    outer loop
      vertex -1.3657 -1.51676 48.5
      vertex -1.3657 -1.51676 2.501
      vertex -1.0205 -1.76756 2.501
    endloop
  endfacet
  facet normal -0.587786 -0.809016 0
    outer loop
      vertex -1.0205 -1.76756 48.5
      vertex -1.3657 -1.51676 48.5
      vertex -1.0205 -1.76756 2.501
    endloop
  endfacet
  facet normal -0.406737 -0.913545 0
    outer loop
      vertex -1.0205 -1.76756 48.5
      vertex -1.0205 -1.76756 2.501
      vertex -0.630706 -1.94111 2.501
    endloop
  endfacet
  facet normal -0.406737 -0.913545 0
    outer loop
      vertex -0.630706 -1.94111 48.5
      vertex -1.0205 -1.76756 48.5
      vertex -0.630706 -1.94111 2.501
    endloop
  endfacet
  facet normal -0.207911 -0.978148 0
    outer loop
      vertex -0.630706 -1.94111 48.5
      vertex -0.630706 -1.94111 2.501
      vertex -0.213343 -2.02983 2.501
    endloop
  endfacet
  facet normal -0.207911 -0.978148 0
    outer loop
      vertex -0.213343 -2.02983 48.5
      vertex -0.630706 -1.94111 48.5
      vertex -0.213343 -2.02983 2.501
    endloop
  endfacet
  facet normal 0 -1 0
    outer loop
      vertex -0.213343 -2.02983 48.5
      vertex -0.213343 -2.02983 2.501
      vertex 0.213343 -2.02983 2.501
    endloop
  endfacet
  facet normal 0 -1 0
    outer loop
      vertex 0.213343 -2.02983 48.5
      vertex -0.213343 -2.02983 48.5
      vertex 0.213343 -2.02983 2.501
    endloop
  endfacet
  facet normal 0.207911 -0.978148 0
    outer loop
      vertex 0.213343 -2.02983 48.5
      vertex 0.213343 -2.02983 2.501
      vertex 0.630706 -1.94111 2.501
    endloop
  endfacet
  facet normal 0.207911 -0.978148 0
    outer loop
      vertex 0.630706 -1.94111 48.5
      vertex 0.213343 -2.02983 48.5
      vertex 0.630706 -1.94111 2.501
    endloop
  endfacet
  facet normal 0.406737 -0.913545 0
    outer loop
      vertex 0.630706 -1.94111 48.5
      vertex 0.630706 -1.94111 2.501
      vertex 1.0205 -1.76756 2.501
    endloop
  endfacet
  facet normal 0.406737 -0.913545 0
    outer loop
      vertex 1.0205 -1.76756 48.5
      vertex 0.630706 -1.94111 48.5
      vertex 1.0205 -1.76756 2.501
    endloop
  endfacet
  facet normal 0.587786 -0.809016 0
    outer loop
      vertex 1.0205 -1.76756 48.5
      vertex 1.0205 -1.76756 2.501
      vertex 1.3657 -1.51676 2.501
    endloop
  endfacet
  facet normal 0.587786 -0.809016 0
    outer loop
      vertex 1.3657 -1.51676 48.5
      vertex 1.0205 -1.76756 48.5
      vertex 1.3657 -1.51676 2.501
    endloop
  endfacet
  facet normal 0.743144 -0.669132 0
    outer loop
      vertex 1.3657 -1.51676 48.5
      vertex 1.3657 -1.51676 2.501
      vertex 1.65121 -1.19967 2.501
    endloop
  endfacet
  facet normal 0.743144 -0.669132 0
    outer loop
      vertex 1.65121 -1.19967 48.5
      vertex 1.3657 -1.51676 48.5
      vertex 1.65121 -1.19967 2.501
    endloop
  endfacet
  facet normal 0.866026 -0.499999 0
    outer loop
      vertex 1.65121 -1.19967 48.5
      vertex 1.65121 -1.19967 2.501
      vertex 1.86455 -0.830152 2.501
    endloop
  endfacet
  facet normal 0.866026 -0.499999 0
    outer loop
      vertex 1.86455 -0.830152 48.5
      vertex 1.65121 -1.19967 48.5
      vertex 1.86455 -0.830152 2.501
    endloop
  endfacet
  facet normal 0.951056 -0.309018 0
    outer loop
      vertex 1.86455 -0.830152 48.5
      vertex 1.86455 -0.830152 2.501
      vertex 1.99641 -0.424349 2.501
    endloop
  endfacet
  facet normal 0.951056 -0.309018 0
    outer loop
      vertex 1.99641 -0.424349 48.5
      vertex 1.86455 -0.830152 48.5
      vertex 1.99641 -0.424349 2.501
    endloop
  endfacet
  facet normal 0.994522 -0.104529 0
    outer loop
      vertex 1.99641 -0.424349 48.5
      vertex 1.99641 -0.424349 2.501
      vertex 2.04101 0 2.501
    endloop
  endfacet
  facet normal 0.994522 -0.104529 0
    outer loop
      vertex 2.04101 0 48.5
      vertex 1.99641 -0.424349 48.5
      vertex 2.04101 0 2.501
    endloop
  endfacet
  facet normal 0.994522 0.104529 0
    outer loop
      vertex 2.04101 0 2.501
      vertex 1.99641 0.424349 2.501
      vertex 1.99641 0.424349 48.5
    endloop
  endfacet
  facet normal 0.994522 0.104529 0
    outer loop
      vertex 2.04101 0 48.5
      vertex 2.04101 0 2.501
      vertex 1.99641 0.424349 48.5
    endloop
  endfacet
  facet normal 0.951056 0.309018 0
    outer loop
      vertex 1.99641 0.424349 2.501
      vertex 1.86455 0.830152 2.501
      vertex 1.86455 0.830152 48.5
    endloop
  endfacet
  facet normal 0.951056 0.309018 0
    outer loop
      vertex 1.99641 0.424349 48.5
      vertex 1.99641 0.424349 2.501
      vertex 1.86455 0.830152 48.5
    endloop
  endfacet
  facet normal 0.866026 0.499999 0
    outer loop
      vertex 1.86455 0.830152 2.501
      vertex 1.65121 1.19967 2.501
      vertex 1.65121 1.19967 48.5
    endloop
  endfacet
  facet normal 0.866026 0.499999 0
    outer loop
      vertex 1.86455 0.830152 48.5
      vertex 1.86455 0.830152 2.501
      vertex 1.65121 1.19967 48.5
    endloop
  endfacet
  facet normal 0.743144 0.669132 0
    outer loop
      vertex 1.65121 1.19967 2.501
      vertex 1.3657 1.51676 2.501
      vertex 1.3657 1.51676 48.5
    endloop
  endfacet
  facet normal 0.743144 0.669132 0
    outer loop
      vertex 1.65121 1.19967 48.5
      vertex 1.65121 1.19967 2.501
      vertex 1.3657 1.51676 48.5
    endloop
  endfacet
  facet normal 0.587786 0.809016 0
    outer loop
      vertex 1.0205 1.76756 2.501
      vertex 1.0205 1.76756 48.5
      vertex 1.3657 1.51676 2.501
    endloop
  endfacet
  facet normal 0.587786 0.809016 0
    outer loop
      vertex 1.3657 1.51676 2.501
      vertex 1.0205 1.76756 48.5
      vertex 1.3657 1.51676 48.5
    endloop
  endfacet
  facet normal 0.406737 0.913545 0
    outer loop
      vertex 0.630706 1.94111 2.501
      vertex 0.630706 1.94111 48.5
      vertex 1.0205 1.76756 2.501
    endloop
  endfacet
  facet normal 0.406737 0.913545 0
    outer loop
      vertex 1.0205 1.76756 2.501
      vertex 0.630706 1.94111 48.5
      vertex 1.0205 1.76756 48.5
    endloop
  endfacet
  facet normal 0.207911 0.978148 0
    outer loop
      vertex 0.213343 2.02983 2.501
      vertex 0.213343 2.02983 48.5
      vertex 0.630706 1.94111 2.501
    endloop
  endfacet
  facet normal 0.207911 0.978148 0
    outer loop
      vertex 0.630706 1.94111 2.501
      vertex 0.213343 2.02983 48.5
      vertex 0.630706 1.94111 48.5
    endloop
  endfacet
  facet normal 0 1 0
    outer loop
      vertex -0.213343 2.02983 2.501
      vertex -0.213343 2.02983 48.5
      vertex 0.213343 2.02983 2.501
    endloop
  endfacet
  facet normal 0 1 0
    outer loop
      vertex 0.213343 2.02983 2.501
      vertex -0.213343 2.02983 48.5
      vertex 0.213343 2.02983 48.5
    endloop
  endfacet
  facet normal -0.207911 0.978148 0
    outer loop
      vertex -0.630706 1.94111 2.501
      vertex -0.630706 1.94111 48.5
      vertex -0.213343 2.02983 2.501
    endloop
  endfacet
  facet normal -0.207911 0.978148 0
    outer loop
      vertex -0.213343 2.02983 2.501
      vertex -0.630706 1.94111 48.5
      vertex -0.213343 2.02983 48.5
    endloop
  endfacet
  facet normal -0.406737 0.913545 0
    outer loop
      vertex -1.0205 1.76756 2.501
      vertex -1.0205 1.76756 48.5
      vertex -0.630706 1.94111 2.501
    endloop
  endfacet
  facet normal -0.406737 0.913545 0
    outer loop
      vertex -0.630706 1.94111 2.501
      vertex -1.0205 1.76756 48.5
      vertex -0.630706 1.94111 48.5
    endloop
  endfacet
  facet normal -0.587786 0.809016 0
    outer loop
      vertex -1.3657 1.51676 2.501
      vertex -1.3657 1.51676 48.5
      vertex -1.0205 1.76756 2.501
    endloop
  endfacet
  facet normal -0.587786 0.809016 0
    outer loop
      vertex -1.0205 1.76756 2.501
      vertex -1.3657 1.51676 48.5
      vertex -1.0205 1.76756 48.5
    endloop
  endfacet
  facet normal -0.743144 0.669132 0
    outer loop
      vertex -1.65121 1.19967 2.501
      vertex -1.65121 1.19967 48.5
      vertex -1.3657 1.51676 2.501
    endloop
  endfacet
  facet normal -0.743144 0.669132 0
    outer loop
      vertex -1.3657 1.51676 2.501
      vertex -1.65121 1.19967 48.5
      vertex -1.3657 1.51676 48.5
    endloop
  endfacet
  facet normal -0.866026 0.499999 0
    outer loop
      vertex -1.86455 0.830152 2.501
      vertex -1.86455 0.830152 48.5
      vertex -1.65121 1.19967 2.501
    endloop
  endfacet
  facet normal -0.866026 0.499999 0
    outer loop
      vertex -1.65121 1.19967 2.501
      vertex -1.86455 0.830152 48.5
      vertex -1.65121 1.19967 48.5
    endloop
  endfacet
  facet normal -0.951056 0.309018 0
    outer loop
      vertex -1.99641 0.424349 2.501
      vertex -1.99641 0.424349 48.5
      vertex -1.86455 0.830152 2.501
    endloop
  endfacet
  facet normal -0.951056 0.309018 0
    outer loop
      vertex -1.86455 0.830152 2.501
      vertex -1.99641 0.424349 48.5
      vertex -1.86455 0.830152 48.5
    endloop
  endfacet
  facet normal -0.994522 0.104529 0
    outer loop
      vertex -2.04101 0 2.501
      vertex -2.04101 0 48.5
      vertex -1.99641 0.424349 2.501
    endloop
  endfacet
  facet normal -0.994522 0.104529 0
    outer loop
      vertex -1.99641 0.424349 2.501
      vertex -2.04101 0 48.5
      vertex -1.99641 0.424349 48.5
    endloop
  endfacet
  facet normal 0 0 -1
    outer loop
      vertex -0.483 0 0
      vertex -0.341533 0.341533 0
      vertex -0.341533 -0.341533 0
    endloop
  endfacet
  facet normal 0 0 -1
    outer loop
      vertex -0.341533 -0.341533 0
      vertex -0.341533 0.341533 0
      vertex 0 0.483 0
    endloop
  endfacet
  facet normal 0 0 -1
    outer loop
      vertex -0.121353 0.088168 0
      vertex 0 0.483 0
      vertex 0.341533 0.341533 0
    endloop
  endfacet
  facet normal 0 0 -1
    outer loop
      vertex 0.15 0 0
      vertex 0.341533 0.341533 0
      vertex 0.483 0 0
    endloop
  endfacet
  facet normal 0 0 -1
    outer loop
      vertex -0.341533 -0.341533 0
      vertex 0.483 0 0
      vertex 0.341533 -0.341533 0
    endloop
  endfacet
  facet normal 0 0 -1
    outer loop
      vertex -0.341533 -0.341533 0
      vertex 0.341533 -0.341533 0
      vertex 0 -0.483 0
    endloop
  endfacet
  facet normal 0 0 -1
    outer loop
      vertex -0.341533 -0.341533 0
      vertex 0 0.483 0
      vertex -0.121353 0.088168 0
    endloop
  endfacet
  facet normal 0 0 -1
    outer loop
      vertex 0.046353 0.142658 0
      vertex -0.121353 0.088168 0
      vertex 0.341533 0.341533 0
    endloop
  endfacet
  facet normal 0 0 -1
    outer loop
      vertex -0.341533 -0.341533 0
      vertex -0.121353 0.088168 0
      vertex -0.121353 -0.088168 0
    endloop
  endfacet
  facet normal 0 0 -1
    outer loop
      vertex 0.046353 0.142658 0
      vertex 0.341533 0.341533 0
      vertex 0.15 0 0
    endloop
  endfacet
  facet normal 0 0 -1
    outer loop
      vertex -0.341533 -0.341533 0
      vertex 0.046353 -0.142658 0
      vertex 0.483 0 0
    endloop
  endfacet
  facet normal 0 0 -1
    outer loop
      vertex 0.046353 -0.142658 0
      vertex 0.15 0 0
      vertex 0.483 0 0
    endloop
  endfacet
  facet normal 0 0 -1
    outer loop
      vertex 0.046353 -0.142658 0
      vertex -0.341533 -0.341533 0
      vertex -0.121353 -0.088168 0
    endloop
  endfacet
  facet normal 0 0 1
    outer loop
      vertex -1.99641 0.424349 48.5
      vertex -2.04101 0 48.5
      vertex -1.99641 -0.424349 48.5
    endloop
  endfacet
  facet normal 0 0 1
    outer loop
      vertex -1.65121 -1.19967 48.5
      vertex -1.99641 0.424349 48.5
      vertex -1.86455 -0.830152 48.5
    endloop
  endfacet
  facet normal 0 0 1
    outer loop
      vertex -1.86455 -0.830152 48.5
      vertex -1.99641 0.424349 48.5
      vertex -1.99641 -0.424349 48.5
    endloop
  endfacet
  facet normal 0 0 1
    outer loop
      vertex -1.3657 -1.51676 48.5
      vertex -1.99641 0.424349 48.5
      vertex -1.65121 -1.19967 48.5
    endloop
  endfacet
  facet normal 0 0 1
    outer loop
      vertex -1.0205 -1.76756 48.5
      vertex -1.99641 0.424349 48.5
      vertex -1.3657 -1.51676 48.5
    endloop
  endfacet
  facet normal 0 0 1
    outer loop
      vertex -0.630706 -1.94111 48.5
      vertex -1.99641 0.424349 48.5
      vertex -1.0205 -1.76756 48.5
    endloop
  endfacet
  facet normal 0 0 1
    outer loop
      vertex -1.21352 -0.881678 48.5
      vertex -1.99641 0.424349 48.5
      vertex -0.630706 -1.94111 48.5
    endloop
  endfacet
  facet normal 0 0 1
    outer loop
      vertex -1.21352 0.881678 48.5
      vertex 0.463525 1.42658 48.5
      vertex 1.0205 1.76756 48.5
    endloop
  endfacet
  facet normal 0 0 1
    outer loop
      vertex 1.5 0 48.5
      vertex 0.463525 -1.42658 48.5
      vertex 1.0205 -1.76756 48.5
    endloop
  endfacet
  facet normal 0 0 1
    outer loop
      vertex 1.5 0 48.5
      vertex 1.0205 -1.76756 48.5
      vertex 1.3657 -1.51676 48.5
    endloop
  endfacet
  facet normal 0 0 1
    outer loop
      vertex 0.463525 1.42658 48.5
      vertex 1.5 0 48.5
      vertex 2.04101 0 48.5
    endloop
  endfacet
  facet normal 0 0 1
    outer loop
      vertex 0.463525 1.42658 48.5
      vertex 2.04101 0 48.5
      vertex 1.99641 0.424349 48.5
    endloop
  endfacet
  facet normal 0 0 1
    outer loop
      vertex 0.463525 1.42658 48.5
      vertex 1.99641 0.424349 48.5
      vertex 1.86455 0.830152 48.5
    endloop
  endfacet
  facet normal 0 0 1
    outer loop
      vertex 0.463525 1.42658 48.5
      vertex 1.65121 1.19967 48.5
      vertex 1.3657 1.51676 48.5
    endloop
  endfacet
  facet normal 0 0 1
    outer loop
      vertex -0.213343 2.02983 48.5
      vertex -1.99641 0.424349 48.5
      vertex 0.213343 2.02983 48.5
    endloop
  endfacet
  facet normal 0 0 1
    outer loop
      vertex -0.630706 1.94111 48.5
      vertex -1.99641 0.424349 48.5
      vertex -0.213343 2.02983 48.5
    endloop
  endfacet
  facet normal 0 0 1
    outer loop
      vertex -1.0205 1.76756 48.5
      vertex -1.99641 0.424349 48.5
      vertex -0.630706 1.94111 48.5
    endloop
  endfacet
  facet normal 0 0 1
    outer loop
      vertex -1.3657 1.51676 48.5
      vertex -1.99641 0.424349 48.5
      vertex -1.0205 1.76756 48.5
    endloop
  endfacet
  facet normal 0 0 1
    outer loop
      vertex -1.65121 1.19967 48.5
      vertex -1.99641 0.424349 48.5
      vertex -1.3657 1.51676 48.5
    endloop
  endfacet
  facet normal 0 0 1
    outer loop
      vertex -1.86455 0.830152 48.5
      vertex -1.99641 0.424349 48.5
      vertex -1.65121 1.19967 48.5
    endloop
  endfacet
  facet normal 0 0 1
    outer loop
      vertex -0.213343 -2.02983 48.5
      vertex -1.21352 -0.881678 48.5
      vertex -0.630706 -1.94111 48.5
    endloop
  endfacet
  facet normal 0 0 1
    outer loop
      vertex -1.21352 0.881678 48.5
      vertex 1.0205 1.76756 48.5
      vertex 0.630706 1.94111 48.5
    endloop
  endfacet
  facet normal 0 0 1
    outer loop
      vertex 0.213343 2.02983 48.5
      vertex -1.21352 0.881678 48.5
      vertex 0.630706 1.94111 48.5
    endloop
  endfacet
  facet normal 0 0 1
    outer loop
      vertex 0.213343 2.02983 48.5
      vertex -1.99641 0.424349 48.5
      vertex -1.21352 0.881678 48.5
    endloop
  endfacet
  facet normal 0 0 1
    outer loop
      vertex 1.0205 1.76756 48.5
      vertex 0.463525 1.42658 48.5
      vertex 1.3657 1.51676 48.5
    endloop
  endfacet
  facet normal 0 0 1
    outer loop
      vertex 0.463525 1.42658 48.5
      vertex 1.86455 0.830152 48.5
      vertex 1.65121 1.19967 48.5
    endloop
  endfacet
  facet normal 0 0 1
    outer loop
      vertex 2.04101 0 48.5
      vertex 1.5 0 48.5
      vertex 1.99641 -0.424349 48.5
    endloop
  endfacet
  facet normal 0 0 1
    outer loop
      vertex 1.0205 -1.76756 48.5
      vertex 0.463525 -1.42658 48.5
      vertex 0.630706 -1.94111 48.5
    endloop
  endfacet
  facet normal 0 0 1
    outer loop
      vertex 0.463525 -1.42658 48.5
      vertex 0.213343 -2.02983 48.5
      vertex 0.630706 -1.94111 48.5
    endloop
  endfacet
  facet normal 0 0 1
    outer loop
      vertex 0.463525 -1.42658 48.5
      vertex -0.213343 -2.02983 48.5
      vertex 0.213343 -2.02983 48.5
    endloop
  endfacet
  facet normal 0 0 1
    outer loop
      vertex 0.463525 -1.42658 48.5
      vertex -1.21352 -0.881678 48.5
      vertex -0.213343 -2.02983 48.5
    endloop
  endfacet
  facet normal 0 0 1
    outer loop
      vertex 1.5 0 48.5
      vertex 1.3657 -1.51676 48.5
      vertex 1.65121 -1.19967 48.5
    endloop
  endfacet
  facet normal 0 0 1
    outer loop
      vertex 1.5 0 48.5
      vertex 1.65121 -1.19967 48.5
      vertex 1.86455 -0.830152 48.5
    endloop
  endfacet
  facet normal 0 0 1
    outer loop
      vertex 1.5 0 48.5
      vertex 1.86455 -0.830152 48.5
      vertex 1.99641 -0.424349 48.5
    endloop
  endfacet
  facet normal 0 0 1
    outer loop
      vertex -1.21352 -0.881678 48.5
      vertex -1.21352 0.881678 48.5
      vertex -1.99641 0.424349 48.5
    endloop
  endfacet
  facet normal 1 0 0
    outer loop
      vertex -0.121353 0.088168 0
      vertex -0.121353 0.088168 0.6
      vertex -0.121353 -0.088168 0.6
    endloop
  endfacet
  facet normal 1 0 0
    outer loop
      vertex -0.121353 -0.088168 0
      vertex -0.121353 0.088168 0
      vertex -0.121353 -0.088168 0.6
    endloop
  endfacet
  facet normal 0.309012 -0.951058 0
    outer loop
      vertex 0.046353 0.142658 0
      vertex 0.046353 0.142658 0.6
      vertex 0.0463523 0.142658 0.599999
    endloop
  endfacet
  facet normal 0.309012 -0.951058 0
    outer loop
      vertex -0.121353 0.0881681 0.6
      vertex 0.046353 0.142658 0
      vertex 0.0463523 0.142658 0.599999
    endloop
  endfacet
  facet normal 0.309012 -0.951058 0
    outer loop
      vertex -0.121353 0.0881681 0.6
      vertex -0.121353 0.088168 0.6
      vertex 0.046353 0.142658 0
    endloop
  endfacet
  facet normal 0.309012 -0.951058 0
    outer loop
      vertex -0.121353 0.088168 0.6
      vertex -0.121353 0.088168 0
      vertex 0.046353 0.142658 0
    endloop
  endfacet
  facet normal -0.809017 -0.587785 0
    outer loop
      vertex 0.15 0 0.6
      vertex 0.046353 0.142658 0.6
      vertex 0.15 0 0
    endloop
  endfacet
  facet normal -0.809017 -0.587785 0
    outer loop
      vertex 0.15 0 0
      vertex 0.046353 0.142658 0.6
      vertex 0.046353 0.142658 0
    endloop
  endfacet
  facet normal -0.809017 0.587785 0
    outer loop
      vertex 0.15 0 0.6
      vertex 0.15 0 0
      vertex 0.046353 -0.142658 0.6
    endloop
  endfacet
  facet normal -0.809017 0.587785 0
    outer loop
      vertex 0.046353 -0.142658 0.6
      vertex 0.15 0 0
      vertex 0.046353 -0.142658 0
    endloop
  endfacet
  facet normal 0.309012 0.951058 0
    outer loop
      vertex 0.046353 -0.142658 0
      vertex 0.0463523 -0.142658 0.599999
      vertex 0.046353 -0.142658 0.6
    endloop
  endfacet
  facet normal 0.309012 0.951058 0
    outer loop
      vertex -0.121353 -0.0881681 0.6
      vertex 0.0463523 -0.142658 0.599999
      vertex 0.046353 -0.142658 0
    endloop
  endfacet
  facet normal 0.309012 0.951058 0
    outer loop
      vertex -0.121353 -0.0881681 0.6
      vertex 0.046353 -0.142658 0
      vertex -0.121353 -0.088168 0.6
    endloop
  endfacet
  facet normal 0.309012 0.951058 0
    outer loop
      vertex 0.046353 -0.142658 0
      vertex -0.121353 -0.088168 0
      vertex -0.121353 -0.088168 0.6
    endloop
  endfacet
  facet normal 0.309017 0.951056 0
    outer loop
      vertex 0.463525 -1.42658 48.5
      vertex 0.463525 -1.42658 1.5
      vertex -1.21352 -0.881678 48.5
    endloop
  endfacet
  facet normal 0.309017 0.951056 0
    outer loop
      vertex -1.21352 -0.881678 48.5
      vertex 0.463525 -1.42658 1.5
      vertex -1.21352 -0.881678 1.5
    endloop
  endfacet
  facet normal 1 0 0
    outer loop
      vertex -1.21352 0.881678 1.5
      vertex -1.21352 0.881678 48.5
      vertex -1.21352 -0.881678 48.5
    endloop
  endfacet
  facet normal 1 0 0
    outer loop
      vertex -1.21352 -0.881678 1.5
      vertex -1.21352 0.881678 1.5
      vertex -1.21352 -0.881678 48.5
    endloop
  endfacet
  facet normal -0.809017 0.587785 0
    outer loop
      vertex 1.5 0 48.5
      vertex 1.5 0 1.5
      vertex 0.463525 -1.42658 48.5
    endloop
  endfacet
  facet normal -0.809017 0.587785 0
    outer loop
      vertex 0.463525 -1.42658 48.5
      vertex 1.5 0 1.5
      vertex 0.463525 -1.42658 1.5
    endloop
  endfacet
  facet normal -0.809017 -0.587785 0
    outer loop
      vertex 1.5 0 48.5
      vertex 0.463525 1.42658 48.5
      vertex 1.5 0 1.5
    endloop
  endfacet
  facet normal -0.809017 -0.587785 0
    outer loop
      vertex 1.5 0 1.5
      vertex 0.463525 1.42658 48.5
      vertex 0.463525 1.42658 1.5
    endloop
  endfacet
  facet normal 0.309017 -0.951056 0
    outer loop
      vertex 0.463525 1.42658 1.5
      vertex 0.463525 1.42658 48.5
      vertex -1.21352 0.881678 48.5
    endloop
  endfacet
  facet normal 0.309017 -0.951056 0
    outer loop
      vertex -1.21352 0.881678 1.5
      vertex 0.463525 1.42658 1.5
      vertex -1.21352 0.881678 48.5
    endloop
  endfacet
  facet normal 0.635945 0 0.771735
    outer loop
      vertex -1.21352 0.881678 1.5
      vertex -0.121353 -0.088168 0.6
      vertex -0.121353 0.088168 0.6
    endloop
  endfacet
  facet normal 0.635945 0 0.771735
    outer loop
      vertex -0.121353 -0.0881681 0.6
      vertex -0.121353 -0.088168 0.6
      vertex -1.21352 -0.881678 1.5
    endloop
  endfacet
  facet normal 0.635945 0 0.771735
    outer loop
      vertex -0.121353 0.0881681 0.6
      vertex -1.21352 0.881678 1.5
      vertex -0.121353 0.088168 0.6
    endloop
  endfacet
  facet normal 0.635945 0 0.771735
    outer loop
      vertex -1.21352 0.881678 1.5
      vertex -1.21352 -0.881678 1.5
      vertex -0.121353 -0.088168 0.6
    endloop
  endfacet
  facet normal 0.196518 -0.604819 0.771735
    outer loop
      vertex -0.121353 0.0881681 0.6
      vertex 0.0463523 0.142658 0.599999
      vertex 0.463525 1.42658 1.5
    endloop
  endfacet
  facet normal 0.196518 -0.604819 0.771735
    outer loop
      vertex -1.21352 0.881678 1.5
      vertex -0.121353 0.0881681 0.6
      vertex 0.463525 1.42658 1.5
    endloop
  endfacet
  facet normal -0.51449 -0.373799 0.771735
    outer loop
      vertex 0.046353 0.142658 0.6
      vertex 0.15 0 0.6
      vertex 1.5 0 1.5
    endloop
  endfacet
  facet normal -0.51449 -0.373799 0.771735
    outer loop
      vertex 0.0463523 0.142658 0.599999
      vertex 0.046353 0.142658 0.6
      vertex 0.463525 1.42658 1.5
    endloop
  endfacet
  facet normal -0.51449 -0.373799 0.771735
    outer loop
      vertex 0.463525 1.42658 1.5
      vertex 0.046353 0.142658 0.6
      vertex 1.5 0 1.5
    endloop
  endfacet
  facet normal -0.51449 0.373799 0.771735
    outer loop
      vertex 0.463525 -1.42658 1.5
      vertex 1.5 0 1.5
      vertex 0.15 0 0.6
    endloop
  endfacet
  facet normal -0.51449 0.373799 0.771735
    outer loop
      vertex 0.0463523 -0.142658 0.599999
      vertex 0.463525 -1.42658 1.5
      vertex 0.046353 -0.142658 0.6
    endloop
  endfacet
  facet normal -0.51449 0.373799 0.771735
    outer loop
      vertex 0.046353 -0.142658 0.6
      vertex 0.463525 -1.42658 1.5
      vertex 0.15 0 0.6
    endloop
  endfacet
  facet normal 0.196518 0.604819 0.771735
    outer loop
      vertex 0.463525 -1.42658 1.5
      vertex 0.0463523 -0.142658 0.599999
      vertex -0.121353 -0.0881681 0.6
    endloop
  endfacet
  facet normal 0.196518 0.604819 0.771735
    outer loop
      vertex -1.21352 -0.881678 1.5
      vertex 0.463525 -1.42658 1.5
      vertex -0.121353 -0.0881681 0.6
    endloop
  endfacet
endsolid OpenSCAD_Model
